<svg width="337" height="337" viewBox="0 0 337 337" fill="none" xmlns="http://www.w3.org/2000/svg">
<path d="M58.157 301.684C-2.78409 266.499 -2.78409 209.454 58.157 174.27C119.098 139.086 217.904 139.086 278.845 174.27C339.787 209.454 339.787 266.499 278.845 301.684C217.904 336.869 119.098 336.869 58.157 301.684Z" fill="#F5F5F5"/>
<path d="M106.925 303.381C133.368 303.381 154.803 291.005 154.803 275.738C154.803 260.471 133.368 248.095 106.925 248.095C80.4827 248.095 59.0469 260.471 59.0469 275.738C59.0469 291.005 80.4827 303.381 106.925 303.381Z" fill="#E0E0E0"/>
<path d="M217.598 262.835C250.802 244.928 270.495 217.017 261.584 200.494C252.673 183.972 218.533 185.094 185.329 203.001C152.126 220.908 132.433 248.819 141.343 265.341C150.254 281.864 184.394 280.742 217.598 262.835Z" fill="#E0E0E0"/>
<path d="M250.627 223.574C257.267 215.66 267.667 210.502 279.362 207.46C290.907 204.456 292.978 197.352 285.324 195.047C276.647 192.434 265.822 197.236 258.842 203.914C246.676 215.554 245.151 224.463 245.151 224.463L250.627 223.574Z" fill="#27DEBF"/>
<path opacity="0.15" d="M250.627 223.574C257.267 215.66 267.667 210.502 279.362 207.46C290.907 204.456 292.978 197.352 285.324 195.047C276.647 192.434 265.822 197.236 258.842 203.914C246.676 215.554 245.151 224.463 245.151 224.463L250.627 223.574Z" fill="black"/>
<path d="M247.207 223.111C247.157 223.111 247.108 223.1 247.06 223.077C246.892 222.996 246.822 222.794 246.905 222.627C256.759 202.408 278.565 197.434 283.866 197.809C284.052 197.822 284.19 197.985 284.178 198.17C284.163 198.355 283.992 198.494 283.816 198.481C278.64 198.085 257.213 203.015 247.511 222.922C247.452 223.042 247.331 223.111 247.207 223.111Z" fill="white"/>
<path d="M245.15 225.677C245.15 227.107 246.699 227.974 247.934 227.254C254.108 223.659 263.114 221.674 277.688 225.82C285.436 228.025 289.251 226.55 290.885 223.395C292.7 219.89 288.854 216.503 284.478 214.904C269.563 209.454 256.101 213.175 245.149 224.048L245.15 225.677Z" fill="#27DEBF"/>
<path d="M245.998 225.966C245.905 225.966 245.813 225.928 245.747 225.854C245.623 225.715 245.635 225.503 245.774 225.378C258.651 213.868 278.603 216.109 286.154 220.598C286.313 220.693 286.366 220.9 286.271 221.06C286.175 221.22 285.969 221.272 285.809 221.178C278.411 216.78 258.855 214.59 246.223 225.881C246.159 225.938 246.078 225.966 245.998 225.966Z" fill="white"/>
<path d="M101.043 252.517C95.383 243.875 85.6646 237.526 74.4102 233.125C63.2993 228.78 62.0821 221.481 69.9544 220.095C78.8781 218.523 89.0616 224.57 95.2051 232.025C105.912 245.018 106.375 254.045 106.375 254.045L101.043 252.517Z" fill="#27DEBF"/>
<path opacity="0.15" d="M101.043 252.517C95.383 243.875 85.6646 237.526 74.4102 233.125C63.2993 228.78 62.0821 221.481 69.9544 220.095C78.8781 218.523 89.0616 224.57 95.2051 232.025C105.912 245.018 106.375 254.045 106.375 254.045L101.043 252.517Z" fill="black"/>
<path d="M104.492 252.462C104.542 252.468 104.593 252.462 104.643 252.445C104.819 252.383 104.912 252.192 104.85 252.016C97.4504 230.776 76.3832 223.264 71.0748 223.011C70.8888 223.002 70.7317 223.147 70.723 223.333C70.7149 223.519 70.8692 223.676 71.0451 223.685C76.2322 223.901 96.9281 231.325 104.214 252.238C104.258 252.364 104.369 252.448 104.492 252.462Z" fill="white"/>
<path d="M106.424 253.634C106.176 255.718 103.818 256.8 102.075 255.631C96.362 251.804 87.8487 249.321 73.9043 251.556C65.9498 252.831 62.3365 250.917 61.0855 247.59C59.6964 243.895 63.915 240.986 68.449 239.914C83.9031 236.262 96.8318 241.545 106.424 253.634Z" fill="#27DEBF"/>
<path d="M105.356 255.439C105.448 255.45 105.544 255.423 105.618 255.357C105.758 255.234 105.771 255.021 105.647 254.881C94.2184 241.932 74.1413 241.803 66.1133 245.371C65.9435 245.446 65.8666 245.646 65.9421 245.816C66.0183 245.986 66.2171 246.062 66.387 245.987C74.2519 242.492 93.93 242.625 105.142 255.328C105.2 255.392 105.276 255.43 105.356 255.439Z" fill="white"/>
<path d="M256.674 98.5198L256.676 98.5151L256.57 98.4605C256.566 98.4585 256.562 98.4564 256.558 98.4544L230.866 83.6642C230.858 83.6601 230.85 83.6561 230.842 83.6514L230.691 83.5745L230.689 83.5813C218.687 77.5267 202.671 79.3425 185.446 90.4803C150.841 112.857 124.472 164.363 126.548 205.521C127.584 226.036 135.493 240.103 147.45 246.287L147.447 246.292L147.553 246.346C147.558 246.348 147.562 246.35 147.566 246.352L173.264 261.146C173.268 261.147 173.271 261.149 173.275 261.151L173.401 261.216L173.404 261.211C185.409 267.284 201.438 265.474 218.677 254.326C253.282 231.948 279.652 180.444 277.576 139.286C276.54 118.771 268.63 104.703 256.674 98.5198Z" fill="#37474F"/>
<path d="M172.39 260.677L147.575 246.349C147.556 246.351 147.556 246.351 147.556 246.351L147.44 246.281C135.49 240.082 127.584 226.014 126.551 205.528C125.624 187.173 130.367 166.77 138.949 147.822L139.123 147.407L164.651 162.61C156.05 181.559 151.326 201.961 152.252 220.317C153.264 240.391 160.861 254.287 172.39 260.677Z" fill="#263238"/>
<path d="M218.678 254.325C253.282 231.947 279.652 180.443 277.575 139.285C275.499 98.1281 245.763 82.9031 211.157 105.281C176.552 127.657 150.183 179.162 152.259 220.32C154.336 261.478 184.073 276.702 218.678 254.325Z" fill="#455A64"/>
<path d="M247.983 95.3267L204.613 184.659L195.277 174.541C192.397 171.413 188.293 169.618 184.016 169.618C180.146 169.618 176.446 171.061 173.594 173.683C167.387 179.418 167 189.143 172.733 195.361L197.324 222C200.046 224.949 203.755 226.692 207.766 226.909C208.049 226.924 208.332 226.932 208.616 226.932C209.35 226.932 210.093 226.879 210.839 226.773C215.871 226.025 220.192 222.855 222.398 218.295L272.139 115.841C267.061 104.482 258.564 97.4181 247.983 95.3267Z" fill="#37474F"/>
<path d="M283.206 65.8985C282.935 65.7428 282.657 65.5952 282.372 65.457C275.75 62.2555 267.761 65.0169 264.565 71.6187L209.374 185.296L206.239 181.899C205.305 180.885 204.248 180.052 203.11 179.4C201.464 178.457 194.468 174.405 193.337 173.752C188.432 170.921 182.032 171.454 177.627 175.504C172.238 180.483 171.903 188.927 176.879 194.326L201.47 220.966C202.406 221.979 203.477 222.826 204.646 223.491C206.251 224.404 213.222 228.446 214.363 229.108C216.161 230.151 218.193 230.763 220.324 230.878C221.203 230.925 222.085 230.89 222.991 230.761C227.358 230.112 231.114 227.358 233.028 223.401L298.32 88.917C301.386 82.5881 298.994 75.0069 293.004 71.5561C292.73 71.3977 284.949 66.9021 283.206 65.8985Z" fill="#27DEBF"/>
<path opacity="0.15" d="M283.206 65.8985C282.935 65.7428 282.657 65.5952 282.372 65.457C275.75 62.2555 267.761 65.0169 264.565 71.6187L209.374 185.296L206.239 181.899C205.305 180.885 204.248 180.052 203.11 179.4C201.464 178.457 194.468 174.405 193.337 173.752C188.432 170.921 182.032 171.454 177.627 175.504C172.238 180.483 171.903 188.927 176.879 194.326L201.47 220.966C202.406 221.979 203.477 222.826 204.646 223.491C206.251 224.404 213.222 228.446 214.363 229.108C216.161 230.151 218.193 230.763 220.324 230.878C221.203 230.925 222.085 230.89 222.991 230.761C227.358 230.112 231.114 227.358 233.028 223.401L298.32 88.917C301.386 82.5881 298.994 75.0069 293.004 71.5561C292.73 71.3977 284.949 66.9021 283.206 65.8985Z" fill="black"/>
<path opacity="0.15" d="M214.36 229.106C213.224 228.447 206.251 224.405 204.644 223.488C203.477 222.823 202.403 221.976 201.468 220.965L176.877 194.327C175.76 193.109 174.919 191.729 174.335 190.278L184.114 195.921C184.692 197.377 185.545 198.758 186.668 199.976L211.26 226.614C212.176 227.606 213.218 228.441 214.36 229.106Z" fill="black"/>
<path opacity="0.15" d="M277.44 73.1703C276.185 74.2878 275.13 75.6681 274.352 77.2689L217.587 194.196L209.377 185.296L264.567 71.6201C265.339 70.0133 266.406 68.639 267.662 67.5215L277.44 73.1703Z" fill="black"/>
<path d="M292.16 71.1089C285.538 67.9074 277.549 70.6688 274.353 77.2699L217.586 194.195L206.239 181.898C201.282 176.513 192.837 176.171 187.416 181.156C182.027 186.134 181.692 194.578 186.668 199.977L211.259 226.617C213.622 229.175 216.841 230.689 220.325 230.878C221.204 230.925 222.086 230.889 222.992 230.761C227.359 230.112 231.115 227.358 233.029 223.401L298.321 88.9167C301.526 82.2987 298.764 74.3111 292.16 71.1089Z" fill="#27DEBF"/>
<path d="M105.973 84.2414C100.832 84.2414 97.311 85.5799 93.6593 90.7812C90.3102 95.5518 81.0959 111.458 81.0959 111.458C81.0959 111.458 74.3768 97.6311 73.6786 94.8724C72.9803 92.1144 73.0423 90.8897 73.7062 89.692C74.5238 88.2166 75.253 86.9239 75.408 84.9498C75.6682 81.6384 76.4817 78.8009 75.7376 78.7065C73.6792 78.5885 73.6017 81.2279 72.5213 82.7896C72.1358 83.3463 70.8754 83.4279 70.4501 82.5625C69.9958 81.6391 70.2405 80.1246 70.0201 79.0327C70.1185 78.0884 70.2041 77.7831 70.3113 77.2298C70.8909 77.3646 71.7341 77.3807 72.6703 77.2958C73.5586 78.6923 74.1686 79.2794 75.408 78.7126C75.5718 78.451 74.8756 76.6609 74.0695 75.3702C73.9421 75.166 73.748 75.011 73.5161 74.9469C72.2706 74.6032 70.8586 74.5189 68.9451 74.8216C68.7193 74.8573 68.4867 74.9577 68.3594 75.1471C67.6456 76.2053 67.2183 77.2769 67.0444 77.8215C66.9527 78.1087 66.6872 78.1012 66.6204 77.8525C65.9633 74.5978 65.9539 69.9762 65.9539 67.8086C65.9539 66.1061 63.4621 65.8385 63.3751 68.2777C63.2862 70.7762 63.2215 75.4012 63.5436 78.0999C63.582 78.3938 63.2498 78.5346 63.1291 78.2125C62.6951 77.0559 61.6376 73.574 61.1941 67.5626C61.0748 65.9477 58.4596 65.6808 58.4792 67.9535C58.5324 74.1813 59.9761 79.9231 59.9761 79.9231C60.0523 80.2082 59.7942 80.4575 59.5967 80.1347C58.7272 78.7126 57.3597 75.1801 56.6675 72.7497C56.1128 70.7998 53.5057 71.2945 53.9614 73.7263C54.7789 78.0878 56.0737 83.6065 58.002 87.546C60.0644 91.7599 61.8492 93.8674 62.871 97.1775C63.8928 100.488 68.1363 119.233 72.6709 126.539C76.2236 132.263 80.2885 131.737 84.66 128.717C89.0316 125.698 104.663 103.918 104.663 103.918L105.973 84.2414Z" fill="#9E6767"/>
<path d="M81.0957 111.457C81.0957 111.457 83.2882 115.175 83.6212 118.144C83.6212 118.144 84.68 113.892 82.0757 109.772L81.0957 111.457Z" fill="#874C4C"/>
<path d="M107.065 84.2583C104.449 83.9894 101.199 83.899 97.5665 86.1819C93.9343 88.4647 92.6746 91.6521 90.9168 94.4337C89.159 97.2159 83.0762 107.079 83.0762 107.079C83.0762 107.079 85.3064 116.442 94.1803 118.371L107.465 100.345L107.065 84.2583Z" fill="#455A64"/>
<path d="M118.979 248.859C119.627 248.777 120.545 251.072 120.558 251.821C120.571 252.571 119.82 254.181 118.826 255.689C117.831 257.198 116.454 259.065 115.56 261.503C114.798 263.58 114.095 264.942 111.975 267.66C109.613 270.689 104.076 275.753 95.6616 273.548C93.6079 273.01 92.5807 272.362 91.8373 271.615C91.2098 270.985 90.9119 269.963 91.2489 269.041L118.979 248.859Z" fill="#263238"/>
<path d="M102.453 246.234C102.446 246.258 102.44 246.282 102.435 246.305C102.289 246.924 102.413 247.569 102.491 248.2C102.766 250.412 102.471 252.693 101.642 254.763C101.085 256.154 100.288 257.447 99.3009 258.574C98.296 259.721 96.6514 260.935 95.3688 261.753C91.1057 264.474 90.6481 266.292 91.2486 269.041C92.6741 272.242 102.337 274.191 107.891 269.422C110.061 267.558 111.709 265.921 113.178 262.233C114.211 259.639 114.984 258.17 115.98 256.302C117.056 254.283 119.093 252.001 119.152 249.917C119.185 248.773 118.052 246.644 116.95 244.889C115.94 243.28 114.899 241.749 113.99 241.928L114.241 242.838C113.484 243.626 112.384 243.919 111.72 244.843C110.901 245.983 110.931 247.514 110.421 248.821C110.372 248.947 110.303 249.085 110.174 249.124C110.036 249.166 109.887 249.07 109.819 248.943C109.752 248.817 109.746 248.667 109.741 248.523C109.722 247.869 109.701 247.215 109.682 246.561C109.67 246.187 109.647 245.78 109.398 245.499C108.872 244.905 107.576 244.975 106.856 244.945C105.868 244.905 104.929 245.058 103.952 245.12C103.589 245.143 103.317 245.12 103.007 245.369C102.739 245.586 102.546 245.902 102.453 246.234Z" fill="#37474F"/>
<path d="M88.1728 207.049C90.4186 214.428 100.911 239.977 101.541 241.514C102.172 243.051 103.628 246.585 103.628 246.585C103.628 246.585 105.342 247.291 107.89 246.762C108.11 249.21 108.48 253.047 108.625 254.982C108.674 257.227 108.869 259.999 108.387 262.217C107.975 264.107 107.499 266.087 107.143 267.981C106.985 268.819 106.827 269.657 106.701 270.501C106.567 271.393 106.481 272.357 106.912 273.149C107.114 273.52 107.418 273.826 107.744 274.094C109.198 275.291 111.155 275.799 113.032 275.647C114.025 275.566 115.024 275.299 115.834 274.719C117.464 273.55 118.038 271.521 118.868 269.796C119.769 267.925 119.477 267.72 119.554 265.717C119.608 264.315 119.996 260.755 120.556 257.036C121.117 253.317 123.531 240.241 124.689 227.21C125.49 218.189 124.688 209.822 124.688 209.822C133.896 184.808 137.995 169.938 139.199 161.629C140.421 153.19 139.836 150.188 139.681 145.33L94.9081 146.408C91.3089 169.55 85.16 197.151 88.1728 207.049Z" fill="#9E6767"/>
<path d="M87.4743 188.577C88.3964 180.071 94.7583 147.375 94.7583 147.375H139.866C139.866 147.375 140.151 153.652 140.069 156.534C139.988 159.416 139.062 164.689 137.447 171.35C135.832 178.011 129.868 196.885 128.715 199.671C127.562 202.458 125.329 210.503 125.329 210.503C126.436 225.63 123.559 239.204 121.401 257.244C121.401 257.244 120.777 259.681 114.384 259.198C108.172 258.729 106.919 256.44 106.919 256.44L106.503 240.873C106.503 240.873 103.106 241.915 101.111 241.438C101.111 241.438 87.7601 208.478 87.1144 206.492C86.4707 204.505 86.5516 197.083 87.4743 188.577Z" fill="#27DEBF"/>
<path opacity="0.45" d="M87.4743 188.577C88.3964 180.071 94.7583 147.375 94.7583 147.375H139.866C139.866 147.375 140.151 153.652 140.069 156.534C139.988 159.416 139.062 164.689 137.447 171.35C135.832 178.011 129.868 196.885 128.715 199.671C127.562 202.458 125.329 210.503 125.329 210.503C126.436 225.63 123.559 239.204 121.401 257.244C121.401 257.244 120.777 259.681 114.384 259.198C108.172 258.729 106.919 256.44 106.919 256.44L106.503 240.873C106.503 240.873 103.106 241.915 101.111 241.438C101.111 241.438 87.7601 208.478 87.1144 206.492C86.4707 204.505 86.5516 197.083 87.4743 188.577Z" fill="black"/>
<path opacity="0.2" d="M106.606 168.689C100.219 162.93 98.7988 158.348 98.7988 158.348C103.559 163.967 110.046 167.361 110.046 167.361C110.046 167.361 103.981 199.39 104.423 205.976C104.863 212.561 106.505 240.873 106.505 240.873C106.517 241.145 102.205 210.931 102.083 208.516C101.76 202.155 106.606 168.689 106.606 168.689Z" fill="black"/>
<path d="M120.665 273.283C121.294 273.462 121.215 275.338 120.932 276.034C120.648 276.729 119.528 278.059 118.017 279.056C116.507 280.052 115.102 281.448 113.74 283.663C112.772 285.237 110.332 288.231 107.033 290.209C103.735 292.186 98.8589 292.878 95.2368 291.849C91.0054 290.647 90.6111 289.61 90.6509 288.014L120.665 273.283Z" fill="#263238"/>
<path d="M107.573 263.482C106.463 268.9 104.528 272.832 100.041 276.167C96.4738 278.818 93.8816 280.165 91.0353 282.535C89.8228 283.544 89.721 285.696 90.6505 288.014C92.5741 289.56 95.3105 290.443 98.9865 290.438C103.095 290.432 104.675 289.707 107.033 288.093C108.39 287.164 109.329 286.315 110.252 285.388C112.226 283.408 113.602 280.964 115.026 279.394C116.451 277.823 119.532 276.221 120.408 274.325C120.89 273.284 120.685 270.877 120.363 268.829C120.067 266.949 120.643 263.647 119.736 263.454C119.756 263.458 119.613 264.8 119.613 264.8C119.539 265.105 119.349 265.259 118.713 265.479C118.289 265.626 117.421 265.605 116.978 265.531C116.46 265.445 116.163 265.453 115.818 265.859C115.21 266.576 115.048 267.585 114.268 268.177C114.214 268.219 114.155 268.258 114.087 268.273C114.021 268.288 113.943 268.272 113.899 268.22C113.851 268.16 113.857 268.075 113.865 267.999C113.94 267.327 114.015 266.655 114.09 265.983C114.113 265.78 114.135 265.575 114.107 265.373C114.054 264.998 113.77 264.678 113.456 264.487C112.907 264.153 112.263 263.907 111.645 263.735C110.989 263.552 110.314 263.454 109.636 263.392C108.956 263.33 108.245 263.316 107.573 263.482Z" fill="#455A64"/>
<path d="M135.789 86.1817C135.789 86.1817 137.648 88.7341 139.135 93.9846C139.135 93.9846 141.967 105.989 141.967 120.216C141.967 132.122 140.36 151.42 140.36 151.42C126.539 158.348 104.243 154.251 94.4307 147.495C94.8277 145.349 95.1647 134.082 95.9357 126.648C96.4587 113.894 96.8887 107.211 96.9791 101.538C97.159 90.2008 102.802 84.3457 107.064 84.2588L117.888 84.428L135.789 86.1817Z" fill="#27DEBF"/>
<path d="M139.201 147.919C137.146 149.611 133.11 152.862 132.372 154.499C131.527 156.374 131.001 159.196 130.452 160.286C129.903 161.376 130.745 161.885 131.929 161.505C133.113 161.124 133.827 160.112 134.741 157.66C135.655 155.208 138.204 153.289 138.204 153.289L139.201 147.919Z" fill="#874C4C"/>
<path d="M131.696 169.985C132.186 170.933 133.336 170.938 134.4 171.024C135.914 171.146 136.77 171.04 138.221 170.589C139.672 170.138 141.025 169.279 141.895 168.032C142.933 166.542 143.198 164.665 143.79 162.948C145.035 159.339 148.729 156.741 149.331 152.919C149.58 151.338 149.582 149.481 150.03 148.5C150.293 147.923 156.365 137.468 158.531 132.939C160.612 128.587 162.169 126.538 160.282 121.305C158.396 116.071 151.968 97.667 147.422 91.2721C144.843 87.6439 140.751 86.6107 135.79 86.1807C132.017 96.0136 136.409 106.167 136.409 106.167L146.392 125.428C146.392 125.428 142.511 138.692 140.085 146.068C139.411 148.117 138.049 149.383 136.518 151.654C135.854 152.64 134.324 154.367 133.781 155.425C133.081 156.788 133.1 157.66 132.771 159.568C132.248 162.61 131.462 169.533 131.696 169.985Z" fill="#9E6767"/>
<path d="M135.257 86.1294C137.864 86.2339 141.612 86.6747 143.853 87.8063C146.095 88.938 147.645 90.3365 150.225 95.4973C152.804 100.659 156.561 110.689 156.561 110.689C156.561 110.689 155.314 118.256 143.347 120.22L135.257 105.306C135.257 105.306 131.653 96.0143 135.257 86.1294Z" fill="#455A64"/>
<path d="M104.165 62.0394C104.555 62.6082 104.772 63.3853 105.08 64.0068C105.514 64.8816 105.948 65.7679 106.593 66.5107C108.144 68.2975 110.325 69.607 112.308 70.8715C113.513 71.6398 114.887 72.3624 116.358 72.1514C117.852 71.9371 119.467 72.2613 120.988 72.3974C122.756 72.5558 124.523 72.7142 126.291 72.8726L125.992 78.4492C125.992 78.4492 126.649 76.9705 127.548 75.2073C128.32 73.6915 131.54 65.9964 131.552 65.9674C133.148 62.1546 135.045 57.0747 133.134 53.0691C132.683 52.1242 132.015 51.2432 131.06 50.6912C131.253 49.9559 131.313 49.4443 131.236 48.7926C130.979 46.6371 129.882 45.4044 128.42 44.328C126.957 43.2516 125.187 42.6747 123.417 42.2676C121.046 41.7223 118.612 41.4527 116.179 41.4622C113.759 41.4716 111.453 41.8773 109.078 42.2777C107.77 42.4981 106.449 42.676 105.121 42.6909C104.563 42.6969 103.945 42.734 103.408 42.6093C102.711 42.4475 102.014 42.1058 101.341 41.8632C101.221 41.82 101.086 41.7776 100.972 41.8335C100.856 41.8901 100.806 42.027 100.772 42.1517C100.346 43.7106 100.882 45.7373 101.874 47.0132C101.468 46.962 101.155 46.8245 100.997 46.7584C100.669 46.6216 100.385 46.4336 100.086 46.2469C99.5482 45.9112 99.2186 45.521 98.8068 45.0263C98.7495 44.9575 98.6848 44.8841 98.5965 44.8685C98.4631 44.845 98.3492 44.9616 98.269 45.0708C97.5006 46.1202 97.3085 47.5207 97.568 48.7959C97.8275 50.0705 98.5008 51.2304 99.3218 52.2401C98.4408 53.549 98.4274 55.3284 99.0832 56.7633C99.3743 57.4002 99.7862 57.9758 100.274 58.4766C100.879 59.0967 101.596 59.6035 102.232 60.1805C102.881 60.7702 103.664 61.3088 104.165 62.0394Z" fill="#37474F"/>
<path d="M120.318 52.7527C120.332 54.2389 120.542 55.2768 120.699 55.7345C121.012 56.6484 121.536 57.2516 122.204 57.9506C122.889 58.667 123.738 59.2379 124.292 60.0602C125.046 61.1824 125.306 62.6288 125.465 63.9418C125.561 64.7404 125.807 65.6106 126.49 66.0339C127.932 66.9256 128.796 65.1961 129.565 64.3475C130.557 63.4302 133.498 62.3127 134.858 65.438C136.268 68.6759 133.67 72.9632 131.303 73.6224C127.223 74.7588 126.338 71.9833 126.338 71.9833L125.556 86.5416C123.252 90.9044 117.847 92.2889 114.295 91.5946C111.229 90.9954 109.544 88.8474 112.428 85.7295L112.583 81.2959C112.583 81.2959 108.906 81.7327 107.129 81.3984C104.174 80.8423 102.709 78.3317 101.912 75.087C100.633 69.8763 100.048 64.3994 101.63 52.6678C102.356 52.2674 105.271 54.5395 109.685 54.8441C114.071 55.1474 118.117 53.9693 120.318 52.7527Z" fill="#9E6767"/>
<path d="M112.584 81.2966C112.584 81.2966 119.257 80.1764 121.615 79.0191C123.194 78.2447 124.518 76.857 124.923 75.9531C124.923 75.9531 124.424 77.9064 122.981 79.6332C121.215 81.7455 112.526 83.0605 112.526 83.0605L112.584 81.2966Z" fill="#874C4C"/>
<path d="M116.029 57.9372L119.136 58.8876C119.378 58.0019 118.878 57.0712 118.021 56.8083C117.163 56.5454 116.271 57.0509 116.029 57.9372Z" fill="#263238"/>
<path d="M114.95 72.6836L110.377 74.2324C110.782 75.542 112.134 76.2565 113.397 75.8292C114.66 75.4018 115.355 73.9932 114.95 72.6836Z" fill="#874C4C"/>
<path d="M114.581 73.8032C113.318 73.8032 112.265 74.6761 111.974 75.8488C112.423 75.9877 112.917 75.9924 113.398 75.8299C114.285 75.5293 114.882 74.7421 115.024 73.8484C114.879 73.8241 114.733 73.8032 114.581 73.8032Z" fill="#F28F8F"/>
<path d="M102.162 58.4589L105.317 58.0431C105.223 57.1851 104.44 56.5825 103.569 56.6971C102.698 56.8117 102.068 57.6002 102.162 58.4589Z" fill="#263238"/>
<path d="M121.592 59.8057L132.015 63.3779C132.015 63.3779 130.382 63.2458 129.012 64.9024L121.629 62.0979L121.592 59.8057Z" fill="#263238"/>
<path d="M103.713 63.8715C103.69 64.5859 104.228 65.1817 104.916 65.202C105.604 65.2222 106.181 64.6601 106.204 63.945C106.227 63.2305 105.688 62.6347 105.001 62.6138C104.312 62.5936 103.736 63.1564 103.713 63.8715Z" fill="#263238"/>
<path d="M115.626 63.8778C115.603 64.5923 116.141 65.1881 116.829 65.2083C117.517 65.2285 118.094 64.6664 118.117 63.9513C118.14 63.2368 117.601 62.6403 116.914 62.6201C116.226 62.6006 115.649 63.1634 115.626 63.8778Z" fill="#263238"/>
<path d="M97.5651 60.5617C97.611 61.1953 98.0154 61.7844 98.223 62.031C98.3321 62.1611 98.4332 62.3323 98.4872 62.5547C98.7305 63.557 98.9381 65.4563 99.4132 66.5233C99.8904 67.5888 100.886 69.2792 103.685 69.3433C104.23 69.3568 104.712 69.3123 105.139 69.2206C105.176 69.2139 105.213 69.2044 105.249 69.197C105.701 69.0919 106.091 68.9315 106.43 68.7319C106.454 68.7178 106.478 68.703 106.5 68.6881C106.535 68.6679 106.568 68.647 106.601 68.6241C106.631 68.6052 106.66 68.5843 106.728 68.5365C106.769 68.5082 106.807 68.4792 106.845 68.4482C106.89 68.4145 106.932 68.3801 106.974 68.3437C107.015 68.3094 107.056 68.2736 107.096 68.2352C107.176 68.1611 107.251 68.0842 107.325 68.004C107.738 67.5545 108.037 67.0274 108.274 66.4949C108.89 65.1079 108.73 63.1667 109.744 62.9423C109.781 62.9342 109.823 62.9275 109.865 62.9248C109.907 62.92 109.951 62.9194 109.996 62.9194C111.375 62.9396 111.221 65.0539 111.993 66.563C112.762 68.0748 114.037 69.5488 117.027 69.5906C117.16 69.5933 117.29 69.5906 117.414 69.5873C117.52 69.5825 117.623 69.5771 117.722 69.5664C117.979 69.5482 118.219 69.5118 118.442 69.4646C118.519 69.4471 118.595 69.4309 118.668 69.412C118.742 69.3931 118.815 69.3709 118.884 69.3507C118.93 69.3385 118.975 69.323 119.021 69.3075C119.326 69.2017 119.593 69.0743 119.831 68.9274C119.925 68.8681 120.013 68.8081 120.102 68.7448C120.273 68.6187 120.424 68.4853 120.57 68.3343C121.018 67.8679 121.289 67.3523 121.476 66.9317C121.94 65.8836 122.062 63.985 122.292 62.9962C122.354 62.7334 122.435 62.5507 122.521 62.424C122.714 62.1375 123.176 61.6401 123.194 61.0059C123.212 60.3717 122.765 59.819 122.362 59.7603C122.127 59.7266 121.882 59.6936 121.628 59.6626C119.269 59.3768 116.193 59.2508 114.353 59.7502C112.046 60.3811 111.246 61.1205 109.959 61.1023C108.756 61.074 107.975 60.307 105.79 59.5932C104.046 59.0264 101.171 59.0432 98.9751 59.2441C98.7399 59.2656 98.5128 59.2892 98.2951 59.3155C97.9176 59.358 97.5193 59.9282 97.5651 60.5617ZM112.742 62.0048C112.864 61.8255 113.093 61.6401 113.399 61.4683C113.436 61.444 113.476 61.4231 113.517 61.4022C113.539 61.3894 113.561 61.3786 113.583 61.3678C113.685 61.3146 113.794 61.2627 113.908 61.2142C114.003 61.1724 114.104 61.1306 114.209 61.0908C114.512 60.9735 114.846 60.8691 115.194 60.7808C115.322 60.7484 115.453 60.7167 115.586 60.6898C115.92 60.6177 116.259 60.5651 116.6 60.53C116.681 60.5213 116.761 60.5132 116.836 60.5112C119.058 60.3305 120.444 60.8542 120.948 61.3099C121.471 61.783 121.235 63.8347 121.023 64.8767C121.018 64.9023 121.012 64.9279 121.007 64.9542C121.001 64.9798 120.996 65.0074 120.991 65.0351C120.965 65.1611 120.935 65.304 120.896 65.4556C120.873 65.5392 120.849 65.6275 120.824 65.7165C120.822 65.7212 120.822 65.7246 120.819 65.7273C120.779 65.8681 120.73 66.013 120.671 66.1627V66.164C120.652 66.2125 120.631 66.2638 120.611 66.313C120.6 66.3419 120.586 66.3716 120.571 66.4019C120.557 66.435 120.542 66.4673 120.525 66.501C120.506 66.5421 120.485 66.5846 120.464 66.6257C120.441 66.6722 120.416 66.7187 120.389 66.7639C120.362 66.8124 120.333 66.8609 120.3 66.9108C120.271 66.9587 120.238 67.0092 120.203 67.0584C119.651 67.8557 118.719 68.5277 117.098 68.523C115.494 68.5196 114.472 67.9683 113.818 67.2727L113.816 67.2721C113.168 66.5785 112.879 65.7448 112.741 65.1672C112.467 63.9978 112.309 62.639 112.742 62.0048ZM99.6761 60.9176C99.7988 60.8003 99.9787 60.6803 100.219 60.5739C100.234 60.5664 100.246 60.561 100.261 60.555C100.335 60.5213 100.414 60.4903 100.501 60.4606C100.548 60.4451 100.598 60.4276 100.648 60.4134C100.687 60.402 100.73 60.3885 100.77 60.3791C100.798 60.3696 100.826 60.3642 100.852 60.3575C100.863 60.3535 100.874 60.3514 100.883 60.3501C100.922 60.34 100.963 60.3312 101.004 60.3218C101.162 60.2867 101.333 60.2591 101.515 60.2375C101.604 60.2261 101.697 60.216 101.792 60.2106C101.846 60.2052 101.902 60.2025 101.959 60.1984C102.002 60.1957 102.045 60.1944 102.088 60.193C102.202 60.1903 102.32 60.1877 102.442 60.1897C102.485 60.1904 102.528 60.1903 102.572 60.1917C102.611 60.1924 102.652 60.1937 102.694 60.1951C103.011 60.2072 103.353 60.2389 103.717 60.2915C105.301 60.5206 106.956 61.2546 107.387 61.9057C107.819 62.5561 107.722 63.9095 107.515 65.0688C107.474 65.2979 107.412 65.5642 107.315 65.8452C107.31 65.8641 107.301 65.8843 107.294 65.9059C107.286 65.9315 107.277 65.9578 107.266 65.9847C107.259 66.0023 107.254 66.0198 107.246 66.0373C107.234 66.0683 107.222 66.1 107.207 66.1303C107.18 66.1957 107.152 66.2584 107.122 66.3224C107.097 66.3763 107.069 66.4323 107.04 66.4862C107.029 66.5064 107.018 66.526 107.007 66.5441C106.987 66.5792 106.965 66.6169 106.942 66.654C106.924 66.685 106.904 66.7167 106.883 66.749C106.88 66.7538 106.877 66.7592 106.874 66.7645C106.322 67.6091 105.338 68.337 103.575 68.2709C102.911 68.2494 102.361 68.1004 101.913 67.8719C100.339 67.0719 99.9369 65.3026 99.7496 64.4824C99.5143 63.4343 99.2063 61.3705 99.6761 60.9176Z" fill="#263238"/>
<path d="M110.377 62.9926L110.141 71.6568L105.306 70.261L109.813 62.9211C110.022 62.9002 110.207 62.9306 110.377 62.9926Z" fill="#874C4C"/>
<path d="M177.949 64.0939C191.741 64.0939 202.921 54.3012 202.921 42.2213C202.921 30.1414 191.741 20.3486 177.949 20.3486C164.157 20.3486 152.977 30.1414 152.977 42.2213C152.977 54.3012 164.157 64.0939 177.949 64.0939Z" fill="#27DEBF"/>
<path d="M158.016 54.8677C157.879 57.8023 155.399 63.0446 150.913 64.9521C150.631 65.072 150.664 65.4785 150.964 65.5411C153.415 66.0514 159.957 66.6681 164.782 60.3075L158.016 54.8677Z" fill="#27DEBF"/>
<path d="M161.019 40.4856C161.072 39.5036 161.286 38.5788 161.664 37.7114C162.04 36.8433 162.575 36.0897 163.268 35.4501C163.96 34.8105 164.801 34.3023 165.792 33.9249C166.783 33.5474 167.927 33.3594 169.224 33.3594C170.503 33.3594 171.644 33.5474 172.642 33.9249C173.641 34.3023 174.487 34.8105 175.18 35.4501C175.872 36.0897 176.407 36.8433 176.784 37.7114C177.162 38.5788 177.376 39.5036 177.429 40.4856C177.464 41.2391 177.481 42.0284 177.481 42.852C177.481 43.677 177.464 44.4474 177.429 45.1665C177.376 46.1485 177.162 47.0733 176.784 47.9407C176.407 48.8088 175.872 49.5671 175.18 50.2154C174.488 50.8645 173.642 51.3727 172.642 51.7414C171.644 52.1094 170.503 52.2934 169.224 52.2934C167.927 52.2934 166.783 52.1094 165.792 51.7414C164.801 51.3727 163.96 50.8645 163.268 50.2154C162.575 49.5671 162.04 48.8088 161.664 47.9407C161.286 47.0733 161.072 46.1485 161.019 45.1665C160.984 44.448 160.967 43.677 160.967 42.852C160.967 42.0284 160.984 41.2391 161.019 40.4856ZM172.564 45.0351C172.58 44.719 172.599 44.3692 172.616 43.983C172.633 43.5981 172.642 43.2038 172.642 42.8001C172.642 42.3964 172.633 42.0068 172.616 41.63C172.599 41.2526 172.58 40.9156 172.564 40.617C172.528 40.1796 172.436 39.7759 172.288 39.4079C172.138 39.0392 171.928 38.7197 171.656 38.4474C171.384 38.1765 171.047 37.9608 170.643 37.8037C170.24 37.646 169.767 37.5665 169.224 37.5665C168.68 37.5665 168.207 37.6453 167.805 37.8037C167.401 37.9608 167.063 38.1765 166.792 38.4474C166.52 38.7197 166.31 39.0392 166.161 39.4079C166.011 39.7759 165.919 40.1796 165.884 40.617C165.849 40.9156 165.827 41.2526 165.818 41.63C165.809 42.0075 165.805 42.397 165.805 42.8001C165.805 43.2038 165.809 43.5981 165.818 43.983C165.827 44.3692 165.849 44.7196 165.884 45.0351C165.954 45.912 166.257 46.6392 166.792 47.2175C167.327 47.7958 168.137 48.0849 169.224 48.0849C170.31 48.0849 171.118 47.7958 171.644 47.2175C172.169 46.6392 172.475 45.9113 172.564 45.0351Z" fill="#FAFAFA"/>
<path d="M196.1 51.1619C196.152 51.232 196.178 51.3284 196.178 51.4511C196.178 51.6088 196.121 51.745 196.007 51.8582C195.893 51.9728 195.757 52.0294 195.6 52.0294H191.419C191.173 52.0294 190.972 51.9768 190.813 51.8717C190.656 51.7665 190.498 51.6176 190.34 51.4248L185.37 45.166V51.3197C185.37 51.5131 185.3 51.6796 185.159 51.8191C185.019 51.96 184.852 52.0301 184.66 52.0301H181.215C181.022 52.0301 180.856 51.96 180.715 51.8191C180.575 51.6796 180.506 51.5131 180.506 51.3197V34.3322C180.506 34.1394 180.575 33.9729 180.715 33.8327C180.856 33.6925 181.022 33.6218 181.215 33.6218H184.66C184.852 33.6218 185.019 33.6919 185.159 33.8327C185.299 33.9729 185.37 34.1394 185.37 34.3322V39.8805L189.998 34.2001C190.086 34.0949 190.2 33.9722 190.34 33.8321C190.48 33.6919 190.717 33.6211 191.051 33.6211H195.153C195.31 33.6211 195.446 33.6784 195.56 33.7923C195.674 33.9062 195.731 34.0417 195.731 34.1994C195.731 34.3227 195.705 34.4184 195.652 34.4892L189.157 42.4303L196.1 51.1619Z" fill="#FAFAFA"/>
<path d="M242.381 62.8991L238.604 64.0368L235.871 54.9202L239.642 53.7832L242.381 62.8991Z" fill="#E0E0E0"/>
<path d="M254.188 54.8025C254.335 55.2918 253.85 56.3453 253.117 56.567C253.117 56.567 253.469 56.9391 253.647 57.5322C253.864 58.2379 253.287 59.1869 252.152 59.5252C251.022 59.8636 243.504 62.1275 243.504 62.1275L240.959 53.6601L240.953 53.6594C240.953 53.6594 242.42 49.914 242.493 49.3505C242.578 48.7958 241.701 46.7091 241.583 46.3168C241.487 45.9974 242.863 45.4164 243.97 45.8626C244.225 45.967 244.467 46.1221 244.676 46.3505C245.109 46.825 245.433 47.2901 245.667 47.7707C246.04 48.5127 246.193 49.2851 246.193 50.1613L251.418 48.5896C251.854 48.4588 252.235 48.4966 252.536 48.6246C253.002 48.8167 253.301 49.2164 253.398 49.5392C253.638 50.3029 253.193 50.8893 252.954 51.1171C252.954 51.1171 254.068 51.0254 254.383 52.0768C254.559 52.6659 254.267 53.4451 253.521 53.8286C253.521 53.8286 253.969 54.0712 254.188 54.8025Z" fill="#E0E0E0"/>
<path d="M296.564 157.455L291.718 156.29L294.542 144.602L299.382 145.763L296.564 157.455Z" fill="#E0E0E0"/>
<path d="M314.605 156.14C314.453 156.768 313.254 157.608 312.312 157.383C312.312 157.383 312.459 158.014 312.275 158.774C312.063 159.682 310.829 160.35 309.374 159.996C307.926 159.647 298.28 157.327 298.28 157.327L300.897 146.467L300.891 146.462C300.891 146.462 304.879 143.31 305.315 142.741C305.762 142.191 306.134 139.355 306.256 138.852C306.355 138.442 308.226 138.685 309.15 139.877C309.362 140.153 309.527 140.477 309.609 140.859C309.779 141.653 309.837 142.367 309.785 143.04C309.72 144.088 309.396 145.028 308.837 145.984L315.539 147.597C316.099 147.732 316.49 148.015 316.737 148.348C317.123 148.855 317.195 149.48 317.094 149.895C316.87 150.882 316.011 151.238 315.604 151.334C315.604 151.334 316.878 151.944 316.552 153.291C316.37 154.047 315.555 154.71 314.495 154.654C314.497 154.654 314.831 155.203 314.605 156.14Z" fill="#E0E0E0"/>
<path d="M51.7793 150.461L57.0688 152.054L60.8965 139.288L55.615 137.696L51.7793 150.461Z" fill="#E0E0E0"/>
<path d="M35.2457 139.122C35.0401 139.807 35.7181 141.283 36.7453 141.593C36.7453 141.593 36.2519 142.114 36.0032 142.945C35.6993 143.933 36.5067 145.263 38.0967 145.736C39.6786 146.21 50.2064 149.38 50.2064 149.38L53.7699 137.522L53.778 137.522C53.778 137.522 51.7229 132.277 51.6225 131.487C51.5032 130.711 52.7319 127.788 52.8964 127.239C53.0305 126.792 51.1042 125.978 49.5533 126.603C49.1961 126.749 48.8571 126.966 48.5652 127.286C47.9586 127.951 47.5044 128.603 47.1775 129.275C46.6545 130.315 46.4401 131.396 46.4401 132.623L39.1239 130.422C38.5125 130.239 37.9794 130.291 37.5575 130.471C36.905 130.74 36.4865 131.299 36.351 131.752C36.0147 132.822 36.6381 133.643 36.9731 133.962C36.9731 133.962 35.4128 133.834 34.9713 135.306C34.724 136.131 35.1338 137.222 36.1792 137.759C36.1792 137.759 35.553 138.099 35.2457 139.122Z" fill="#E0E0E0"/>
</svg>
