<svg width="397" height="397" viewBox="0 0 397 397" fill="none" xmlns="http://www.w3.org/2000/svg">
<path d="M83.2893 327.844H57.7217V336.729H83.2893V327.844Z" fill="#EBEBEB"/>
<path d="M69.0276 339.048H43.46V347.933H69.0276V339.048Z" fill="#EBEBEB"/>
<path d="M216.67 257.988H191.103V266.873H216.67V257.988Z" fill="#EBEBEB"/>
<path d="M202.407 269.191H176.84V278.076H202.407V269.191Z" fill="#EBEBEB"/>
<path d="M188.201 257.988H162.634V266.873H188.201V257.988Z" fill="#EBEBEB"/>
<path d="M353.541 339.048H327.974V347.933H353.541V339.048Z" fill="#EBEBEB"/>
<path d="M339.279 39.8262H313.711V48.711H339.279V39.8262Z" fill="#EBEBEB"/>
<path d="M353.541 51.0298H327.974V59.9146H353.541V51.0298Z" fill="#EBEBEB"/>
<path d="M69.0276 39.8262H43.46V48.711H69.0276V39.8262Z" fill="#EBEBEB"/>
<path d="M124.513 345.812H272.488L275.566 285.095H121.435L124.513 345.812Z" fill="#EBEBEB"/>
<path d="M265.474 312.889H203.609L202.449 291.81H266.827L265.474 312.889ZM204.317 312.142H264.774L266.032 292.556H203.24L204.317 312.142Z" fill="#DBDBDB"/>
<path d="M264.333 337.14H206.033L205.086 318.112H265.521L264.333 337.14ZM206.744 336.393H263.632L264.727 318.859H205.872L206.744 336.393Z" fill="#DBDBDB"/>
<path d="M240.498 304.635H230.103L229.447 299.552H241.154L240.498 304.635ZM230.76 303.888H239.842L240.305 300.298H230.297L230.76 303.888Z" fill="#DBDBDB"/>
<path d="M240.498 330.167H230.103L229.447 325.083H241.154L240.498 330.167ZM230.76 329.42H239.842L240.305 325.829H230.297L230.76 329.42Z" fill="#DBDBDB"/>
<path d="M192.706 312.889H130.842L129.682 291.81H194.06L192.706 312.889ZM131.549 312.142H192.006L193.264 292.556H130.471L131.549 312.142Z" fill="#DBDBDB"/>
<path d="M191.565 337.14H133.266L132.319 318.112H192.755L191.565 337.14ZM133.976 336.393H190.863L191.959 318.859H133.104L133.976 336.393Z" fill="#DBDBDB"/>
<path d="M167.731 304.635H157.336L156.68 299.552H168.386L167.731 304.635ZM157.992 303.888H167.075L167.538 300.298H157.529L157.992 303.888Z" fill="#DBDBDB"/>
<path d="M167.731 330.167H157.336L156.68 325.083H168.386L167.731 330.167ZM157.992 329.42H167.075L167.538 325.83H157.529L157.992 329.42Z" fill="#DBDBDB"/>
<path d="M137.783 345.812L136.854 352.427L134.985 365.718H131.33V345.812H137.783Z" fill="#EBEBEB"/>
<path d="M137.783 345.812L136.854 352.427H131.33V345.812H137.783Z" fill="#DBDBDB"/>
<path d="M259.218 345.812L260.147 352.427L262.016 365.718H265.671V345.812H259.218Z" fill="#EBEBEB"/>
<path d="M259.218 345.812L260.147 352.427H265.671V345.812H259.218Z" fill="#DBDBDB"/>
<path d="M349.382 46.7954H63.6006V248.086H349.382V46.7954Z" fill="white"/>
<path d="M349.382 248.086C349.34 248.148 63.5318 248.164 63.4778 248.209C63.3889 248.212 63.4628 46.8351 63.3984 46.7946V46.5921H63.6009C63.6335 46.55 349.429 46.7374 349.469 46.7065C349.53 46.7565 349.338 248.021 349.382 248.086ZM349.382 248.086C349.377 248.104 349.194 46.4294 349.381 46.8819L63.6009 46.9971L63.8034 46.7954C63.8208 46.7755 63.8597 248.6 63.6017 247.962C63.6009 247.962 349.382 248.086 349.382 248.086Z" fill="#1B2225"/>
<path d="M349.382 46.7954H63.6006V54.0661H349.382V46.7954Z" fill="#1B2225"/>
<path d="M78.172 50.4308C78.172 51.2398 77.5162 51.8957 76.7071 51.8957C75.898 51.8957 75.2422 51.2398 75.2422 50.4308C75.2422 49.6217 75.898 48.9658 76.7071 48.9658C77.5162 48.9658 78.172 49.6217 78.172 50.4308Z" fill="#8DECB4"/>
<path d="M84.1535 50.4308C84.1535 51.2398 83.4976 51.8957 82.6886 51.8957C81.8795 51.8957 81.2236 51.2398 81.2236 50.4308C81.2236 49.6217 81.8795 48.9658 82.6886 48.9658C83.4976 48.9658 84.1535 49.6217 84.1535 50.4308Z" fill="white"/>
<path d="M90.1351 50.4308C90.1351 51.2398 89.4793 51.8957 88.6702 51.8957C87.8611 51.8957 87.2061 51.2398 87.2061 50.4308C87.2061 49.6217 87.8619 48.9658 88.6702 48.9658C89.4793 48.9658 90.1351 49.6217 90.1351 50.4308Z" fill="#455A64"/>
<path d="M349.305 54.0659H63.6006V77.8764H349.305V54.0659Z" fill="#8DECB4"/>
<path d="M198.46 96.3984H88.9434V107.267H198.46V96.3984Z" fill="#EBEBEB"/>
<path d="M323.938 121.681H88.9434V132.549H323.938V121.681Z" fill="#EBEBEB"/>
<path d="M323.938 146.544H88.9434V157.412H323.938V146.544Z" fill="#EBEBEB"/>
<path d="M323.938 170.733H88.9434V181.601H323.938V170.733Z" fill="#EBEBEB"/>
<path d="M323.938 96.3984H214.422V107.267H323.938V96.3984Z" fill="#EBEBEB"/>
<path d="M198.46 195.481H88.9434V206.349H198.46V195.481Z" fill="#EBEBEB"/>
<path d="M323.938 195.481H214.422V206.349H323.938V195.481Z" fill="#EBEBEB"/>
<path d="M198.46 220.107H88.9434V230.975H198.46V220.107Z" fill="#EBEBEB"/>
<path d="M323.937 220.107H274.81V230.975H323.937V220.107Z" stroke="#8DECB4" stroke-width="0.794" stroke-miterlimit="10"/>
<path d="M263.765 220.107H214.638V230.975H263.765V220.107Z" fill="#8DECB4"/>
<path d="M230.511 226.055C230.603 225.943 230.772 225.928 230.884 226.019C231.108 226.204 231.496 226.417 231.858 226.412C232.113 226.412 232.342 226.335 232.495 226.223C232.647 226.111 232.714 225.984 232.714 225.857C232.714 225.79 232.698 225.745 232.668 225.693C232.637 225.642 232.591 225.591 232.514 225.541C232.367 225.444 232.117 225.356 231.816 225.301H231.806C231.566 225.255 231.342 225.194 231.149 225.102C230.954 225.011 230.786 224.883 230.674 224.705C230.598 224.582 230.556 224.439 230.556 224.287C230.556 223.98 230.73 223.715 230.964 223.543C231.204 223.369 231.516 223.273 231.847 223.273C232.336 223.273 232.698 223.512 232.957 223.68C233.075 223.761 233.111 223.926 233.029 224.042C232.952 224.165 232.789 224.2 232.667 224.119C232.406 223.945 232.156 223.793 231.846 223.793C231.616 223.793 231.412 223.864 231.274 223.967C231.137 224.069 231.08 224.181 231.08 224.288C231.08 224.349 231.091 224.389 231.116 224.431C231.142 224.471 231.188 224.518 231.254 224.563C231.387 224.655 231.616 224.737 231.892 224.788H231.902C232.162 224.839 232.402 224.905 232.606 225.002C232.815 225.104 232.999 225.237 233.115 225.425C233.192 225.548 233.238 225.701 233.238 225.859C233.238 226.185 233.054 226.466 232.799 226.649C232.55 226.832 232.218 226.94 231.857 226.94C231.306 226.934 230.842 226.659 230.552 226.429C230.44 226.335 230.425 226.167 230.511 226.055Z" fill="white"/>
<path d="M234.98 226.943C234.398 226.943 233.919 226.463 233.919 225.883V224.664C233.919 224.522 234.041 224.394 234.189 224.394C234.342 224.394 234.459 224.522 234.459 224.664V225.883C234.459 226.173 234.688 226.403 234.98 226.403C235.275 226.403 235.51 226.173 235.515 225.883V224.664C235.515 224.522 235.627 224.394 235.78 224.394C235.922 224.394 236.056 224.522 236.056 224.664V225.883C236.055 226.463 235.566 226.943 234.98 226.943Z" fill="white"/>
<path d="M237.095 225.673C237.095 225.667 237.095 225.667 237.095 225.667V223.649C237.095 223.501 237.217 223.374 237.37 223.374C237.528 223.374 237.651 223.501 237.651 223.649V224.607C237.84 224.475 238.084 224.393 238.334 224.393C239.023 224.393 239.573 224.974 239.573 225.672C239.573 226.361 239.022 226.942 238.334 226.942C238.078 226.942 237.835 226.855 237.64 226.723C237.615 226.845 237.508 226.942 237.37 226.942C237.217 226.942 237.095 226.814 237.095 226.666V225.673ZM237.651 225.673C237.651 225.867 237.728 226.05 237.855 226.178C237.983 226.311 238.146 226.387 238.335 226.387C238.518 226.387 238.687 226.311 238.815 226.178C238.942 226.05 239.019 225.867 239.019 225.673C239.019 225.469 238.942 225.286 238.815 225.158C238.687 225.026 238.518 224.95 238.335 224.95C238.146 224.95 237.983 225.026 237.855 225.158C237.728 225.285 237.651 225.469 237.651 225.673Z" fill="white"/>
<path d="M242.594 225.448C242.594 225.454 242.594 225.459 242.594 225.464V226.673C242.594 226.821 242.472 226.943 242.324 226.943C242.181 226.943 242.048 226.821 242.048 226.673V225.464C242.048 225.459 242.048 225.454 242.048 225.448C242.043 225.169 241.809 224.94 241.523 224.94C241.243 224.94 241.008 225.175 241.008 225.464V226.673C241.008 226.683 241.003 226.698 241.003 226.709C241.003 226.714 241.003 226.724 241.003 226.724C240.997 226.735 240.997 226.745 240.988 226.755C240.988 226.76 240.988 226.77 240.988 226.781C240.941 226.872 240.839 226.944 240.732 226.944C240.712 226.944 240.696 226.939 240.681 226.939C240.559 226.909 240.462 226.806 240.462 226.674V225.465C240.462 225.46 240.462 225.46 240.462 225.46V224.67C240.462 224.512 240.584 224.394 240.732 224.394C240.839 224.394 240.937 224.45 240.977 224.546C241.141 224.45 241.329 224.394 241.523 224.394C241.844 224.394 242.129 224.526 242.323 224.746C242.512 224.527 242.802 224.394 243.123 224.394C243.71 224.394 244.184 224.873 244.184 225.464V226.673C244.184 226.821 244.062 226.943 243.914 226.943C243.767 226.943 243.639 226.821 243.639 226.673V225.464C243.639 225.174 243.404 224.94 243.123 224.94C242.834 224.939 242.604 225.168 242.594 225.448Z" fill="white"/>
<path d="M245.867 223.756C245.867 223.909 245.75 224.036 245.592 224.036C245.439 224.036 245.316 223.909 245.316 223.756V223.649C245.316 223.496 245.439 223.374 245.592 223.374C245.75 223.374 245.867 223.495 245.867 223.649V223.756ZM245.867 224.679V226.667C245.867 226.82 245.75 226.943 245.592 226.943C245.439 226.943 245.316 226.82 245.316 226.667V224.679C245.316 224.515 245.439 224.399 245.592 224.399C245.75 224.399 245.867 224.516 245.867 224.679Z" fill="white"/>
<path d="M247.892 224.674C247.892 224.827 247.761 224.955 247.606 224.955H247.479V226.377C247.637 226.377 247.76 226.504 247.76 226.662C247.76 226.82 247.637 226.943 247.479 226.943C247.168 226.943 246.913 226.688 246.913 226.377V224.955H246.766C246.608 224.955 246.485 224.827 246.485 224.674C246.485 224.516 246.608 224.394 246.766 224.394H246.913V223.654C246.913 223.496 247.041 223.375 247.199 223.375C247.357 223.375 247.479 223.496 247.479 223.654V224.394H247.606C247.76 224.393 247.892 224.516 247.892 224.674Z" fill="white"/>
<path d="M291.059 225.107C291.064 224.097 291.911 223.276 292.93 223.271C293.378 223.271 293.787 223.419 294.108 223.668C294.23 223.77 294.25 223.949 294.158 224.077C294.057 224.204 293.869 224.224 293.751 224.133C293.526 223.949 293.246 223.853 292.93 223.853C292.578 223.853 292.252 223.995 292.012 224.22C291.783 224.455 291.639 224.76 291.639 225.107C291.639 225.453 291.782 225.77 292.012 225.994C292.251 226.219 292.578 226.362 292.93 226.362C293.246 226.362 293.522 226.264 293.751 226.081C293.869 225.994 294.057 226.015 294.158 226.138C294.25 226.265 294.23 226.448 294.108 226.545C293.787 226.795 293.378 226.943 292.93 226.943C291.911 226.943 291.063 226.122 291.059 225.107Z" fill="#8DECB4"/>
<path d="M297.249 225.673V226.673C297.249 226.821 297.127 226.943 296.979 226.943C296.847 226.943 296.744 226.846 296.713 226.724C296.52 226.862 296.29 226.943 296.035 226.943C295.688 226.943 295.388 226.8 295.168 226.571C294.949 226.336 294.821 226.019 294.821 225.673C294.821 225.321 294.949 225.005 295.168 224.775C295.387 224.54 295.688 224.393 296.035 224.393C296.29 224.393 296.52 224.479 296.713 224.617C296.744 224.489 296.846 224.393 296.979 224.393C297.127 224.393 297.249 224.515 297.249 224.668V225.673ZM296.709 225.673C296.709 225.459 296.632 225.276 296.509 225.148C296.387 225.011 296.214 224.94 296.035 224.94C295.851 224.94 295.678 225.011 295.561 225.148C295.439 225.276 295.368 225.46 295.368 225.673C295.368 225.883 295.439 226.066 295.561 226.199C295.678 226.326 295.851 226.397 296.035 226.397C296.214 226.397 296.387 226.326 296.509 226.199C296.632 226.066 296.709 225.883 296.709 225.673Z" fill="#8DECB4"/>
<path d="M300.325 225.454V226.672C300.325 226.82 300.207 226.942 300.059 226.942C299.917 226.942 299.789 226.82 299.789 226.672V225.454C299.789 225.169 299.55 224.939 299.259 224.939C298.973 224.939 298.748 225.169 298.748 225.454V226.672C298.748 226.688 298.748 226.703 298.738 226.723C298.713 226.845 298.601 226.942 298.468 226.942C298.316 226.942 298.198 226.82 298.198 226.672V225.454V224.664C298.198 224.516 298.316 224.394 298.468 224.394C298.575 224.394 298.673 224.455 298.718 224.552C298.871 224.455 299.06 224.394 299.259 224.394C299.851 224.394 300.325 224.878 300.325 225.454Z" fill="#8DECB4"/>
<path d="M301.146 225.673C301.146 224.964 301.738 224.399 302.441 224.394C302.747 224.394 303.033 224.506 303.252 224.674C303.37 224.766 303.39 224.94 303.309 225.051C303.207 225.174 303.043 225.194 302.926 225.102C302.793 225.005 302.63 224.939 302.441 224.939C302.028 224.939 301.687 225.28 301.687 225.672C301.687 226.065 302.029 226.402 302.441 226.402C302.625 226.402 302.793 226.335 302.926 226.239C303.038 226.153 303.206 226.173 303.309 226.296C303.39 226.408 303.37 226.571 303.252 226.673C303.033 226.831 302.747 226.943 302.441 226.943C301.738 226.943 301.146 226.371 301.146 225.673Z" fill="#8DECB4"/>
<path d="M303.982 225.668C303.987 224.975 304.528 224.394 305.227 224.394C305.889 224.394 306.414 224.888 306.455 225.577C306.455 225.582 306.455 225.593 306.455 225.603C306.455 225.612 306.455 225.639 306.449 225.649C306.433 225.771 306.327 225.853 306.184 225.853H304.563C304.588 225.97 304.644 226.102 304.737 226.19C304.844 226.312 305.048 226.404 305.227 226.419C305.41 226.434 305.629 226.388 305.757 226.291C305.864 226.179 306.073 226.194 306.14 226.275C306.206 226.347 306.257 226.5 306.14 226.607C305.89 226.837 305.589 226.944 305.227 226.944C304.528 226.938 303.986 226.362 303.982 225.668ZM304.537 225.419H305.981C305.93 225.215 305.67 224.914 305.227 224.878C304.793 224.899 304.579 225.21 304.537 225.419Z" fill="#8DECB4"/>
<path d="M307.582 223.374C307.741 223.374 307.868 223.501 307.868 223.653V226.661C307.868 226.814 307.741 226.942 307.582 226.942C307.43 226.942 307.303 226.814 307.303 226.661V223.653C307.302 223.501 307.429 223.374 307.582 223.374Z" fill="#8DECB4"/>
<path d="M41.4131 365.718C142.053 365.232 254.947 365.228 355.586 365.718C254.947 366.207 142.052 366.204 41.4131 365.718Z" fill="#1B2225"/>
<path d="M246.654 365.713C248.596 366.34 303.967 365.635 306.056 364.267C306.858 363.762 307.226 355.687 307.39 345.919C307.391 345.816 307.392 345.715 307.393 345.613C307.431 343.6 307.458 341.527 307.461 339.426C307.462 339.137 307.462 338.848 307.471 338.559L304.791 309.834L267.751 310.197L271.4 338.653L271.442 339.78L271.664 345.67L271.686 346.275C271.686 346.275 250.612 356.025 248.471 357.77C246.349 359.508 244.711 365.094 246.654 365.713Z" fill="#AD6359"/>
<path d="M246.654 365.713C248.596 366.34 303.966 365.635 306.056 364.268C306.858 363.762 307.226 355.688 307.39 345.919C307.391 345.817 307.392 345.715 307.393 345.613C307.431 343.601 307.458 341.528 307.461 339.427C307.462 339.138 307.462 338.848 307.471 338.56L271.401 338.653L271.443 339.78L271.665 345.67L271.686 346.276C271.686 346.276 250.613 356.025 248.472 357.77C246.349 359.508 244.711 365.094 246.654 365.713Z" fill="#EBEBEB"/>
<path d="M246.649 365.709C247.648 366.031 262.692 366 277.396 365.707C280.352 365.648 283.291 365.582 286.095 365.505C296.581 365.219 305.246 364.79 306.051 364.264C306.848 363.765 307.214 355.913 307.376 346.325C307.376 346.189 307.385 346.054 307.385 345.918C307.385 345.817 307.385 345.706 307.394 345.604H307.352L271.666 345.664L271.683 346.274C271.683 346.274 250.607 356.019 248.472 357.763C246.346 359.508 244.71 365.09 246.649 365.709Z" fill="#8DECB4"/>
<path d="M247.252 363.558C256.583 363.21 294.251 362.686 303.5 363.051C303.575 363.054 303.576 363.105 303.501 363.11C294.26 363.657 256.589 363.875 247.254 363.711C247.058 363.707 247.055 363.565 247.252 363.558Z" fill="#1B2225"/>
<path d="M267.69 345.821C271.354 345.089 275.853 345.596 278.693 348.176C278.803 348.276 278.66 348.431 278.54 348.395C274.902 347.3 271.508 346.61 267.71 346.285C267.443 346.263 267.427 345.874 267.69 345.821Z" fill="#1B2225"/>
<path d="M265.059 347.453C268.724 346.721 273.223 347.228 276.062 349.809C276.173 349.909 276.028 350.064 275.909 350.028C272.271 348.932 268.878 348.242 265.08 347.918C264.811 347.895 264.796 347.505 265.059 347.453Z" fill="#1B2225"/>
<path d="M262.428 349.084C266.092 348.351 270.592 348.859 273.431 351.439C273.541 351.539 273.398 351.694 273.278 351.658C269.639 350.562 266.246 349.872 262.448 349.547C262.181 349.525 262.166 349.137 262.428 349.084Z" fill="#1B2225"/>
<path opacity="0.1" d="M277.396 365.707C280.353 365.648 283.292 365.582 286.096 365.505C296.582 365.219 305.247 364.79 306.052 364.264C306.848 363.765 307.214 355.913 307.377 346.325C307.377 346.189 307.386 346.054 307.386 345.918C307.386 345.817 307.386 345.706 307.395 345.604H307.353C302.463 349.035 285.232 360.5 277.396 365.707Z" fill="black"/>
<path d="M269.533 345.792L309.411 345.801C309.411 345.801 301.402 252.66 301.716 251.033C302.114 248.95 304.471 239.523 307.608 227.208C308.592 223.354 309.651 219.221 310.753 214.935C313.729 203.348 317.01 190.686 319.867 179.667C324.156 163.16 327.505 154.653 327.505 154.653L293.708 154.645C293.708 154.645 265.926 234.188 264.819 250.626C263.855 264.963 269.533 345.792 269.533 345.792Z" fill="#1B2225"/>
<path d="M271.301 338.987C277.391 338.862 275.641 338.812 281.732 338.755C284.713 338.727 304.301 338.56 307.085 339.022C307.147 339.033 307.147 339.136 307.085 339.146C304.3 339.607 284.713 339.432 281.732 339.403C275.641 339.342 277.391 339.294 271.301 339.165C271.186 339.163 271.186 338.99 271.301 338.987Z" fill="#37474F"/>
<path d="M294.214 245.339C295.523 239.575 297.478 233.926 299.18 228.268C302.638 216.772 306.126 205.284 309.619 193.798C311.366 188.055 319.474 166.571 320.275 163.716C320.601 162.554 320.779 163.193 320.361 164.667C319.52 167.641 305.665 210.236 302.162 221.906C300.406 227.756 298.637 233.603 296.88 239.453C296.039 242.249 295.217 245.06 294.722 247.941C294.207 250.946 294.178 253.986 294.368 257.023C294.749 263.124 295.454 269.216 296.016 275.303C296.579 281.403 297.143 287.503 297.706 293.602C298.827 305.742 299.948 317.881 301.038 330.023C301.177 331.562 301.311 333.101 301.429 334.641C301.469 335.156 300.689 335.117 300.635 334.621C299.324 322.618 298.32 310.575 297.196 298.553C296.077 286.59 294.957 274.627 293.842 262.664C293.563 259.661 293.244 256.652 293.242 253.632C293.24 250.832 293.594 248.069 294.214 245.339Z" fill="#37474F"/>
<path d="M297.547 154.646C299.889 172.799 304.354 202.517 307.609 227.208C315.239 197.292 327.506 154.653 327.506 154.653L297.547 154.646Z" fill="#37474F"/>
<path d="M287.893 366.256C289.833 366.89 345.206 366.387 347.301 365.027C348.106 364.525 348.503 356.452 348.702 346.684C348.703 346.581 348.704 346.479 348.705 346.378C348.75 344.365 348.785 342.292 348.796 340.191C348.797 339.901 348.8 339.612 348.81 339.324C348.943 325.226 347.929 310.599 347.929 310.599L311.735 310.827L312.739 339.286L312.777 340.413L312.978 346.303L312.997 346.909C312.997 346.909 291.889 356.582 289.741 358.32C287.612 360.051 285.953 365.63 287.893 366.256Z" fill="#AD6359"/>
<path d="M287.894 366.255C289.833 366.89 345.206 366.386 347.301 365.027C348.106 364.525 348.503 356.452 348.702 346.683C348.703 346.581 348.704 346.479 348.705 346.378C348.75 344.365 348.785 342.292 348.796 340.191C348.797 339.901 348.8 339.612 348.81 339.324L312.739 339.286L312.777 340.412L312.978 346.303L312.997 346.909C312.997 346.909 291.888 356.581 289.74 358.319C287.612 360.05 285.953 365.63 287.894 366.255Z" fill="#EBEBEB"/>
<path d="M287.894 366.255C289.833 366.889 345.206 366.386 347.301 365.027C348.106 364.524 348.503 356.451 348.702 346.683C348.703 346.58 348.704 346.479 348.705 346.377L312.978 346.303L312.997 346.909C312.997 346.909 291.888 356.582 289.74 358.32C287.612 360.05 285.953 365.629 287.894 366.255Z" fill="#8DECB4"/>
<path d="M288.5 364.101C297.832 363.788 335.501 363.401 344.749 363.8C344.825 363.803 344.825 363.854 344.749 363.859C335.506 364.372 297.836 364.452 288.501 364.254C288.304 364.251 288.303 364.109 288.5 364.101Z" fill="#1B2225"/>
<path d="M309.001 346.44C312.668 345.722 317.165 346.244 319.996 348.836C320.106 348.936 319.961 349.091 319.842 349.054C316.208 347.945 312.817 347.242 309.02 346.904C308.752 346.88 308.739 346.492 309.001 346.44Z" fill="#1B2225"/>
<path d="M306.365 348.062C310.031 347.344 314.529 347.866 317.359 350.458C317.469 350.558 317.324 350.713 317.205 350.676C313.571 349.567 310.18 348.864 306.383 348.526C306.115 348.502 306.102 348.114 306.365 348.062Z" fill="#1B2225"/>
<path d="M303.728 349.684C307.395 348.965 311.893 349.488 314.723 352.08C314.833 352.18 314.688 352.334 314.569 352.298C310.935 351.189 307.545 350.486 303.748 350.148C303.479 350.125 303.465 349.736 303.728 349.684Z" fill="#1B2225"/>
<path d="M293.938 154.647C293.938 154.647 294.713 166.501 298.412 179.308C298.708 180.367 299.029 181.409 299.376 182.408C299.376 182.408 302.367 183.807 308.253 187.416C308.253 187.416 308.639 200.427 309.026 214.936C309.455 231.157 309.899 249.249 309.805 253.086C309.463 267.443 311.579 346.386 311.579 346.386L351.449 346.556C351.449 346.556 344.26 258.396 344.312 253.136C344.39 244.683 342.202 215.32 340.658 188.07C340.529 185.78 341.899 180.796 341.778 178.81C341.012 166.244 339.126 154.657 339.126 154.657L293.938 154.647Z" fill="#1B2225"/>
<path d="M312.948 339.295C319.039 339.196 317.29 339.138 323.381 339.107C326.361 339.091 345.95 339.009 348.732 339.483C348.793 339.493 348.793 339.597 348.731 339.607C345.945 340.055 326.358 339.797 323.377 339.755C317.287 339.669 319.036 339.628 312.947 339.473C312.834 339.47 312.834 339.297 312.948 339.295Z" fill="#37474F"/>
<path d="M332.549 174.887C331.569 174.635 330.519 174.555 329.519 174.397C328.71 174.269 327.905 174.126 327.106 173.95C325.601 173.618 324.076 173.12 322.848 172.158C320.859 170.6 318.579 162.729 318.299 162.227C317.821 161.366 317.968 162.169 317.968 162.25C317.964 163.164 319.77 170.011 320.579 171.299C322.058 173.654 324.703 174.603 327.347 174.937C328.105 175.033 328.869 175.086 329.632 175.13C330.576 175.183 331.58 175.268 332.521 175.151C332.664 175.133 332.705 174.927 332.549 174.887Z" fill="#37474F"/>
<path d="M288.42 173.347C288.859 173.096 289.329 173.015 289.777 172.857C290.139 172.73 290.499 172.587 290.857 172.41C291.531 172.079 292.214 171.58 292.764 170.618C293.655 169.061 294.676 161.19 294.8 160.688C295.015 159.826 294.949 160.629 294.949 160.71C294.95 161.624 294.141 168.471 293.779 169.759C293.117 172.114 291.932 173.063 290.749 173.397C290.409 173.493 290.066 173.547 289.725 173.59C289.303 173.644 288.852 173.729 288.432 173.612C288.368 173.594 288.35 173.388 288.42 173.347Z" fill="#37474F"/>
<path d="M299.505 182.598C303.394 183.936 307.146 185.836 310.734 187.828C310.875 187.906 310.782 188.124 310.629 188.059C306.847 186.434 302.989 184.88 299.3 183.049C299.012 182.906 299.208 182.495 299.505 182.598Z" fill="#37474F"/>
<path d="M298.367 156.689C298.378 156.558 298.607 156.529 298.606 156.67C298.575 161.161 298.862 165.112 299.241 169.309C299.416 171.258 300.983 182.026 304.363 181.241C304.928 181.109 305.217 180.552 305.306 179.7C305.412 178.675 305.027 177.417 304.857 176.397C304.483 174.143 304.181 171.882 303.988 169.605C303.627 165.354 303.608 161.103 304.125 156.867C304.142 156.728 304.344 156.738 304.343 156.879C304.338 162.764 304.492 168.636 305.372 174.464C305.795 177.264 307.205 181.481 304.276 181.912C301.292 182.352 299.362 175.289 298.998 173.356C297.981 167.964 297.941 162.143 298.367 156.689Z" fill="#37474F"/>
<path d="M304.272 181.53C304.578 182.253 304.823 183.005 305.032 183.762C305.194 184.349 305.415 184.984 305.348 185.597C305.335 185.716 305.177 185.727 305.114 185.647C304.718 185.144 304.55 184.457 304.328 183.861C304.072 183.171 303.8 182.485 303.562 181.788C303.406 181.326 304.084 181.084 304.272 181.53Z" fill="#37474F"/>
<path d="M333.84 156.577C334.507 160.247 335.138 163.922 335.71 167.609C336.213 171.384 337.029 174.99 337.025 178.831C336.477 181.488 335.938 184.315 335.896 186.998C338.784 233.619 340.114 288.554 343.489 335.013C341.433 320.233 340.752 305.3 339.701 290.423C337.583 256.04 336.176 221.507 334.954 187.073C335.043 184.175 335.63 181.454 336.267 178.673C336.223 172.231 334.57 163.056 333.84 156.577Z" fill="#37474F"/>
<path d="M299.716 106.653C282.69 121.658 266.879 138.12 265.56 146.599C263.734 158.339 270.93 161.681 274.17 161.749C282.99 161.934 299.421 126.359 305.149 112.77C310.711 99.5748 303.455 103.357 299.716 106.653Z" fill="#8DECB4"/>
<path d="M298.171 122.014C297.401 122.014 296.774 121.387 296.774 120.617C296.774 119.664 295.996 118.886 295.043 118.886H293.955V119.219H295.043C295.805 119.219 296.432 119.846 296.432 120.617C296.432 121.577 297.21 122.356 298.171 122.356H299.195V122.014H298.171ZM285.134 149.296C284.363 149.296 283.736 148.669 283.736 147.899C283.736 146.946 282.958 146.168 281.997 146.168H280.917V146.509H281.997C282.768 146.509 283.395 147.128 283.395 147.899C283.395 148.859 284.173 149.637 285.134 149.637H286.158V149.296H285.134ZM272.096 142.825C271.548 142.277 271.548 141.388 272.096 140.848C272.422 140.522 272.604 140.086 272.604 139.617C272.604 139.157 272.422 138.72 272.096 138.394L271.326 137.624L271.088 137.87L271.858 138.633C272.398 139.18 272.398 140.062 271.858 140.61C271.175 141.284 271.175 142.388 271.858 143.063L272.58 143.786L272.819 143.547L272.096 142.825ZM276.281 156.077L275.518 156.839C274.978 157.387 274.089 157.387 273.541 156.839C272.866 156.164 271.771 156.164 271.088 156.839L270.365 157.561L270.603 157.8L271.326 157.077C271.874 156.537 272.763 156.537 273.303 157.077C273.629 157.403 274.065 157.585 274.534 157.585C274.994 157.585 275.431 157.403 275.756 157.077L276.527 156.315L276.281 156.077ZM286.944 131.193L286.182 131.955C285.634 132.503 284.753 132.503 284.205 131.955C283.53 131.28 282.426 131.28 281.751 131.955L281.029 132.678L281.267 132.924L281.989 132.193C282.537 131.653 283.419 131.653 283.966 132.193C284.641 132.876 285.745 132.868 286.42 132.193L287.182 131.431L286.944 131.193Z" fill="white"/>
<path opacity="0.1" d="M305.151 112.772C299.426 126.358 282.99 161.937 274.169 161.746C273.621 161.738 272.954 161.627 272.239 161.405L306.492 103.76C307.564 104.522 307.556 107.055 305.151 112.772Z" fill="black"/>
<path d="M340.735 160.278C340.629 160.41 291.836 159.605 291.367 159.131C291.195 158.955 295.959 115.906 302.574 105.22C305.301 100.817 312.891 98.5499 318.079 105.123C334.076 125.389 340.868 160.108 340.735 160.278Z" fill="#8DECB4"/>
<path d="M313.003 144.23C312.232 144.23 311.605 143.603 311.605 142.833C311.605 141.872 310.827 141.094 309.866 141.094H308.786V141.436H309.866C310.636 141.436 311.264 142.063 311.264 142.833C311.264 143.786 312.042 144.564 313.003 144.564H314.027V144.23H313.003ZM298.171 122.014C297.782 122.014 297.432 121.856 297.186 121.601C297.162 121.728 297.13 121.856 297.099 121.983C297.392 122.221 297.758 122.356 298.171 122.356H299.195V122.014H298.171ZM300.354 153.735C299.806 153.195 299.806 152.305 300.354 151.766C300.68 151.432 300.862 150.995 300.862 150.535C300.862 150.074 300.68 149.638 300.354 149.312L299.584 148.542L299.346 148.78L300.108 149.55C300.656 150.09 300.656 150.979 300.108 151.519C299.433 152.202 299.433 153.298 300.108 153.981L300.838 154.703L301.077 154.465L300.354 153.735ZM310.43 128.994C309.89 128.454 309.89 127.564 310.43 127.024C311.105 126.342 311.105 125.246 310.43 124.571L309.668 123.801L309.43 124.047L310.192 124.809C310.74 125.349 310.74 126.238 310.192 126.786C309.517 127.461 309.517 128.557 310.192 129.24L310.914 129.962L311.16 129.724L310.43 128.994ZM336.616 151.361C336.068 150.813 336.068 149.931 336.616 149.384C337.291 148.709 337.291 147.605 336.616 146.93L335.846 146.168L335.608 146.406L336.37 147.168C336.918 147.716 336.918 148.605 336.37 149.145C335.695 149.82 335.695 150.924 336.37 151.599L337.1 152.321L337.339 152.083L336.616 151.361ZM312.216 159.324L311.7 159.84C311.859 159.84 312.018 159.848 312.177 159.848L312.455 159.571L312.216 159.324ZM307.524 159.745C308.024 159.761 308.532 159.769 309.048 159.777C308.572 159.539 308.008 159.523 307.524 159.745ZM329.264 124.166L328.7 124.73L328.938 124.968L329.407 124.5C329.359 124.388 329.311 124.277 329.264 124.166ZM322.872 150.043V151.067C322.872 151.837 322.245 152.464 321.475 152.464C320.514 152.464 319.736 153.242 319.736 154.195V155.283H320.077V154.195C320.077 153.425 320.704 152.806 321.475 152.806C322.427 152.806 323.205 152.02 323.205 151.067V150.043H322.872ZM297.972 134.305V135.33C297.972 136.1 297.345 136.727 296.575 136.727C295.622 136.727 294.844 137.505 294.844 138.466V139.546H295.177V138.466C295.177 137.696 295.804 137.069 296.575 137.069C297.535 137.069 298.314 136.29 298.314 135.33V134.305H297.972ZM310.184 106.039V107.063C310.184 107.833 309.557 108.461 308.786 108.461C307.834 108.461 307.055 109.239 307.055 110.192V111.279H307.389V110.192C307.389 109.429 308.016 108.802 308.786 108.802C309.747 108.802 310.525 108.016 310.525 107.063V106.039H310.184ZM325.548 133.281V134.305C325.548 135.076 324.92 135.703 324.15 135.703C323.19 135.703 322.411 136.481 322.411 137.442V138.522H322.753V137.442C322.753 136.672 323.38 136.044 324.15 136.044C325.103 136.044 325.881 135.266 325.881 134.305V133.281H325.548ZM321.808 119.728C321.038 119.728 320.411 119.1 320.411 118.33C320.411 117.369 319.632 116.591 318.672 116.591H317.592V116.933H318.672C319.442 116.933 320.069 117.56 320.069 118.33C320.069 119.283 320.847 120.069 321.808 120.069H322.832V119.728H321.808Z" fill="white"/>
<path d="M319.64 105.191C335.487 117.642 351.063 139.156 351.178 151.185C351.292 163.065 347.154 161.912 345.98 161.835C338.803 161.365 321.906 128.307 316.761 114.832C311.654 101.455 315.722 102.112 319.64 105.191Z" fill="#8DECB4"/>
<path d="M341.055 138.72C340.285 138.72 339.658 138.092 339.658 137.322C339.658 136.361 338.88 135.583 337.927 135.583H336.839V135.925H337.927C338.689 135.925 339.317 136.552 339.317 137.322C339.317 138.275 340.095 139.053 341.055 139.053H342.08V138.72H341.055ZM336.617 151.36C336.069 150.812 336.069 149.931 336.617 149.383C337.292 148.708 337.292 147.604 336.617 146.93L335.847 146.167L335.609 146.406L336.371 147.168C336.919 147.716 336.919 148.605 336.371 149.145C335.696 149.82 335.696 150.923 336.371 151.598L337.101 152.321L337.34 152.083L336.617 151.36ZM334.616 123.245L333.854 124.007C333.306 124.547 332.425 124.555 331.877 124.007C331.202 123.332 330.098 123.332 329.423 124.007L328.701 124.729L328.939 124.968L329.662 124.245C330.202 123.705 331.091 123.705 331.639 124.245C332.314 124.92 333.417 124.92 334.092 124.245L334.854 123.483L334.616 123.245ZM349.964 144.659C349.075 144.73 348.376 145.477 348.376 146.39V147.469H348.718V146.39C348.718 145.635 349.321 145.016 350.075 145C350.044 144.889 350.004 144.778 349.964 144.659ZM325.549 133.281V133.916C325.652 134.122 325.755 134.321 325.866 134.527C325.874 134.456 325.882 134.376 325.882 134.305V133.281H325.549ZM348.487 155.822V156.847C348.487 157.617 347.86 158.244 347.09 158.244C346.129 158.244 345.351 159.022 345.351 159.975V161.055H345.692V159.975C345.692 159.205 346.32 158.578 347.09 158.578C348.043 158.578 348.821 157.799 348.821 156.847V155.822H348.487ZM321.809 119.727C321.039 119.727 320.411 119.1 320.411 118.33C320.411 117.369 319.633 116.591 318.673 116.591H317.593V116.932H318.673C319.443 116.932 320.07 117.56 320.07 118.33C320.07 119.282 320.848 120.069 321.809 120.069H322.833V119.727H321.809Z" fill="white"/>
<path d="M336.443 152.557C335.611 151.058 334.755 149.579 333.948 148.071L331.476 143.578C329.845 140.574 328.188 137.584 326.606 134.556C324.964 131.559 323.392 128.525 321.827 125.488C321.04 123.972 320.27 122.447 319.525 120.909C318.75 119.385 318.046 117.83 317.326 116.275C318.419 119.524 319.809 122.665 321.254 125.77C322.705 128.874 324.287 131.913 325.875 134.947C327.523 137.95 329.172 140.951 330.924 143.893C332.678 146.832 334.473 149.752 336.443 152.557Z" fill="#1B2225"/>
<path d="M319.002 120.256C318.711 119.695 318.367 119.202 318.024 118.704C317.845 118.461 317.676 118.212 317.486 117.974C317.298 117.734 317.121 117.488 316.906 117.254C317.033 117.876 317.333 118.435 317.685 118.944C318.051 119.444 318.47 119.911 319.002 120.256Z" fill="#1B2225"/>
<path d="M270.527 129.21C271.36 123.633 273.024 115.86 275.038 114.251C277.152 112.561 284.823 106.92 287.027 106.183C289.232 105.447 299.068 101.828 300.856 102.888C302.287 103.737 300.539 107.506 295.858 109.271C291.744 110.821 289.619 112.286 288.442 112.779C287.242 113.283 284.326 117.119 285.091 118.839C285.542 119.853 288.465 121.07 290.299 120.264C292.133 119.459 292.624 115.851 294.728 114.169C296.833 112.487 300.509 112.736 300.71 113.731C300.912 114.727 299.693 115.178 297.773 118.534C296.538 120.691 296.4 125.9 293.614 129.605C292.214 131.467 289.754 136.437 289.754 136.437L270.527 129.21Z" fill="#AD6359"/>
<path d="M296.693 112.652C297.339 112.512 298.042 112.326 298.525 111.847C298.73 111.644 298.889 111.391 298.948 111.106C298.979 110.956 298.985 110.792 298.967 110.64C298.949 110.499 298.912 110.283 298.792 110.193C298.756 110.166 298.812 110.122 298.83 110.159C298.871 110.241 298.945 110.307 298.995 110.383C299.038 110.448 299.071 110.521 299.098 110.594C299.152 110.742 299.176 110.892 299.171 111.05C299.16 111.393 299.018 111.715 298.797 111.974C298.271 112.588 297.468 112.743 296.695 112.707C296.665 112.705 296.662 112.658 296.693 112.652Z" fill="#1B2225"/>
<path d="M275.038 114.251C276.842 111.483 281.438 106.507 285.955 104.827C289.008 103.693 299.419 108.899 299.093 110.896C298.767 112.893 296.98 112.881 294.336 112.538C293.373 112.413 288.292 110.528 287.412 111.589C286.146 113.114 284.504 118.352 284.504 118.352L275.038 114.251Z" fill="#AD6359"/>
<path d="M298.843 110.112C297.573 107.957 294.743 106.785 291.924 105.853C291.88 105.839 291.855 105.905 291.899 105.92C292.616 106.158 297.202 108.326 298.811 110.145C298.829 110.166 298.856 110.134 298.843 110.112Z" fill="#1B2225"/>
<path d="M275.038 114.251C276.842 111.483 281.438 106.506 285.955 104.827C289.008 103.692 297.219 110.301 296.893 112.298C296.567 114.295 293.996 114.427 291.168 113.409C290.254 113.08 287.201 110.883 286.321 111.943C285.055 113.468 281.97 117.254 281.97 117.254L275.038 114.251Z" fill="#AD6359"/>
<path d="M283.75 114.908C284.04 114.471 284.139 114.318 284.437 113.886C284.733 113.456 285.037 113.03 285.364 112.623C285.645 112.271 285.921 111.882 286.312 111.643C286.688 111.414 287.14 111.364 287.571 111.408C288.554 111.51 289.437 112.145 290.267 112.633C291.193 113.178 293.118 114.065 294.6 113.924C295.008 113.885 295.411 113.821 295.773 113.619C296.008 113.487 296.324 113.324 296.479 113.068C297.131 111.985 296.342 110.733 295.532 109.844C294.02 108.186 291.976 106.975 289.992 105.976C289.504 105.731 289.01 105.498 288.517 105.265C287.955 104.999 287.37 104.744 286.727 104.733C285.698 104.714 284.001 105.742 283.474 106.052C283.434 106.076 283.406 106.011 283.444 105.987C284.081 105.599 285.661 104.332 287.321 104.434C287.928 104.471 288.493 104.789 289.043 105.033C289.619 105.289 290.187 105.565 290.748 105.852C291.839 106.412 292.902 107.033 293.893 107.757C294.83 108.441 295.827 109.239 296.456 110.23C297 111.089 297.153 112.304 296.605 113.193C296.144 113.944 295.173 114.115 294.729 114.168C294.286 114.22 293.862 114.207 293.419 114.141C292.96 114.074 291.287 113.569 290.582 113.28C289.685 112.912 288.881 112.297 287.957 112.007C287.515 111.869 287.029 111.857 286.613 112.081C286.227 112.288 285.902 112.675 285.6 112.986C284.917 113.69 284.465 114.148 283.903 114.957C283.765 115.154 283.629 115.091 283.75 114.908Z" fill="#1B2225"/>
<path d="M273.695 116.668C274.361 115.349 275.518 109.896 276.59 108.232C277.662 106.567 282.54 100.821 284.786 101.096C287.609 101.441 284.611 106.503 283.108 108.586C281.606 110.668 281.819 114.235 281.819 114.235L273.695 116.668Z" fill="#AD6359"/>
<path d="M285.208 105.129C284.675 105.787 284.201 106.519 283.737 107.226C283.297 107.898 282.789 108.562 282.452 109.293C282.113 110.027 281.959 110.816 281.876 111.615C281.835 112.008 281.818 112.399 281.812 112.795C281.804 113.226 281.839 113.66 281.824 114.09C281.823 114.135 281.893 114.143 281.896 114.097C281.937 113.32 282.085 112.522 282.227 111.757C282.374 110.961 282.622 110.167 282.96 109.431C283.635 107.958 284.617 106.648 285.306 105.181C285.333 105.122 285.246 105.083 285.208 105.129Z" fill="#1B2225"/>
<path d="M281.848 114.833C281.656 116.185 282.046 117.559 282.53 118.813C282.78 119.445 283.074 120.061 283.416 120.655C283.76 121.251 284.169 121.815 284.569 122.334C285.371 123.385 286.079 124.459 286.59 125.654C287.105 126.845 287.42 128.131 287.634 129.454C287.725 128.119 287.61 126.74 287.175 125.434C286.764 124.121 286.03 122.919 285.229 121.845C284.406 120.785 283.735 119.725 283.145 118.538C282.585 117.362 282.001 116.166 281.848 114.833Z" fill="#1B2225"/>
<path d="M274.99 161.341C280.499 160.597 284.102 151.382 290.392 135.18C291.495 132.337 277.098 114.854 275.141 117.463C272.676 120.748 266.032 139.047 265.335 144.033C263.959 153.864 268.556 162.209 274.99 161.341Z" fill="#AD6359"/>
<path d="M287.07 144.221L269.313 126.967C269.313 126.967 264.268 141.817 264.74 148.04C265.212 154.262 267.381 161.357 274.876 161.748C280.486 162.042 287.07 144.221 287.07 144.221Z" fill="#8DECB4"/>
<path d="M283.736 147.898C283.736 146.945 282.958 146.167 281.997 146.167H280.917V146.508H281.997C282.768 146.508 283.395 147.128 283.395 147.898C283.395 148.747 283.998 149.446 284.8 149.605C284.856 149.494 284.903 149.383 284.951 149.272C284.268 149.192 283.736 148.605 283.736 147.898ZM272.096 142.824C271.548 142.276 271.548 141.387 272.096 140.847C272.422 140.522 272.604 140.085 272.604 139.616C272.604 139.156 272.422 138.719 272.096 138.394L271.326 137.624L271.088 137.87L271.858 138.632C272.398 139.18 272.398 140.061 271.858 140.609C271.175 141.284 271.175 142.388 271.858 143.062L272.58 143.785L272.819 143.547L272.096 142.824ZM276.281 156.076L275.518 156.838C274.978 157.386 274.089 157.386 273.541 156.838C272.866 156.163 271.771 156.163 271.088 156.838L270.365 157.561L270.603 157.799L271.326 157.077C271.874 156.537 272.763 156.537 273.303 157.077C273.629 157.402 274.065 157.585 274.534 157.585C274.994 157.585 275.431 157.402 275.756 157.077L276.527 156.314L276.281 156.076Z" fill="white"/>
<path d="M281.329 156.166C281.971 155.256 282.542 154.307 283.099 153.349C283.662 152.395 284.172 151.411 284.673 150.423C285.161 149.429 285.633 148.425 286.041 147.392C286.453 146.362 286.845 145.315 287.071 144.221C286.601 145.229 286.107 146.21 285.606 147.193L284.115 150.146C283.631 151.137 283.137 152.124 282.677 153.128C282.21 154.13 281.745 155.134 281.329 156.166Z" fill="#1B2225"/>
<path d="M283.246 147.23C282.385 146.284 281.44 145.407 280.524 144.514C279.607 143.62 278.682 142.735 277.745 141.861C275.872 140.115 273.991 138.38 272.085 136.669C271.564 136.2 271.042 135.733 270.512 135.275C269.945 134.784 269.316 134.363 268.756 133.868C268.712 133.829 268.653 133.895 268.695 133.936C269.146 134.372 269.538 134.874 269.982 135.321C270.441 135.784 270.912 136.238 271.385 136.687C272.313 137.569 273.244 138.448 274.179 139.323C276.049 141.071 277.93 142.811 279.856 144.497C280.945 145.449 282.015 146.441 283.157 147.328C283.226 147.379 283.303 147.292 283.246 147.23Z" fill="#1B2225"/>
<path d="M306.107 112.739C308.983 113.024 313.764 107.689 315.192 103.983C315.288 103.729 314.592 101.283 313.886 98.2696C313.464 96.4394 313.039 94.3925 312.785 92.4956L301.277 96.9769C301.277 96.9769 302.979 100.795 303.401 104.105C303.433 104.382 303.44 104.642 303.423 104.894C303.424 104.93 303.419 104.975 303.423 105.025C303.38 106.536 303.327 112.46 306.107 112.739Z" fill="#AD6359"/>
<path d="M303.425 104.896C303.428 104.93 303.422 104.972 303.425 105.023C303.804 105.03 304.214 104.995 304.655 104.931C311.518 103.855 312.012 95.2142 312.008 92.8013L309.133 93.92L301.278 96.9793C301.278 96.9793 302.981 100.798 303.398 104.108C303.433 104.383 303.442 104.643 303.425 104.896Z" fill="#1B2225"/>
<path d="M313.389 78.8582C315.056 82.983 313.895 95.4242 311.121 98.4192C307.099 102.762 299.977 103.77 296.151 98.8122C292.443 94.0069 294.243 77.8196 297.392 75.0422C302.031 70.9523 310.928 72.7658 313.389 78.8582Z" fill="#AD6359"/>
<path d="M302.725 89.3171C302.734 89.2854 302.788 89.3616 302.784 89.3958C302.703 90.2334 302.75 91.2077 303.492 91.5364C303.515 91.5459 303.509 91.5888 303.481 91.5824C302.563 91.3911 302.513 90.0976 302.725 89.3171Z" fill="#1B2225"/>
<path d="M303.532 88.4888C304.89 88.4753 304.818 91.1908 303.56 91.2035C302.322 91.2162 302.395 88.5007 303.532 88.4888Z" fill="#1B2225"/>
<path d="M297.868 89.0411C297.862 89.0085 297.801 89.0792 297.801 89.1133C297.805 89.955 297.668 90.9205 296.9 91.1793C296.876 91.1873 296.877 91.2301 296.905 91.227C297.838 91.1206 298.007 89.8375 297.868 89.0411Z" fill="#1B2225"/>
<path d="M297.139 88.1424C295.789 88.0034 295.611 90.7149 296.862 90.8428C298.094 90.9698 298.272 88.2583 297.139 88.1424Z" fill="#1B2225"/>
<path d="M304.919 86.5141C304.542 86.4506 304.206 86.3283 303.841 86.2275C303.428 86.1123 303.088 86.0639 302.796 85.7248C302.64 85.543 302.672 85.1921 302.835 85.0245C303.212 84.6331 303.752 84.6474 304.254 84.7657C304.799 84.8935 305.186 85.1309 305.528 85.574C305.859 86.002 305.415 86.5983 304.919 86.5141Z" fill="#1B2225"/>
<path d="M296.041 85.8504C296.419 85.7996 296.759 85.6884 297.128 85.5987C297.544 85.4978 297.885 85.4605 298.187 85.131C298.349 84.9548 298.329 84.603 298.173 84.4299C297.808 84.0258 297.268 84.0234 296.762 84.1242C296.213 84.2338 295.818 84.4593 295.463 84.8896C295.119 85.3073 295.542 85.9179 296.041 85.8504Z" fill="#1B2225"/>
<path d="M303.866 96.4295C303.669 96.6312 303.475 96.9075 303.17 96.9409C302.878 96.9726 302.532 96.8488 302.26 96.7511C302.233 96.7416 302.207 96.7702 302.224 96.7956C302.451 97.1132 302.915 97.3037 303.303 97.2267C303.683 97.1505 303.863 96.817 303.947 96.4669C303.96 96.4168 303.895 96.4002 303.866 96.4295Z" fill="#1B2225"/>
<path d="M302.922 93.9313C302.468 94.6729 301.786 95.0889 301.04 95.2525C300.707 95.3279 300.356 95.3478 300.01 95.3239C299.943 95.3239 299.874 95.3184 299.813 95.3065C299.751 95.3001 299.695 95.2946 299.628 95.2826C299.529 95.2707 299.473 95.1905 299.454 95.0984V95.0921C299.454 95.0611 299.454 95.0365 299.461 95.0055C299.461 95.0055 299.461 95.0055 299.461 94.9992V94.9253C299.427 94.2782 299.466 93.2913 299.466 93.2913C299.233 93.4152 298.039 93.9876 298.05 93.6486C298.15 90.8426 298.26 87.7222 298.953 84.9519C298.971 84.859 299.113 84.8773 299.107 84.9694C299.118 87.6698 298.653 90.3535 298.621 93.0666C299.003 92.911 299.624 92.6251 299.963 92.6235C300.056 92.6474 299.854 94.5291 299.892 94.8189C299.892 94.8189 299.892 94.8309 299.898 94.8499C300.99 94.9627 301.802 94.6141 302.842 93.8582C302.903 93.8082 302.97 93.8638 302.922 93.9313Z" fill="#1B2225"/>
<path d="M299.194 79.0954C300.045 80.4761 301.542 81.3575 303.176 81.359C304.767 81.3606 306.479 80.5404 307.281 79.1287C307.304 79.0866 307.37 79.1239 307.346 79.166C306.489 80.6754 304.972 81.7862 303.18 81.741C301.499 81.6989 299.855 80.654 299.095 79.1549C299.061 79.089 299.155 79.031 299.194 79.0954Z" fill="#1B2225"/>
<path d="M305.25 69.8034C307.26 69.5604 309.247 70.7991 310.163 72.5554C310.719 73.6225 310.898 74.7635 310.878 75.9553C310.877 76.0037 310.805 76.0045 310.803 75.9561C310.736 74.083 309.86 72.071 308.279 70.996C306.761 69.963 304.87 69.8574 303.346 70.9325C302.551 71.493 301.943 72.3235 301.681 73.262C301.652 73.3669 301.496 73.3256 301.518 73.2192C301.895 71.4255 303.432 70.0233 305.25 69.8034Z" fill="#1B2225"/>
<path d="M290.055 72.1754C290.661 70.9892 291.71 70.0578 292.937 69.5497C294.654 68.8382 296.395 69.2686 298.117 69.7315C298.163 69.7442 298.144 69.8164 298.098 69.8037C296.631 69.4147 295.121 69.105 293.636 69.583C292.426 69.9721 291.335 70.7732 290.649 71.8499C289.225 74.0842 289.715 77.2237 291.787 78.8863C292.96 79.828 294.533 80.252 296.02 80.0265C296.078 80.0177 296.105 80.1059 296.046 80.117C293.317 80.6053 290.47 78.9339 289.706 76.2375C289.329 74.9068 289.422 73.414 290.055 72.1754Z" fill="#1B2225"/>
<path d="M313.969 81.5526C313.969 81.5526 314.296 77.77 313.49 76.4806C312.684 75.1903 310.571 74.6139 310.571 74.6139C310.571 74.6139 309.776 71.2561 306.778 70.6074C304.087 70.0254 301.901 72.1565 301.901 72.1565C301.901 72.1565 298.682 67.876 294.072 69.3751C289.698 70.7979 289.314 77.0896 292.978 79.6486C295.55 81.4455 299.725 79.578 299.725 79.578C300.082 79.6852 303.453 82.5213 306.796 79.6415C306.796 79.6415 309.051 81.9981 310.721 80.8182C310.721 80.8182 312.545 82.0306 313.969 81.5526Z" fill="#1B2225"/>
<path opacity="0.2" d="M313.614 91.3027C312.812 90.2308 311.645 87.0309 311.081 85.6176C310.486 84.1487 310.811 78.1858 310.994 75.5259C312.026 76.4231 312.86 77.5426 313.392 78.8607C314.376 81.3141 314.368 86.7054 313.614 91.3027Z" fill="#1B2225"/>
<path d="M311.65 89.0686C311.65 89.0686 314.154 84.9152 316.021 85.7814C317.887 86.6485 316.191 92.5384 314.133 93.4682C312.074 94.3979 311.176 92.5082 311.176 92.5082L311.65 89.0686Z" fill="#AD6359"/>
<path d="M315.492 87.4575C315.526 87.4519 315.536 87.4996 315.508 87.5131C314.067 88.2134 313.38 89.6402 312.93 91.1011C313.334 90.5231 313.913 90.1825 314.683 90.6565C314.724 90.6819 314.691 90.7446 314.648 90.7383C314.032 90.6494 313.602 90.7843 313.225 91.2981C312.958 91.6617 312.789 92.1103 312.608 92.5216C312.547 92.659 312.304 92.6042 312.343 92.4478C312.347 92.4367 312.35 92.4247 312.353 92.4128C312.189 90.5279 313.477 87.7846 315.492 87.4575Z" fill="#1B2225"/>
<path d="M311.309 137.594L309.002 112.791L307.485 111.572L273.461 111.369L274.251 134.954L275.768 136.173L311.309 137.594Z" fill="#37474F"/>
<path d="M309.792 136.376L307.485 111.572L271.944 110.151L274.251 134.954L309.792 136.376Z" fill="#455A64"/>
<path d="M287.312 121.981C287.771 120.998 289.092 120.535 290.262 120.944C291.432 121.354 292.01 122.482 291.551 123.465C291.092 124.447 289.771 124.911 288.6 124.501C287.43 124.091 286.853 122.963 287.312 121.981Z" fill="white"/>
<path d="M347.628 161.81C342.317 162.54 335.699 158.414 318.536 145.884C316.16 144.149 323.887 124.096 326.518 125.818C329.833 127.985 342.226 137.117 343.048 137.899C349.98 144.496 351.229 161.314 347.628 161.81Z" fill="#AD6359"/>
<path d="M332.648 131.883C332.648 131.883 327.76 125.024 324.076 122.215C319.144 118.454 313.336 117.238 310.872 116.875C305.728 116.117 292.767 117.843 292.612 121.663C292.472 125.121 305.632 122.688 305.632 122.688C305.632 122.688 291.805 122.955 292.403 127.148C293 131.342 308.115 127.65 308.115 127.65C308.115 127.65 293.915 128.242 295.215 132.47C296.197 135.665 310.076 133.091 310.076 133.091C310.076 133.091 297.875 133.684 298.743 137.014C299.703 140.693 312.664 139.121 312.664 139.121C316.296 147.212 321.506 149.492 325.291 150.749C326.208 151.052 332.648 131.883 332.648 131.883Z" fill="#AD6359"/>
<path d="M310.408 122.289C308.783 122.261 307.138 122.223 305.517 122.34C303.894 122.457 302.275 122.631 300.671 122.898C296.737 123.555 294.376 124.581 294.528 124.533C298.14 123.409 303.941 122.901 305.563 122.783C307.182 122.666 308.795 122.468 310.415 122.349C310.456 122.348 310.447 122.29 310.408 122.289Z" fill="#1B2225"/>
<path d="M310.938 128.139C308.861 128.193 306.798 128.172 304.723 128.318C302.659 128.464 300.712 128.783 298.662 129.071C298.504 129.093 298.569 129.171 298.728 129.154C300.787 128.949 302.707 128.918 304.768 128.737C306.822 128.556 308.885 128.294 310.944 128.188C310.976 128.187 310.97 128.138 310.938 128.139Z" fill="#1B2225"/>
<path d="M312.296 133.078C309.117 132.999 305.929 133.507 302.812 134.079C302.656 134.108 302.75 134.198 302.911 134.179C306.057 133.787 308.522 133.457 312.293 133.189C312.352 133.184 312.363 133.079 312.296 133.078Z" fill="#1B2225"/>
<path d="M332.648 129.156L325.884 153.802C325.884 153.802 344.03 164.486 348.039 161.661C352.048 158.835 349.425 144.603 344.887 139.176C342.997 136.914 332.648 129.156 332.648 129.156Z" fill="#8DECB4"/>
<path d="M348.486 155.822V156.846C348.486 157.617 347.859 158.244 347.089 158.244C346.128 158.244 345.35 159.022 345.35 159.975V161.055H345.691V159.975C345.691 159.205 346.318 158.577 347.089 158.577C348.041 158.577 348.82 157.799 348.82 156.846V155.822H348.486ZM348.399 146.111C348.383 146.199 348.375 146.294 348.375 146.389V147.469H348.716V147.144C348.613 146.802 348.51 146.453 348.399 146.111ZM336.616 151.36C336.068 150.812 336.068 149.931 336.616 149.383C337.291 148.708 337.291 147.604 336.616 146.929L335.846 146.167L335.607 146.405L336.37 147.167C336.918 147.715 336.918 148.605 336.37 149.145C335.695 149.819 335.695 150.923 336.37 151.598L337.1 152.321L337.338 152.082L336.616 151.36ZM341.054 138.719C340.284 138.719 339.657 138.092 339.657 137.322C339.657 136.361 338.879 135.583 337.926 135.583H336.838V135.924H337.926C338.688 135.924 339.315 136.552 339.315 137.322C339.315 138.275 340.094 139.053 341.054 139.053H342.079V138.719H341.054Z" fill="white"/>
<path d="M332.423 129.978L332.69 129.168L332.623 129.191C334.336 130.591 336.057 131.978 337.752 133.393C339.458 134.793 341.149 136.214 342.763 137.705C343.566 138.45 344.382 139.197 345.067 140.029C345.759 140.867 346.355 141.782 346.896 142.728C347.958 144.636 348.663 146.743 349.083 148.914C348.909 146.707 348.315 144.515 347.31 142.511C346.819 141.503 346.202 140.557 345.504 139.675C344.794 138.788 343.984 138.025 343.182 137.253C341.536 135.757 339.815 134.359 338.067 132.998C336.302 131.661 334.516 130.352 332.673 129.123L332.62 129.087L332.607 129.146L332.423 129.978Z" fill="#1B2225"/>
<path d="M336.625 135.273C336.211 136.483 335.896 137.735 335.555 138.966C335.212 140.2 334.882 141.438 334.568 142.679C333.94 145.162 333.325 147.646 332.742 150.14C332.582 150.822 332.424 151.505 332.277 152.19C332.12 152.923 332.054 153.677 331.89 154.406C331.877 154.464 331.963 154.483 331.978 154.428C332.144 153.822 332.395 153.237 332.573 152.633C332.757 152.007 332.928 151.377 333.094 150.745C333.421 149.507 333.743 148.268 334.06 147.027C334.692 144.547 335.311 142.061 335.862 139.56C336.172 138.148 336.527 136.732 336.754 135.304C336.766 135.219 336.652 135.193 336.625 135.273Z" fill="#1B2225"/>
<path d="M326.487 151.61C326.354 152.359 326.186 153.099 326.032 153.843L325.965 153.672C327.81 154.684 330.515 156.071 332.408 157.06C334.565 158.173 336.739 159.237 338.941 160.287C337.769 159.948 336.615 159.543 335.487 159.078C332.054 157.689 328.786 155.913 325.702 153.864C325.962 153.112 326.206 152.355 326.487 151.61Z" fill="#1B2225"/>
<path d="M85.4944 295.113C84.6861 298.549 83.8326 301.929 83.6658 305.455C83.7595 305.628 83.7412 306.267 83.638 306.093C83.6174 306.661 82.7527 306.558 82.7519 305.998C82.7607 305.632 82.7694 305.267 82.7877 304.912C80.7669 302.403 77.8323 300.813 75.4606 298.633C73.5431 296.868 72.1711 294.765 71.4454 292.243C69.4778 285.463 71.3223 278.279 68.9562 271.517C66.9172 265.686 63.2584 260.618 60.1618 255.334C56.8945 249.748 54.4831 243.877 54.2418 237.334C54.0488 232.323 54.6467 225.648 58.4627 221.894C62.5073 217.912 67.5214 220.896 70.6204 224.448C79.6005 234.754 83.7555 247.778 85.4349 261.096C86.3607 268.466 87.323 275.881 87.1007 283.321C86.976 287.32 86.4019 291.23 85.4944 295.113Z" fill="#8DECB4"/>
<path d="M83.7051 308.162C84.1695 301.196 84.141 294.218 83.4589 287.281C83.4708 287.256 83.4931 287.239 83.4931 287.205C83.6066 281.56 84.0544 275.939 83.8329 270.288C83.5923 264.149 82.6927 258.132 81.3477 252.143C81.3318 252.074 81.2254 252.089 81.2381 252.16C82.3449 258.002 82.9881 263.964 83.2017 269.905C83.316 273.094 83.2938 276.286 83.1254 279.471C83.0707 280.508 82.9746 281.552 82.9055 282.598C82.9055 282.595 82.9047 282.592 82.9047 282.589C80.6283 266.705 74.7654 251.636 66.1116 238.15C65.9941 237.967 65.6686 238.163 65.7837 238.351C72.015 248.526 76.6099 259.703 79.4524 271.3C75.1338 263.3 68.6119 256.72 63.7725 249.033C63.7463 248.99 63.6764 249.034 63.6986 249.078C68.0458 257.636 75.2275 264.385 79.8057 272.818C80.5997 276.255 81.25 279.724 81.7344 283.214C82.3989 288.007 82.711 292.829 82.7761 297.657C80.1463 292.74 77.4158 288.038 75.264 282.838C75.2069 282.7 75.0084 282.794 75.0544 282.932C76.8854 288.333 79.346 294.152 82.7904 298.758C82.8086 302.177 82.7078 305.597 82.5061 309.012C81.9686 318.129 80.4123 327.122 79.6922 336.209C79.6707 336.482 80.055 336.515 80.109 336.254C82.0027 327.083 83.0826 317.501 83.7051 308.162Z" fill="#1B2225"/>
<path d="M74.0257 237.859C73.9979 237.793 73.9002 237.839 73.9248 237.905C75.5899 242.509 76.5307 247.174 77.7337 251.894C77.7884 252.109 78.1005 252.064 78.0775 251.838C77.5868 247.049 75.8781 242.273 74.0257 237.859Z" fill="#1B2225"/>
<path d="M116.307 257.157C115.228 259.861 113.888 262.48 112.477 265.024C109.479 270.469 106.352 275.458 105.786 281.798C105.533 284.628 105.443 287.472 104.58 290.2C103.836 292.561 102.625 294.74 101.231 296.777C97.9814 301.511 93.9193 305.591 90.9084 310.502C87.7753 315.607 85.4639 321.224 84.0498 327.041C83.9752 327.36 83.4726 327.274 83.5472 326.956C83.5583 326.931 83.5615 326.91 83.5663 326.884C83.5552 326.868 83.5369 326.852 83.5361 326.817C83.0589 313.223 84.1443 299.522 88.2906 286.499C90.1049 280.805 92.3408 275.141 94.8784 269.728C97.0992 265.006 99.8679 260.466 103.768 256.938C106.298 254.659 111.786 250.34 115.387 252.625C117.117 253.724 116.987 255.46 116.307 257.157Z" fill="#8DECB4"/>
<path d="M102.645 287.975C100.314 291.96 97.5488 295.67 94.7444 299.332C93.428 301.05 92.0933 302.754 90.78 304.474C90.1591 305.287 89.4627 306.096 88.8934 306.97C89.2523 305.541 89.6025 304.109 89.9677 302.681C91.7217 295.813 93.4081 288.883 96.0204 282.279C98.5739 275.824 101.971 269.761 105.459 263.775C105.552 263.618 105.297 263.504 105.205 263.656C102.332 268.381 99.4163 273.099 97.0018 278.079C95.6528 280.861 94.5181 283.723 93.5201 286.635C94.6952 280.391 96.1022 274.396 98.1554 268.351C98.1737 268.297 98.0967 268.258 98.0737 268.313C95.5686 274.241 93.7654 280.908 93.2636 287.332C93.2628 287.344 93.2684 287.353 93.2731 287.363C92.684 289.128 92.1425 290.91 91.6367 292.706C89.4953 300.311 87.6151 307.997 85.8715 315.709C85.9009 310.616 86.2216 305.616 87.1832 300.592C87.2054 300.476 87.0323 300.449 87.0053 300.561C85.7421 305.736 85.1712 311.181 85.692 316.498C85.033 319.43 84.3915 322.366 83.765 325.303C82.4287 331.569 80.7867 337.948 80.0062 344.311C79.9855 344.476 80.215 344.51 80.2571 344.354C81.1893 340.924 81.7522 337.368 82.5144 333.896C83.2799 330.413 84.0675 326.935 84.8782 323.462C86.0589 318.404 87.2959 313.36 88.5552 308.321C89.3968 306.474 91.0253 304.833 92.2449 303.284C93.5836 301.584 94.9215 299.883 96.2244 298.155C98.6493 294.936 100.875 291.593 102.765 288.032C102.805 287.954 102.687 287.902 102.645 287.975Z" fill="#1B2225"/>
<path d="M103.224 282.16C100.276 285.945 97.5991 290.134 95.4935 294.444C95.4665 294.5 95.5522 294.558 95.5871 294.504C98.1891 290.427 100.747 286.318 103.345 282.237C103.387 282.168 103.273 282.097 103.224 282.16Z" fill="#1B2225"/>
<path d="M45.3554 270.045C47.1172 273.079 49.1277 276.723 48.3718 280.366C47.8922 282.672 46.2041 284.544 45.9 286.897C45.218 292.089 50.3925 295.52 54.137 297.974C63.4713 304.099 76.2737 309.559 77.9713 322.067C78.0356 322.51 78.8018 322.399 78.7462 321.965C78.7462 321.937 78.7367 321.91 78.728 321.882C78.7462 321.854 78.774 321.845 78.774 321.808C79.9825 315.471 79.9547 309.015 78.5986 302.706C77.2059 296.259 74.3927 290.466 71.0722 284.803C65.4547 275.219 59.506 265.405 51.011 258.063C48.6592 256.034 43.8444 252.381 41.9721 256.966C40.1531 261.421 43.1965 266.346 45.3554 270.045Z" fill="#8DECB4"/>
<path d="M53.8982 290.364C60.0867 297.065 69.9259 300.819 75.2537 308.325C72.0967 296.822 66.8722 286.48 58.8409 277.495C58.6345 277.265 58.9568 276.937 59.1823 277.153C65.0627 282.805 69.417 289.412 72.5946 296.579C71.1662 291.461 69.1677 286.62 66.819 281.809C66.7301 281.627 66.9881 281.47 67.0929 281.648C70.0847 286.749 72.0729 292.476 73.3179 298.251C80.3369 315.244 80.9879 335.174 79.5167 353.085C79.4952 353.34 79.1054 353.348 79.1133 353.085C79.5167 338.97 79.288 324.608 75.9055 310.823C75.8349 310.535 75.7563 310.251 75.6832 309.965C69.8878 301.886 60.0907 298.141 53.7911 290.47C53.7307 290.397 53.8308 290.291 53.8982 290.364Z" fill="#1B2225"/>
<path d="M52.4641 284.61C55.7132 287.591 58.9114 290.639 62.166 293.618C62.1985 293.647 62.1557 293.705 62.1176 293.68C58.5755 291.284 54.9787 288.116 52.2704 284.804C52.1608 284.669 52.3315 284.489 52.4641 284.61Z" fill="#1B2225"/>
<path d="M51.9518 271.696C54.9023 276.425 57.9965 280.86 61.6719 285.067C61.7204 285.122 61.6442 285.2 61.5902 285.149C57.6448 281.349 54.1401 276.752 51.7771 271.798C51.7215 271.682 51.8819 271.584 51.9518 271.696Z" fill="#1B2225"/>
<path d="M66.5781 365.719H95.0351L91.2001 327.431H70.961L66.5781 365.719Z" fill="#455A64"/>
<path d="M70.2461 333.654H91.8262L91.2021 327.43H70.9583L70.2461 333.654Z" fill="#1B2225"/>
<path d="M67.4683 329.302H94.1436V323.189H67.4683V329.302Z" fill="#455A64"/>
<path d="M354.66 70.154C353.664 79.6693 345.14 86.5803 335.624 85.5846C331.778 85.1821 328.359 83.5496 325.712 81.112L317.045 82.384L321.382 74.891C320.33 72.3312 319.886 69.4815 320.193 66.5485C321.188 57.0332 329.713 50.1222 339.229 51.1179C348.744 52.1135 355.655 60.6387 354.66 70.154Z" fill="white"/>
<path d="M354.659 70.1539C354.297 73.3172 353.141 76.4178 351.163 78.9364C350.708 79.5962 350.123 80.1472 349.592 80.7443C348.99 81.2692 348.428 81.844 347.763 82.2926C346.496 83.2684 345.073 84.0339 343.584 84.6198C342.102 85.2431 340.509 85.5409 338.919 85.7322C338.118 85.7751 337.315 85.8481 336.512 85.7783C335.707 85.76 334.906 85.6743 334.114 85.529C330.943 84.9549 327.94 83.4709 325.543 81.2969L325.747 81.3605L317.088 82.6896L316.46 82.7865L316.778 82.2323L321.09 74.7242L321.07 75.0204C318.97 70.0753 319.443 64.1862 322.137 59.5787C323.48 57.2713 325.353 55.2831 327.563 53.8007C329.773 52.3136 332.334 51.3814 334.957 51.0265C337.583 50.6779 340.285 50.9169 342.791 51.7506C345.296 52.5938 347.591 54.0119 349.473 55.8477C353.299 59.4818 355.221 64.9374 354.659 70.1539ZM354.659 70.1539C355.186 64.9326 353.225 59.5112 349.399 55.9239C347.499 54.1302 345.2 52.7701 342.718 51.9817C340.232 51.2035 337.572 51.0185 335.012 51.4036C332.453 51.7967 329.975 52.7495 327.856 54.2303C325.743 55.7143 323.96 57.6556 322.672 59.8843C321.359 62.1083 320.679 64.6571 320.473 67.2154C320.311 69.7816 320.729 72.3795 321.692 74.7631L321.755 74.9179L321.673 75.0593L317.31 82.538L317.001 82.0806L325.677 80.8658L325.797 80.8491L325.882 80.9293C328.175 83.0819 331.078 84.5849 334.178 85.2026C334.953 85.359 335.738 85.4567 336.528 85.4885C337.318 85.5718 338.108 85.5131 338.899 85.4845C340.468 85.3233 342.05 85.0573 343.527 84.4658C345.009 83.9108 346.443 83.1819 347.705 82.2132C348.37 81.7718 348.931 81.204 349.535 80.6856C350.067 80.0956 350.654 79.5509 351.111 78.8959C353.099 76.4003 354.275 73.3149 354.659 70.1539Z" fill="#1B2225"/>
<path d="M335.4 78.2318L328 70.7412L330.486 68.2853L334.809 72.6603L343.789 58.5811L346.736 60.4605L335.4 78.2318Z" fill="#8DECB4"/>
</svg>
