<svg width="363" height="360" viewBox="0 0 363 360" fill="none" xmlns="http://www.w3.org/2000/svg">
<path d="M318.922 309.114C253.362 378.3 152.657 357.832 137.771 354.543C119.018 350.4 74.4009 340.541 41.1059 301.617C-9.86864 242.024 -4.72103 148.89 34.6462 86.0997C46.1009 67.8295 84.65 13.5339 157.042 1.72866C161.273 1.03873 236.867 -10.0448 297.689 40.9885C305.89 47.8696 319.127 60.3305 330.729 78.4753C366.717 134.761 383.749 240.704 318.922 309.114Z" fill="url(#paint0_linear_81_1219)"/>
<path d="M176.865 18.8374C177.607 15.2111 181.383 13.0794 184.87 14.3225C207.992 22.567 287.74 49.8013 356.51 58.8692C359.646 59.2827 361.831 62.1856 361.344 65.311L321.337 321.991C320.788 325.51 317.503 327.927 313.981 327.399C285.163 323.085 166.573 304.892 125.686 291.701C123.198 290.898 121.718 288.349 122.242 285.787L176.865 18.8374Z" fill="#8DECB4"/>
<path opacity="0.6" d="M178.327 25.7892C179.041 22.2994 182.675 20.248 186.03 21.4444C208.282 29.3785 285.027 55.5872 351.207 64.3137C354.225 64.7117 356.328 67.5051 355.859 70.5131L317.358 317.527C316.831 320.914 313.669 323.24 310.279 322.732C282.547 318.58 168.422 301.072 129.075 288.378C126.68 287.605 125.256 285.152 125.76 282.687L178.327 25.7892Z" fill="white"/>
<path opacity="0.78" d="M200.005 46.1613C197.953 45.6533 195.904 47.0056 195.564 49.092L186.96 101.976C186.674 103.734 187.789 105.416 189.521 105.832C199.163 108.15 229.23 115.257 246.483 117.964C248.434 118.27 250.291 117.03 250.762 115.112C253.157 105.359 259.894 76.9231 260.174 64.5014C260.22 62.4949 258.859 60.7308 256.911 60.2485L200.005 46.1613Z" fill="white"/>
<path d="M224.605 86.2732C230.959 86.2732 236.111 81.122 236.111 74.7677C236.111 68.4134 230.959 63.2622 224.605 63.2622C218.251 63.2622 213.1 68.4134 213.1 74.7677C213.1 81.122 218.251 86.2732 224.605 86.2732Z" fill="url(#paint1_linear_81_1219)"/>
<path d="M200.539 104.218L236.406 111.777C238.605 112.24 240.435 110.09 239.641 107.987C237.599 102.578 232.701 94.2315 221.595 92.2209C210.892 90.2831 203.252 95.28 199.126 99.1487C197.374 100.791 198.19 103.722 200.539 104.218Z" fill="url(#paint2_linear_81_1219)"/>
<g opacity="0.6">
<path d="M338.031 83.8793C339.154 84.1161 340.217 83.5144 340.392 82.542C340.567 81.5698 339.796 80.5642 338.677 80.3076L276.048 65.9381C274.929 65.6814 274.136 66.4025 274.286 67.5407L274.407 68.4581C274.556 69.5963 275.598 70.7212 276.721 70.9579L338.031 83.8793Z" fill="white"/>
</g>
<g opacity="0.6">
<path d="M273.991 75.7013C272.872 75.4445 272.079 76.1657 272.229 77.3039L272.35 78.2215C272.5 79.3596 273.541 80.4845 274.665 80.7213L335.974 93.6427C337.097 93.8794 338.16 93.2776 338.335 92.3054C338.511 91.3331 337.739 90.3276 336.62 90.0709L273.991 75.7013Z" fill="white"/>
</g>
<g opacity="0.6">
<path d="M271.905 85.6056C270.786 85.3488 269.993 86.07 270.143 87.2082L270.264 88.1258C270.414 89.2639 271.456 90.3888 272.579 90.6256L333.888 103.547C335.011 103.784 336.074 103.182 336.249 102.21C336.425 101.237 335.653 100.232 334.534 99.9752L271.905 85.6056Z" fill="white"/>
</g>
<g opacity="0.6">
<path d="M329.925 152.602C331.048 152.838 332.082 152.23 332.221 151.251C332.361 150.271 331.558 149.269 330.437 149.023L183.405 116.823C182.284 116.577 181.787 117.216 182.302 118.242L183.187 120.007C183.701 121.033 185.041 122.066 186.165 122.303L329.925 152.602Z" fill="white"/>
</g>
<g opacity="0.6">
<path d="M181.347 126.585C180.225 126.339 179.729 126.978 180.243 128.004L181.128 129.769C181.643 130.795 182.983 131.829 184.106 132.065L327.866 162.364C328.99 162.601 330.023 161.993 330.163 161.013C330.303 160.033 329.5 159.031 328.378 158.785L181.347 126.585Z" fill="white"/>
</g>
<path opacity="0.6" d="M177.247 142.746C180.845 143.221 187.503 144.493 191.164 145.211C192.715 145.515 193.851 146.849 193.897 148.429C193.986 151.498 193.889 156.774 192.634 162.122C192.258 163.723 190.669 164.73 189.063 164.373L175.624 161.39C173.971 161.023 172.863 159.466 173.056 157.784L174.543 144.863C174.696 143.526 175.913 142.57 177.247 142.746Z" fill="white"/>
<g opacity="0.6">
<path d="M201.06 153.2C199.948 152.916 198.983 153.622 198.916 154.768L198.784 157.009C198.717 158.155 199.581 159.286 200.704 159.523L233.419 166.418C234.542 166.655 235.644 165.927 235.866 164.801L235.976 164.247C236.199 163.121 235.471 161.967 234.358 161.684L201.06 153.2Z" fill="white"/>
</g>
<path opacity="0.6" d="M250.632 158.213C254.23 158.688 260.888 159.96 264.549 160.678C266.1 160.983 267.236 162.316 267.281 163.897C267.37 166.966 267.273 172.242 266.019 177.589C265.643 179.191 264.054 180.197 262.448 179.841L249.008 176.857C247.356 176.49 246.247 174.933 246.441 173.252L247.927 160.33C248.081 158.993 249.298 158.037 250.632 158.213Z" fill="white"/>
<g opacity="0.6">
<path d="M274.445 168.666C273.333 168.383 272.368 169.089 272.3 170.234L272.169 172.475C272.101 173.621 272.965 174.753 274.089 174.989L306.804 181.884C307.927 182.121 309.028 181.393 309.251 180.267L309.361 179.713C309.583 178.587 308.855 177.434 307.743 177.15L274.445 168.666Z" fill="white"/>
</g>
<path d="M185.657 197.03C185.646 197.028 185.635 197.025 185.623 197.023L173.219 194.284C171.446 193.892 170.238 192.362 170.407 190.723L171.513 180.064C171.578 179.438 171.895 178.873 172.407 178.472C172.98 178.024 173.745 177.828 174.507 177.935C175.569 178.084 177.07 178.269 178.66 178.465C182.006 178.878 186.171 179.392 188.479 179.849C190.151 180.192 191.36 181.479 191.447 183.017C191.59 185.547 190.578 190.067 189.437 194.869C189.067 196.429 187.376 197.392 185.657 197.03ZM174.371 178.901C173.871 178.831 173.374 178.955 173.008 179.241C172.707 179.476 172.52 179.805 172.483 180.164L171.378 190.824C171.259 191.969 172.141 193.047 173.429 193.331L185.834 196.07C185.842 196.072 185.85 196.074 185.859 196.076C187.063 196.33 188.239 195.691 188.488 194.643C189.612 189.914 190.609 185.471 190.473 183.071C190.412 181.996 189.503 181.065 188.29 180.805C186.017 180.356 181.871 179.844 178.54 179.433C176.947 179.237 175.442 179.051 174.371 178.901Z" fill="white"/>
<path opacity="0.6" d="M175.481 180.259C178.13 180.631 183.927 181.251 186.626 181.785C187.769 182.011 188.624 182.911 188.684 183.956C188.798 185.987 187.922 189.801 187.088 193.315C186.837 194.368 185.687 195.008 184.503 194.746L174.59 192.558C173.371 192.288 172.532 191.242 172.647 190.133L173.53 181.615C173.622 180.734 174.5 180.121 175.481 180.259Z" fill="white"/>
<g opacity="0.6">
<path d="M198.035 192.405C198.108 193.845 199.148 195.053 200.561 195.339L315.775 218.597C317.078 218.86 318.345 218.006 318.591 216.7C318.83 215.429 318.013 214.2 316.75 213.927L201.85 189.163C199.822 188.726 197.931 190.333 198.035 192.405Z" fill="white"/>
</g>
<path d="M175.664 182.006C176.701 181.659 177.821 182.232 178.145 183.277L179.67 188.188C179.823 188.68 180.471 188.787 180.774 188.371L189.708 176.115C190.154 175.504 191.112 175.944 190.945 176.682C190.01 180.81 187.252 188.45 179.247 193.644C179.247 193.644 175.899 191.458 174.322 184.391C174.094 183.37 174.673 182.338 175.664 182.006Z" fill="url(#paint3_linear_81_1219)"/>
<path d="M180.04 223.67C180.029 223.667 180.017 223.665 180.006 223.663L167.601 220.923C165.829 220.532 164.621 219.001 164.79 217.363L165.896 206.704C165.961 206.078 166.278 205.513 166.79 205.112C167.363 204.664 168.128 204.468 168.89 204.574C169.952 204.724 171.453 204.909 173.042 205.105C176.389 205.518 180.554 206.032 182.862 206.488C182.879 206.492 182.896 206.495 182.912 206.498C184.547 206.843 185.744 208.135 185.83 209.656C185.973 212.187 184.961 216.707 183.82 221.508C183.45 223.068 181.759 224.032 180.04 223.67ZM168.754 205.541C168.254 205.47 167.757 205.594 167.391 205.88C167.09 206.116 166.903 206.444 166.866 206.804L165.761 217.463C165.642 218.608 166.524 219.686 167.812 219.971L180.216 222.71C180.225 222.712 180.233 222.713 180.241 222.715C181.446 222.969 182.622 222.331 182.871 221.283C183.994 216.554 184.991 212.111 184.856 209.711C184.795 208.636 183.875 207.678 182.673 207.445C180.399 206.995 176.254 206.484 172.923 206.073C171.33 205.876 169.824 205.691 168.754 205.541Z" fill="white"/>
<path opacity="0.6" d="M169.866 206.899C172.515 207.271 178.312 207.891 181.011 208.424C182.154 208.651 183.009 209.55 183.068 210.596C183.183 212.626 182.307 216.44 181.472 219.955C181.222 221.008 180.072 221.648 178.888 221.386L168.975 219.197C167.756 218.928 166.917 217.881 167.032 216.773L167.915 208.254C168.007 207.373 168.884 206.761 169.866 206.899Z" fill="white"/>
<g opacity="0.6">
<path d="M192.419 219.046C192.491 220.487 193.532 221.694 194.945 221.98L310.159 245.238C311.462 245.501 312.729 244.648 312.975 243.341C313.214 242.07 312.397 240.841 311.133 240.568L196.234 215.805C194.206 215.367 192.315 216.974 192.419 219.046Z" fill="white"/>
</g>
<path d="M170.05 208.646C171.087 208.299 172.206 208.872 172.531 209.916L174.056 214.828C174.209 215.32 174.857 215.427 175.16 215.011L184.094 202.755C184.54 202.143 185.498 202.583 185.33 203.321C184.396 207.449 181.638 215.089 173.633 220.284C173.633 220.284 170.285 218.098 168.708 211.031C168.48 210.01 169.058 208.978 170.05 208.646Z" fill="url(#paint4_linear_81_1219)"/>
<path d="M174.427 250.311C174.416 250.308 174.404 250.306 174.393 250.304L161.988 247.565C160.216 247.174 159.007 245.643 159.177 244.004L160.282 233.345C160.347 232.719 160.665 232.154 161.177 231.753C161.75 231.305 162.515 231.109 163.277 231.215C164.339 231.365 165.84 231.55 167.43 231.746C170.776 232.159 174.941 232.673 177.249 233.129C177.266 233.133 177.283 233.136 177.299 233.139C178.934 233.484 180.131 234.776 180.217 236.297C180.36 238.828 179.348 243.348 178.207 248.15C177.836 249.709 176.145 250.673 174.427 250.311ZM163.141 232.182C162.64 232.111 162.144 232.235 161.778 232.521C161.477 232.757 161.29 233.085 161.253 233.445L160.147 244.105C160.029 245.25 160.911 246.328 162.198 246.612L174.603 249.351C174.612 249.353 174.62 249.354 174.628 249.356C175.833 249.61 177.009 248.972 177.258 247.924C178.381 243.195 179.378 238.752 179.243 236.352C179.182 235.277 178.263 234.316 177.06 234.086C174.786 233.636 170.641 233.125 167.31 232.714C165.716 232.518 164.211 232.332 163.141 232.182Z" fill="white"/>
<path opacity="0.6" d="M164.251 233.54C166.9 233.912 172.697 234.532 175.396 235.066C176.539 235.292 177.394 236.192 177.453 237.237C177.568 239.268 176.692 243.082 175.857 246.597C175.607 247.649 174.457 248.289 173.273 248.028L163.36 245.839C162.141 245.57 161.302 244.523 161.417 243.414L162.3 234.896C162.391 234.015 163.269 233.403 164.251 233.54Z" fill="white"/>
<g opacity="0.6">
<path d="M186.804 245.686C186.876 247.126 187.916 248.334 189.33 248.62L304.544 271.878C305.847 272.141 307.114 271.287 307.36 269.98C307.599 268.71 306.782 267.481 305.518 267.208L190.619 242.444C188.59 242.007 186.7 243.614 186.804 245.686Z" fill="white"/>
</g>
<path d="M164.437 235.287C165.474 234.94 166.593 235.513 166.917 236.557L168.443 241.469C168.596 241.961 169.244 242.068 169.547 241.652L178.481 229.396C178.927 228.784 179.884 229.225 179.717 229.962C178.782 234.09 176.025 241.73 168.019 246.925C168.019 246.925 164.672 244.739 163.094 237.672C162.867 236.651 163.445 235.619 164.437 235.287Z" fill="url(#paint5_linear_81_1219)"/>
<path d="M168.813 276.951C168.801 276.948 168.79 276.946 168.779 276.943L156.374 274.204C154.602 273.813 153.393 272.283 153.563 270.644L154.668 259.985C154.733 259.359 155.051 258.794 155.563 258.393C156.136 257.945 156.901 257.749 157.663 257.855C158.725 258.004 160.226 258.189 161.815 258.386C165.162 258.798 169.327 259.313 171.635 259.769C171.652 259.772 171.668 259.776 171.685 259.779C173.32 260.124 174.516 261.415 174.602 262.937C174.745 265.468 173.733 269.988 172.593 274.789C172.222 276.349 170.531 277.313 168.813 276.951ZM157.527 258.821C157.026 258.751 156.529 258.875 156.164 259.161C155.862 259.397 155.676 259.725 155.638 260.085L154.533 270.745C154.414 271.89 155.296 272.968 156.584 273.252L168.989 275.991C168.997 275.993 169.006 275.994 169.014 275.996C170.219 276.25 171.395 275.611 171.644 274.564C172.767 269.835 173.764 265.392 173.629 262.992C173.568 261.917 172.65 260.952 171.446 260.726C169.172 260.276 165.027 259.765 161.696 259.354C160.102 259.157 158.597 258.971 157.527 258.821Z" fill="white"/>
<path opacity="0.6" d="M158.637 260.18C161.286 260.552 167.082 261.172 169.781 261.706C170.925 261.932 171.78 262.832 171.839 263.877C171.953 265.907 171.078 269.722 170.243 273.236C169.993 274.289 168.843 274.929 167.658 274.667L157.745 272.478C156.526 272.209 155.688 271.163 155.803 270.054L156.686 261.536C156.777 260.655 157.655 260.042 158.637 260.18Z" fill="white"/>
<g opacity="0.6">
<path d="M181.189 272.327C181.261 273.768 182.301 274.976 183.715 275.261L298.929 298.519C300.232 298.782 301.499 297.929 301.744 296.622C301.983 295.351 301.167 294.122 299.903 293.85L185.004 269.086C182.975 268.649 181.085 270.255 181.189 272.327Z" fill="white"/>
</g>
<path d="M158.821 261.927C159.857 261.58 160.977 262.153 161.301 263.198L162.827 268.109C162.979 268.601 163.627 268.708 163.931 268.292L172.865 256.036C173.31 255.424 174.268 255.865 174.101 256.603C173.166 260.731 170.408 268.37 162.403 273.565C162.403 273.565 159.056 271.379 157.478 264.312C157.25 263.291 157.829 262.259 158.821 261.927Z" fill="url(#paint6_linear_81_1219)"/>
<path d="M3.53732 53.4606C2.77919 49.8377 5.39901 46.3824 9.09244 46.1398C33.5882 44.5308 117.595 37.8791 184.316 18.9101C187.359 18.045 190.517 19.8421 191.31 22.9043L256.456 274.382C257.349 277.83 255.293 281.352 251.85 282.266C223.687 289.742 107.616 320.108 64.8516 324.227C62.2488 324.477 59.8785 322.725 59.343 320.165L3.53732 53.4606Z" fill="#8DECB4"/>
<path opacity="0.6" d="M7.63979 59.2612C6.91029 55.7747 9.43132 52.4496 12.9857 52.2162C36.559 50.6676 117.403 44.2665 181.611 26.0118C184.539 25.1793 187.578 26.9088 188.342 29.8557L251.035 271.864C251.894 275.182 249.915 278.571 246.602 279.451C219.499 286.646 107.799 315.868 66.6451 319.832C64.1404 320.073 61.8593 318.386 61.3441 315.923L7.63979 59.2612Z" fill="white"/>
<path opacity="0.78" d="M32.7074 73.8095L45.7971 125.765C46.2325 127.493 47.9234 128.594 49.6791 128.289C59.4487 126.59 89.8673 121.18 106.777 116.818C108.69 116.324 109.902 114.45 109.573 112.502C107.901 102.599 102.799 73.8249 98.1269 62.312C97.3721 60.4522 95.4227 59.3731 93.4431 59.7037L35.6198 69.3574C33.5346 69.7056 32.191 71.7596 32.7074 73.8095Z" fill="white"/>
<path d="M81.0373 86.6332C81.4694 80.2936 76.6803 74.804 70.3406 74.3719C64.0009 73.9398 58.5113 78.7288 58.0792 85.0685C57.6472 91.4081 62.4362 96.8976 68.7759 97.3297C75.1156 97.7618 80.6052 92.9728 81.0373 86.6332Z" fill="#8DECB4"/>
<path d="M59.1515 122.434L95.0729 115.138C97.2752 114.691 98.1008 111.991 96.538 110.376C92.5171 106.221 84.7087 100.504 73.7171 103.066C63.1235 105.535 58.0946 113.154 55.8424 118.342C54.8865 120.545 56.7985 122.912 59.1515 122.434Z" fill="#8DECB4"/>
<g opacity="0.6">
<path d="M177.28 49.1998C178.405 48.9712 179.141 47.9972 178.917 47.0352C178.692 46.0733 177.584 45.4566 176.455 45.665L113.267 57.3308C112.138 57.5392 111.696 58.5159 112.286 59.501L112.761 60.2952C113.35 61.2804 114.753 61.8995 115.877 61.671L177.28 49.1998Z" fill="white"/>
</g>
<g opacity="0.6">
<path d="M115.253 67.1088C114.124 67.3172 113.683 68.2938 114.272 69.279L114.747 70.0731C115.336 71.0584 116.739 71.6775 117.864 71.449L179.266 58.9776C180.391 58.7491 181.128 57.775 180.903 56.8131C180.678 55.8511 179.571 55.2345 178.442 55.4428L115.253 67.1088Z" fill="white"/>
</g>
<g opacity="0.6">
<path d="M117.27 77.0286C116.141 77.237 115.699 78.2137 116.289 79.1988L116.764 79.993C117.353 80.9782 118.755 81.5973 119.88 81.3688L181.283 68.8974C182.408 68.6689 183.144 67.6949 182.92 66.7329C182.695 65.771 181.587 65.1543 180.458 65.3628L117.27 77.0286Z" fill="white"/>
</g>
<g opacity="0.6">
<path d="M197.113 115.496C198.238 115.267 198.945 114.299 198.685 113.344C198.424 112.389 197.289 111.788 196.163 112.008L48.4266 140.804C47.2999 141.023 47.0975 141.807 47.977 142.544L49.4897 143.813C50.3692 144.551 52.0093 144.968 53.1343 144.739L197.113 115.496Z" fill="white"/>
</g>
<g opacity="0.6">
<path d="M50.4119 150.581C49.2852 150.801 49.0828 151.584 49.9624 152.322L51.475 153.59C52.3546 154.328 53.9946 154.745 55.1196 154.516L199.098 125.273C200.223 125.044 200.931 124.076 200.67 123.122C200.41 122.167 199.275 121.565 198.148 121.785L50.4119 150.581Z" fill="white"/>
</g>
<path opacity="0.6" d="M53.0618 167.042C56.5531 166.05 63.1689 164.575 66.8143 163.782C68.359 163.445 69.9307 164.219 70.5998 165.651C71.8995 168.433 73.9044 173.314 74.8749 178.72C75.1655 180.339 74.1068 181.894 72.4912 182.204L58.9708 184.799C57.3081 185.118 55.6732 184.129 55.1833 182.509L51.4195 170.058C51.0302 168.77 51.7676 167.41 53.0618 167.042Z" fill="white"/>
<g opacity="0.6">
<path d="M79.0698 167.186C77.9363 167.368 77.3303 168.398 77.7234 169.477L78.4919 171.586C78.885 172.665 80.127 173.36 81.252 173.132L114.017 166.477C115.142 166.248 115.864 165.143 115.621 164.021L115.502 163.469C115.259 162.347 114.134 161.578 113 161.759L79.0698 167.186Z" fill="white"/>
</g>
<path opacity="0.6" d="M126.559 152.115C130.05 151.122 136.666 149.648 140.311 148.854C141.856 148.518 143.428 149.291 144.097 150.723C145.397 153.505 147.402 158.386 148.372 163.793C148.663 165.412 147.604 166.966 145.988 167.276L132.468 169.871C130.805 170.19 129.17 169.202 128.68 167.581L124.916 155.131C124.527 153.843 125.265 152.482 126.559 152.115Z" fill="white"/>
<g opacity="0.6">
<path d="M152.566 152.258C151.432 152.44 150.826 153.47 151.219 154.549L151.988 156.658C152.381 157.736 153.623 158.432 154.748 158.203L187.513 151.549C188.638 151.32 189.36 150.215 189.117 149.093L188.998 148.541C188.756 147.419 187.63 146.649 186.496 146.831L152.566 152.258Z" fill="white"/>
</g>
<path d="M82.3251 213.53C82.3139 213.532 82.3025 213.534 82.291 213.536L69.818 215.945C68.0359 216.289 66.3191 215.364 65.8247 213.793L62.6089 203.57C62.4201 202.97 62.4876 202.325 62.7983 201.754C63.1463 201.115 63.7709 200.632 64.5121 200.427C65.5464 200.143 66.9979 199.717 68.5344 199.266C71.77 198.317 75.797 197.136 78.0966 196.639C79.7678 196.291 81.3878 196.992 82.0778 198.369C83.2134 200.635 84.0783 205.185 84.9369 210.045C85.216 211.624 84.0462 213.18 82.3251 213.53ZM64.7714 201.368C64.2839 201.502 63.8771 201.813 63.6552 202.221C63.4719 202.557 63.4309 202.932 63.5395 203.277L66.7553 213.5C67.1008 214.598 68.338 215.238 69.6333 214.988L82.1063 212.579C82.1145 212.577 82.1229 212.575 82.1313 212.574C83.3377 212.329 84.1639 211.276 83.9767 210.216C83.131 205.429 82.2828 200.955 81.2059 198.806C80.7233 197.843 79.5192 197.349 78.3032 197.593C76.0378 198.082 72.0299 199.258 68.8094 200.203C67.2686 200.654 65.8131 201.081 64.7714 201.368Z" fill="white"/>
<path opacity="0.6" d="M66.3304 202.174C68.9093 201.465 74.476 199.733 77.1649 199.152C78.3043 198.906 79.4464 199.392 79.9154 200.328C80.8265 202.146 81.5363 205.995 82.1648 209.552C82.353 210.618 81.5514 211.662 80.3604 211.892L70.3928 213.817C69.167 214.053 67.982 213.426 67.6474 212.362L65.0775 204.193C64.8119 203.348 65.3745 202.438 66.3304 202.174Z" fill="white"/>
<g opacity="0.6">
<path d="M91.8491 204.373C92.4871 205.667 93.9211 206.362 95.3319 206.063L210.314 181.687C211.615 181.411 212.439 180.125 212.146 178.828C211.861 177.567 210.623 176.763 209.355 177.014L94.064 199.884C92.0289 200.288 90.9311 202.512 91.8491 204.373Z" fill="white"/>
</g>
<path d="M87.745 240.21C87.7338 240.213 87.7224 240.215 87.7109 240.217L75.2379 242.626C73.4559 242.97 71.739 242.045 71.2446 240.474L68.0288 230.251C67.84 229.651 67.9075 229.006 68.2182 228.435C68.5662 227.797 69.1908 227.313 69.9322 227.108C70.9663 226.824 72.4179 226.398 73.9545 225.947C77.19 224.998 81.217 223.817 83.5167 223.32C83.5335 223.316 83.5501 223.313 83.5668 223.309C85.2038 222.977 86.8148 223.688 87.4979 225.05C88.6334 227.316 89.4983 231.866 90.3569 236.726C90.636 238.305 89.4662 239.861 87.745 240.21ZM70.1913 228.049C69.7039 228.183 69.297 228.494 69.0751 228.902C68.8919 229.238 68.851 229.613 68.9594 229.958L72.1752 240.181C72.5207 241.279 73.758 241.918 75.0532 241.668L87.5261 239.259C87.5343 239.258 87.5427 239.256 87.5511 239.254C88.7575 239.009 89.5837 237.957 89.3965 236.896C88.5508 232.11 87.7026 227.636 86.6257 225.487C86.143 224.524 84.9191 224.01 83.7229 224.273C81.4577 224.763 77.4497 225.939 74.2294 226.883C72.6885 227.335 71.233 227.762 70.1913 228.049Z" fill="white"/>
<path opacity="0.6" d="M71.7474 228.855C74.3264 228.145 79.8931 226.414 82.582 225.833C83.7213 225.586 84.8634 226.073 85.3325 227.009C86.2435 228.827 86.9534 232.676 87.5819 236.233C87.7701 237.298 86.9685 238.342 85.7774 238.572L75.8098 240.497C74.5841 240.734 73.399 240.106 73.0644 239.043L70.4946 230.874C70.2288 230.029 70.7915 229.118 71.7474 228.855Z" fill="white"/>
<g opacity="0.6">
<path d="M97.27 231.054C97.908 232.347 99.342 233.043 100.753 232.744L215.735 208.368C217.036 208.092 217.86 206.806 217.567 205.509C217.282 204.248 216.044 203.443 214.776 203.695L99.4849 226.565C97.4498 226.968 96.352 229.193 97.27 231.054Z" fill="white"/>
</g>
<path d="M93.1639 266.891C93.1527 266.894 93.1412 266.896 93.1298 266.898L80.6567 269.307C78.8747 269.651 77.1581 268.726 76.6636 267.155L73.4478 256.932C73.2589 256.332 73.3264 255.687 73.6373 255.116C73.9853 254.477 74.6098 253.993 75.351 253.789C76.3853 253.505 77.8367 253.079 79.3733 252.628C82.6089 251.679 86.6359 250.498 88.9355 250.001C88.9523 249.997 88.969 249.993 88.9856 249.99C90.6228 249.657 92.2337 250.368 92.9167 251.731C94.0523 253.997 94.9171 258.547 95.7757 263.407C96.0548 264.986 94.885 266.542 93.1639 266.891ZM75.6101 254.73C75.1227 254.864 74.7159 255.175 74.4939 255.582C74.3107 255.919 74.2697 256.294 74.3784 256.639L77.5942 266.862C77.9397 267.96 79.1769 268.6 80.4718 268.349L92.9451 265.94C92.9533 265.939 92.9616 265.937 92.9701 265.935C94.1765 265.69 95.0027 264.637 94.8155 263.577C93.9698 258.791 93.1214 254.317 92.0447 252.168C91.562 251.205 90.3374 250.687 89.1418 250.954C86.8765 251.444 82.8687 252.619 79.6483 253.564C78.1073 254.016 76.652 254.443 75.6101 254.73Z" fill="white"/>
<path opacity="0.6" d="M77.1693 255.536C79.7482 254.826 85.3149 253.094 88.0039 252.513C89.1432 252.267 90.2853 252.754 90.7543 253.69C91.6654 255.508 92.3753 259.356 93.0038 262.914C93.192 263.979 92.3903 265.023 91.1993 265.253L81.2317 267.178C80.0059 267.415 78.8209 266.787 78.4863 265.724L75.9165 257.554C75.6507 256.709 76.2133 255.799 77.1693 255.536Z" fill="white"/>
<g opacity="0.6">
<path d="M102.69 257.735C103.328 259.028 104.762 259.724 106.173 259.425L221.155 235.049C222.456 234.773 223.28 233.487 222.987 232.19C222.702 230.929 221.464 230.125 220.196 230.376L104.905 253.246C102.87 253.649 101.772 255.874 102.69 257.735Z" fill="white"/>
</g>
<path d="M98.5809 293.572C98.5697 293.575 98.5582 293.577 98.5468 293.579L86.0737 295.988C84.2917 296.333 82.5751 295.408 82.0806 293.836L78.8648 283.613C78.6759 283.013 78.7434 282.368 79.0543 281.797C79.4023 281.158 80.0268 280.675 80.768 280.47C81.8023 280.186 83.2538 279.76 84.7903 279.309C88.0259 278.36 92.0529 277.179 94.3525 276.682C94.3693 276.678 94.386 276.674 94.4026 276.671C96.0398 276.338 97.6507 277.049 98.3337 278.412C99.4693 280.678 100.334 285.228 101.193 290.088C101.472 291.667 100.302 293.223 98.5809 293.572ZM81.0271 281.411C80.5397 281.545 80.1329 281.856 79.911 282.264C79.7277 282.6 79.6867 282.975 79.7954 283.32L83.0111 293.543C83.3567 294.641 84.5939 295.281 85.8888 295.031L98.3621 292.622C98.3703 292.62 98.3786 292.618 98.3871 292.616C99.5935 292.371 100.42 291.319 100.232 290.258C99.3868 285.472 98.5386 280.998 97.4617 278.849C96.979 277.886 95.7537 277.365 94.5588 277.635C92.2935 278.125 88.2856 279.301 85.0653 280.245C83.5243 280.697 82.069 281.124 81.0271 281.411Z" fill="white"/>
<path opacity="0.6" d="M82.5863 282.217C85.1651 281.507 90.7319 279.775 93.4208 279.194C94.5602 278.948 95.7023 279.435 96.1713 280.371C97.0824 282.189 97.7922 286.037 98.4207 289.595C98.6089 290.66 97.8073 291.704 96.6163 291.934L86.6487 293.859C85.4229 294.096 84.2379 293.468 83.9033 292.405L81.3334 284.235C81.0677 283.391 81.6303 282.48 82.5863 282.217Z" fill="white"/>
<g opacity="0.6">
<path d="M108.109 284.416C108.747 285.71 110.181 286.406 111.592 286.106L226.574 261.73C227.875 261.454 228.699 260.168 228.406 258.871C228.121 257.61 226.883 256.806 225.615 257.057L110.324 279.927C108.289 280.331 107.191 282.555 108.109 284.416Z" fill="white"/>
</g>
<path d="M83.4497 283.748C84.2638 283.018 85.5189 283.1 86.2309 283.929L89.5804 287.832C89.9156 288.223 90.553 288.064 90.6662 287.562L94.0025 272.767C94.169 272.029 95.2227 272.053 95.3621 272.796C96.1422 276.956 96.643 285.063 91.3567 293.008C91.3567 293.008 87.4166 292.33 83.164 286.469C82.5499 285.623 82.671 284.446 83.4497 283.748Z" fill="url(#paint7_linear_81_1219)"/>
<path d="M78.1101 271.032C79.2518 283.013 81.9324 298.853 85.154 312.503H87.1771C83.0115 296.031 79.1775 273.473 80.3064 247.47C81.4451 221.247 87.8673 189.408 75.8917 174.199C65.9247 161.541 23.6313 159.649 9.72374 159.37C7.98596 159.335 6.99109 161.337 8.07277 162.698C13.4045 169.407 24.5694 184.944 25.5419 198.511C26.824 216.394 40.7224 230.43 54.5323 236.272C68.3423 242.115 75.7793 246.572 78.1101 271.032Z" fill="#8DECB4"/>
<path opacity="0.5" d="M27.1115 170.425C35.6661 172.596 43.7574 176.499 50.8367 181.844C54.383 184.506 57.597 187.634 60.3684 191.126C63.1105 194.638 65.4128 198.528 67.0111 202.706L67.6029 204.275C67.7967 204.799 67.9413 205.34 68.1124 205.872C68.2702 206.405 68.4487 206.944 68.5888 207.473L69.0114 209.063C69.5796 211.18 70.1376 213.301 70.6738 215.427C71.7526 219.678 72.7635 223.946 73.7081 228.229C75.6014 236.795 77.2303 245.417 78.3288 254.136C78.3552 254.345 78.2069 254.536 77.9977 254.563C77.7957 254.588 77.6109 254.451 77.5744 254.253L77.5723 254.241C76.7914 249.95 75.9276 245.658 74.9827 241.391C74.0572 237.119 73.0803 232.859 72.0567 228.609L70.501 222.24L68.8736 215.889C68.3326 213.772 67.7699 211.66 67.1969 209.551L66.7708 207.968C66.6294 207.44 66.4596 206.94 66.3058 206.424C66.144 205.913 66.0096 205.393 65.8261 204.89L65.2667 203.384C63.7651 199.365 61.5512 195.643 58.9706 192.213C57.6423 190.526 56.2527 188.878 54.7104 187.371L54.143 186.796L53.5536 186.243C53.159 185.876 52.7736 185.498 52.371 185.139C51.5559 184.432 50.7491 183.714 49.8954 183.051C46.531 180.333 42.8355 178.028 38.9951 176.005C35.1542 173.988 31.1132 172.283 26.9659 171.021L26.9468 171.015C26.7849 170.966 26.6936 170.795 26.7428 170.633C26.7908 170.476 26.9541 170.385 27.1115 170.425Z" fill="white"/>
<path d="M78.5104 287.26C85.7436 297.88 84.8149 303.822 85.0372 308.855C85.0765 309.748 85.1257 311.011 85.2292 312.503H87.2043C86.8011 310.455 86.5149 308.389 86.4125 306.363C85.709 292.463 82.5734 268.74 70.5868 254.548C58.6001 240.357 45.4737 239.062 28.934 251.963C15.1505 262.714 6.55288 268.14 1.51057 269.149C0.262156 269.398 -0.374934 270.808 0.232612 271.927C3.46648 277.882 12.61 291.562 27.9618 290.599C47.5444 289.371 71.2771 276.641 78.5104 287.26Z" fill="#8DECB4"/>
<path opacity="0.5" d="M34.5361 269.056C35.6193 268.025 36.7669 267.096 37.9512 266.199C39.135 265.305 40.3551 264.454 41.6253 263.677C44.1568 262.114 46.8584 260.779 49.7354 259.861C51.1742 259.406 52.6562 259.056 54.172 258.863C55.6876 258.68 57.2365 258.654 58.7735 258.845C59.1559 258.907 59.5421 258.944 59.9211 259.029C60.2972 259.117 60.686 259.19 61.0511 259.294L63.2097 259.964L65.3219 260.785L67.3693 261.768C70.0528 263.183 72.4807 265.093 74.5009 267.345C76.5369 269.589 78.1296 272.176 79.4402 274.855L79.932 275.862C80.1008 276.195 80.2234 276.548 80.3711 276.89C80.6495 277.58 80.9494 278.263 81.2091 278.96L81.9357 281.066C82.1931 281.764 82.3571 282.488 82.565 283.199C83.3857 286.048 83.9511 288.952 84.4394 291.86C84.4666 292.022 84.3572 292.176 84.195 292.203C84.0401 292.229 83.893 292.13 83.8563 291.98L83.854 291.971C83.1643 289.122 82.5009 286.268 81.5524 283.508C81.1223 282.114 80.5767 280.765 80.0693 279.403C79.796 278.731 79.4843 278.076 79.1943 277.412C79.041 277.084 78.9124 276.743 78.7392 276.426L78.2346 275.466C76.8991 272.906 75.2778 270.507 73.3414 268.408C71.4036 266.31 69.1041 264.578 66.5857 263.253L64.6546 262.337L62.6538 261.572L60.5987 260.946C60.2575 260.849 59.9228 260.786 59.5847 260.702C59.2475 260.623 58.8997 260.59 58.5578 260.531C57.1785 260.35 55.7676 260.361 54.3662 260.521C52.9629 260.671 51.5661 260.966 50.1943 261.368C47.4466 262.168 44.7971 263.362 42.2517 264.752C40.9839 265.457 39.7277 266.193 38.5082 266.991C37.2927 267.79 36.0914 268.633 34.9468 269.519L34.9393 269.525C34.8041 269.63 34.6095 269.605 34.5048 269.47C34.407 269.343 34.4232 269.164 34.5361 269.056Z" fill="white"/>
<path d="M78.915 79.2323C78.915 68.3509 87.7362 59.5298 98.6176 59.5298H266.169C275.413 59.5298 283.035 66.7737 283.505 76.0055L295.873 318.924C296.241 326.148 290.554 332.242 283.321 332.373L91.2862 335.863C84.4905 335.987 78.915 330.512 78.915 323.715V79.2323Z" fill="url(#paint8_linear_81_1219)"/>
<path d="M92.6398 63.2693C92.6192 59.7879 95.681 57.0933 99.1309 57.5612C122.012 60.664 200.692 70.2606 265.745 65.267C268.711 65.0392 271.286 67.2869 271.444 70.2581L284.412 314.26C284.59 317.605 282.035 320.466 278.69 320.664C251.331 322.283 138.655 328.542 98.4647 324.333C96.0186 324.077 94.1619 322.017 94.1474 319.558L92.6398 63.2693Z" fill="#8DECB4"/>
<path opacity="0.6" d="M95.3341 69.3839C95.3143 66.0336 98.2608 63.4406 101.581 63.8908C123.6 66.8767 199.318 76.112 261.921 71.3063C264.775 71.0871 267.253 73.2502 267.405 76.1095L279.885 310.923C280.056 314.142 277.597 316.896 274.379 317.086C248.049 318.644 139.616 324.668 100.94 320.617C98.5856 320.37 96.7988 318.388 96.7849 316.021L95.3341 69.3839Z" fill="white"/>
<path opacity="0.78" d="M115.719 87.4875L118.057 137.829C118.135 139.503 119.488 140.835 121.163 140.882C130.486 141.145 159.538 141.854 175.942 140.998C177.797 140.902 179.265 139.401 179.327 137.544C179.64 128.103 180.324 100.624 178.173 89.1371C177.825 87.2816 176.23 85.922 174.344 85.856L119.237 83.9289C117.25 83.8594 115.626 85.5012 115.719 87.4875Z" fill="white"/>
<path d="M147.428 116.308C153.405 116.308 158.25 111.463 158.25 105.486C158.25 99.5092 153.405 94.6641 147.428 94.6641C141.452 94.6641 136.606 99.5092 136.606 105.486C136.606 111.463 141.452 116.308 147.428 116.308Z" fill="url(#paint9_linear_81_1219)"/>
<path d="M130.991 137.258H165.468C167.582 137.258 168.848 134.924 167.71 133.143C164.782 128.561 158.654 121.829 148.043 122.132C137.816 122.425 131.754 128.506 128.707 132.867C127.413 134.719 128.732 137.258 130.991 137.258Z" fill="url(#paint10_linear_81_1219)"/>
<g opacity="0.6">
<path d="M253.588 91.8697C254.668 91.8697 255.529 91.1097 255.502 90.1808C255.475 89.2519 254.569 88.4762 253.49 88.4571L193.06 87.3802C191.981 87.361 191.391 88.1786 191.75 89.197L192.039 90.018C192.397 91.0364 193.574 91.8697 194.654 91.8697H253.588Z" fill="white"/>
</g>
<g opacity="0.6">
<path d="M193.061 96.765C191.982 96.7457 191.392 97.5633 191.751 98.5818L192.04 99.4028C192.398 100.421 193.575 101.254 194.655 101.254H253.589C254.669 101.254 255.53 100.494 255.503 99.5656C255.476 98.6367 254.57 97.861 253.491 97.8419L193.061 96.765Z" fill="white"/>
</g>
<g opacity="0.6">
<path d="M193.061 106.287C191.982 106.268 191.392 107.085 191.751 108.104L192.04 108.925C192.398 109.943 193.575 110.776 194.655 110.776H253.589C254.669 110.776 255.53 110.016 255.503 109.088C255.476 108.159 254.57 107.383 253.491 107.364L193.061 106.287Z" fill="white"/>
</g>
<g opacity="0.6">
<path d="M259.458 156.693C260.538 156.693 261.371 155.933 261.31 155.004C261.248 154.075 260.315 153.309 259.235 153.3L117.665 152.184C116.585 152.176 116.252 152.86 116.925 153.704L118.082 155.157C118.754 156.002 120.188 156.693 121.268 156.693L259.458 156.693Z" fill="white"/>
</g>
<g opacity="0.6">
<path d="M117.665 161.568C116.585 161.56 116.252 162.244 116.925 163.089L118.082 164.541C118.754 165.386 120.188 166.077 121.268 166.077H259.458C260.538 166.077 261.371 165.317 261.31 164.388C261.248 163.46 260.315 162.693 259.235 162.684L117.665 161.568Z" fill="white"/>
</g>
<path d="M117.026 177.237C120.43 176.976 126.804 176.856 130.313 176.806C131.8 176.786 133.104 177.793 133.453 179.238C134.13 182.046 135.064 186.921 134.946 192.086C134.911 193.632 133.644 194.867 132.097 194.851L119.148 194.711C117.556 194.694 116.234 193.477 116.086 191.891L114.948 179.71C114.83 178.45 115.764 177.334 117.026 177.237Z" fill="url(#paint11_linear_81_1219)"/>
<g opacity="0.6">
<path d="M140.973 182.24C139.894 182.194 139.142 183.031 139.303 184.099L139.616 186.187C139.777 187.255 140.791 188.128 141.871 188.128H173.319C174.398 188.128 175.271 187.245 175.257 186.165L175.251 185.634C175.237 184.554 174.344 183.634 173.265 183.589L140.973 182.24Z" fill="white"/>
</g>
<path d="M187.568 177.237C190.972 176.976 197.346 176.856 200.855 176.806C202.342 176.786 203.646 177.793 203.994 179.238C204.672 182.046 205.606 186.921 205.488 192.086C205.453 193.632 204.186 194.867 202.639 194.851L189.69 194.711C188.098 194.694 186.776 193.477 186.628 191.891L185.49 179.71C185.372 178.45 186.306 177.334 187.568 177.237Z" fill="url(#paint12_linear_81_1219)"/>
<g opacity="0.6">
<path d="M211.514 182.24C210.435 182.194 209.683 183.031 209.844 184.099L210.157 186.187C210.318 187.255 211.332 188.128 212.412 188.128H243.86C244.939 188.128 245.812 187.245 245.798 186.165L245.792 185.634C245.778 184.554 244.885 183.634 243.806 183.589L211.514 182.24Z" fill="white"/>
</g>
<path d="M135.295 225.568C135.285 225.568 135.274 225.568 135.263 225.568L123.315 225.453C121.607 225.436 120.198 224.262 120.037 222.721L118.986 212.696C118.925 212.107 119.108 211.526 119.501 211.058C119.941 210.534 120.608 210.205 121.329 210.155C122.336 210.087 123.753 209.966 125.254 209.838C128.414 209.569 132.347 209.234 134.56 209.207C136.166 209.199 137.528 210.149 137.906 211.547C138.528 213.848 138.474 218.204 138.355 222.845C138.317 224.353 136.947 225.568 135.295 225.568ZM121.392 211.071C120.917 211.103 120.484 211.314 120.203 211.648C119.971 211.924 119.863 212.262 119.899 212.6L120.949 222.625C121.062 223.702 122.083 224.523 123.323 224.535L135.272 224.65C135.279 224.65 135.288 224.65 135.296 224.65C136.453 224.65 137.412 223.834 137.438 222.822C137.555 218.251 137.61 213.969 137.02 211.786C136.756 210.808 135.738 210.128 134.572 210.124C132.392 210.151 128.477 210.485 125.332 210.753C123.827 210.881 122.406 211.002 121.392 211.071Z" fill="white"/>
<path opacity="0.6" d="M122.675 212.105C125.185 211.934 130.64 211.38 133.228 211.348C134.324 211.334 135.286 211.997 135.543 212.947C136.042 214.794 135.976 218.474 135.889 221.871C135.864 222.888 134.929 223.7 133.788 223.689L124.24 223.598C123.066 223.586 122.091 222.786 121.982 221.743L121.142 213.732C121.055 212.903 121.744 212.169 122.675 212.105Z" fill="white"/>
<g opacity="0.6">
<path d="M145.787 218.911C146.133 220.223 147.325 221.133 148.681 221.121L259.232 220.178C260.483 220.168 261.483 219.136 261.456 217.886C261.429 216.67 260.439 215.697 259.223 215.692L148.669 215.188C146.718 215.179 145.29 217.024 145.787 218.911Z" fill="white"/>
</g>
<path d="M123.186 213.678C124.073 213.157 125.214 213.468 125.715 214.366L128.072 218.59C128.308 219.013 128.925 218.986 129.123 218.545L134.969 205.531C135.26 204.882 136.227 205.102 136.216 205.813C136.157 209.794 135.101 217.36 128.74 223.694C128.74 223.694 125.235 222.331 122.413 216.133C122.005 215.238 122.337 214.176 123.186 213.678Z" fill="url(#paint13_linear_81_1219)"/>
<path d="M135.295 251.176C135.285 251.176 135.274 251.176 135.263 251.176L123.315 251.061C121.607 251.044 120.198 249.87 120.037 248.329L118.986 238.304C118.925 237.716 119.108 237.134 119.501 236.666C119.941 236.142 120.608 235.813 121.329 235.764C122.336 235.695 123.753 235.574 125.254 235.446C128.414 235.177 132.347 234.843 134.56 234.815C134.576 234.815 134.592 234.814 134.608 234.814C136.18 234.814 137.531 235.771 137.906 237.155C138.528 239.457 138.474 243.813 138.355 248.453C138.317 249.961 136.947 251.176 135.295 251.176ZM121.392 236.679C120.917 236.711 120.484 236.922 120.203 237.256C119.971 237.532 119.863 237.87 119.899 238.208L120.949 248.233C121.062 249.31 122.083 250.131 123.323 250.143L135.272 250.258C135.279 250.258 135.288 250.258 135.296 250.258C136.453 250.258 137.412 249.442 137.438 248.43C137.555 243.859 137.61 239.577 137.02 237.394C136.756 236.417 135.724 235.714 134.572 235.732C132.392 235.759 128.477 236.093 125.332 236.361C123.827 236.489 122.406 236.61 121.392 236.679Z" fill="white"/>
<path opacity="0.6" d="M122.675 237.714C125.185 237.542 130.64 236.988 133.228 236.956C134.324 236.942 135.286 237.604 135.543 238.555C136.042 240.402 135.976 244.082 135.889 247.479C135.864 248.496 134.929 249.308 133.788 249.297L124.24 249.205C123.066 249.194 122.091 248.394 121.982 247.351L121.142 239.34C121.055 238.511 121.744 237.777 122.675 237.714Z" fill="white"/>
<g opacity="0.6">
<path d="M145.787 244.519C146.133 245.831 147.325 246.741 148.681 246.729L259.232 245.787C260.483 245.776 261.483 244.745 261.456 243.495C261.429 242.279 260.439 241.306 259.223 241.3L148.669 240.796C146.718 240.787 145.29 242.632 145.787 244.519Z" fill="white"/>
</g>
<path d="M123.186 239.286C124.073 238.765 125.214 239.076 125.715 239.974L128.072 244.198C128.308 244.621 128.925 244.594 129.123 244.153L134.969 231.139C135.26 230.49 136.227 230.71 136.216 231.421C136.157 235.402 135.101 242.968 128.74 249.302C128.74 249.302 125.235 247.939 122.413 241.741C122.005 240.846 122.337 239.783 123.186 239.286Z" fill="url(#paint14_linear_81_1219)"/>
<path d="M135.295 276.784C135.285 276.784 135.274 276.784 135.263 276.784L123.315 276.669C121.607 276.653 120.198 275.479 120.037 273.938L118.986 263.913C118.925 263.324 119.108 262.742 119.501 262.274C119.942 261.75 120.608 261.422 121.329 261.372C122.336 261.303 123.753 261.182 125.254 261.055C128.414 260.785 132.347 260.451 134.56 260.423C134.576 260.423 134.593 260.422 134.608 260.422C136.18 260.422 137.531 261.379 137.906 262.763C138.529 265.064 138.474 269.421 138.355 274.061C138.317 275.569 136.947 276.784 135.295 276.784ZM121.392 262.288C120.917 262.32 120.484 262.53 120.203 262.865C119.971 263.14 119.863 263.478 119.899 263.817L120.949 273.842C121.062 274.919 122.083 275.74 123.323 275.752L135.272 275.866C135.279 275.866 135.287 275.866 135.295 275.866C136.453 275.866 137.412 275.051 137.438 274.038C137.555 269.468 137.61 265.185 137.02 263.002C136.755 262.025 135.723 261.318 134.571 261.34C132.392 261.368 128.477 261.701 125.332 261.969C123.827 262.097 122.406 262.218 121.392 262.288Z" fill="white"/>
<path opacity="0.6" d="M122.675 263.322C125.185 263.151 130.64 262.597 133.228 262.565C134.324 262.551 135.286 263.213 135.543 264.164C136.042 266.01 135.976 269.691 135.889 273.088C135.864 274.105 134.929 274.917 133.788 274.906L124.24 274.814C123.066 274.803 122.091 274.002 121.982 272.96L121.142 264.949C121.055 264.12 121.744 263.386 122.675 263.322Z" fill="white"/>
<g opacity="0.6">
<path d="M145.787 270.126C146.133 271.438 147.325 272.348 148.681 272.336L259.232 271.394C260.483 271.383 261.483 270.352 261.456 269.101C261.429 267.886 260.439 266.913 259.223 266.907L148.669 266.403C146.718 266.394 145.29 268.239 145.787 270.126Z" fill="white"/>
</g>
<path d="M123.186 264.894C124.073 264.374 125.214 264.684 125.715 265.582L128.072 269.807C128.308 270.23 128.925 270.203 129.123 269.761L134.969 256.748C135.26 256.098 136.227 256.318 136.216 257.03C136.157 261.01 135.101 268.577 128.74 274.91C128.74 274.91 125.235 273.548 122.413 267.35C122.005 266.454 122.337 265.392 123.186 264.894Z" fill="url(#paint15_linear_81_1219)"/>
<path d="M135.295 302.392C135.285 302.392 135.274 302.392 135.263 302.392L123.315 302.277C121.607 302.261 120.198 301.087 120.037 299.546L118.986 289.521C118.925 288.932 119.108 288.35 119.501 287.882C119.942 287.358 120.608 287.03 121.329 286.98C122.336 286.911 123.753 286.79 125.254 286.663C128.414 286.393 132.347 286.059 134.56 286.031C134.576 286.031 134.593 286.031 134.608 286.031C136.18 286.031 137.531 286.988 137.906 288.372C138.529 290.673 138.474 295.029 138.355 299.67C138.317 301.177 136.947 302.392 135.295 302.392ZM121.392 287.895C120.917 287.928 120.484 288.138 120.203 288.473C119.971 288.748 119.863 289.086 119.899 289.425L120.949 299.45C121.062 300.527 122.083 301.348 123.323 301.36L135.272 301.474C135.279 301.474 135.287 301.474 135.295 301.474C136.453 301.474 137.412 300.659 137.438 299.646C137.555 295.076 137.61 290.793 137.02 288.61C136.755 287.633 135.723 286.923 134.571 286.948C132.392 286.976 128.477 287.309 125.332 287.577C123.827 287.705 122.406 287.826 121.392 287.895Z" fill="white"/>
<path opacity="0.6" d="M122.675 288.931C125.185 288.759 130.64 288.205 133.228 288.173C134.324 288.159 135.286 288.822 135.543 289.772C136.042 291.619 135.976 295.299 135.889 298.696C135.864 299.713 134.929 300.525 133.788 300.514L124.24 300.423C123.066 300.411 122.091 299.611 121.982 298.568L121.142 290.557C121.055 289.728 121.744 288.994 122.675 288.931Z" fill="white"/>
<g opacity="0.6">
<path d="M145.787 295.736C146.133 297.048 147.325 297.958 148.681 297.946L259.232 297.004C260.483 296.993 261.483 295.962 261.456 294.711C261.429 293.496 260.439 292.523 259.223 292.517L148.669 292.013C146.718 292.004 145.29 293.849 145.787 295.736Z" fill="white"/>
</g>
<path d="M123.186 290.503C124.073 289.982 125.214 290.293 125.715 291.191L128.072 295.416C128.308 295.838 128.925 295.812 129.123 295.37L134.969 282.357C135.26 281.707 136.227 281.927 136.216 282.638C136.157 286.619 135.101 294.185 128.74 300.519C128.74 300.519 125.235 299.157 122.413 292.958C122.005 292.063 122.337 291.001 123.186 290.503Z" fill="url(#paint16_linear_81_1219)"/>
<path d="M192.785 26.4101C186.733 22.1997 181.47 22.2831 177.766 23.3762C174.386 24.3733 172.196 27.636 172.518 31.1447L174.115 48.5825L193.126 50.2697C193.126 50.2697 204.654 34.6674 192.785 26.4101ZM184.425 40.4781C181.807 40.4781 179.684 38.3559 179.684 35.7379C179.684 33.1199 181.807 30.9975 184.425 30.9975C187.043 30.9975 189.165 33.1199 189.165 35.7379C189.165 38.3559 187.043 40.4781 184.425 40.4781Z" fill="url(#paint17_linear_81_1219)"/>
<path d="M176.014 41.247C175.779 41.247 175.579 41.0683 175.557 40.8298L175.303 38.0528C175.28 37.8006 175.466 37.5775 175.718 37.5542C175.975 37.5301 176.194 37.7169 176.216 37.9695L176.471 40.7465C176.494 40.9988 176.308 41.2218 176.056 41.2451C176.042 41.2464 176.027 41.247 176.014 41.247ZM175.515 35.8048C175.28 35.8048 175.081 35.6261 175.059 35.3877L174.865 33.2795C174.559 29.9371 176.662 26.8249 179.866 25.8792C182.135 25.2095 184.473 25.1137 186.814 25.5938C187.062 25.6444 187.222 25.8872 187.171 26.1354C187.121 26.3832 186.88 26.5417 186.63 26.4924C184.437 26.0435 182.249 26.1326 180.126 26.7589C177.341 27.5809 175.512 30.2881 175.779 33.1961L175.972 35.3042C175.995 35.5565 175.81 35.7796 175.557 35.8029C175.543 35.8043 175.529 35.8048 175.515 35.8048Z" fill="white"/>
<path d="M148.168 59.8519V51.0848C148.168 48.0584 150.676 45.6345 153.701 45.7381L214.147 47.809C216.829 47.9009 219.002 50.0184 219.162 52.6976L219.667 61.1215L148.168 59.8519Z" fill="url(#paint18_linear_81_1219)"/>
<path d="M170.709 49.0415H168.109C167.856 49.0415 167.65 48.8363 167.65 48.5828C167.65 48.3293 167.856 48.124 168.109 48.124H170.709C170.962 48.124 171.167 48.3291 171.167 48.5828C171.167 48.8363 170.962 49.0415 170.709 49.0415Z" fill="white"/>
<path d="M151.44 57.099C151.187 57.099 150.981 56.8939 150.981 56.6402V53.0936C150.981 50.3533 153.211 48.124 155.951 48.124H165.508C165.761 48.124 165.967 48.3291 165.967 48.5828C165.967 48.8363 165.761 49.0415 165.508 49.0415H155.951C153.717 49.0415 151.899 50.8594 151.899 53.0935V56.6401C151.899 56.8937 151.693 57.099 151.44 57.099Z" fill="white"/>
<path d="M235.672 117.119L221.442 105.516L207.213 117.119C208.348 106.205 208.877 94.0291 208.276 80.8155C208.085 76.6071 207.789 72.5312 207.411 68.5952C207.362 68.0896 207.529 67.5868 207.871 67.2109C208.213 66.835 208.698 66.6216 209.206 66.6216C217.459 66.6216 225.712 66.6216 233.966 66.6216C234.923 66.6216 235.714 67.3707 235.764 68.327C236.081 74.3722 236.286 80.6278 236.354 87.0816C236.466 97.6093 236.204 107.639 235.672 117.119Z" fill="url(#paint19_linear_81_1219)"/>
<path d="M123.541 62.0655C123.687 59.0296 126.191 56.643 129.23 56.643L234.931 56.6401C238.732 56.64 241.981 59.3751 242.629 63.1201L242.719 63.6369C243.429 67.7389 240.271 71.4908 236.108 71.4908H127.665C125.174 71.4908 123.188 69.4077 123.308 66.9192L123.541 62.0655Z" fill="url(#paint20_linear_81_1219)"/>
<path d="M308.069 354.676C302.532 354.931 297.172 354.771 293.594 354.587C296.852 352.268 304.358 347.222 310.64 345.213L314.951 344.955C314.951 344.955 316.413 347.177 316.934 352.262C316.219 353.154 314.131 354.397 308.069 354.676Z" fill="url(#paint21_linear_81_1219)"/>
<path d="M293.549 354.617C293.563 354.607 293.579 354.596 293.593 354.586C297.172 354.77 302.532 354.93 308.069 354.675C314.13 354.396 316.219 353.153 316.933 352.261C316.958 352.496 316.982 352.728 317.002 352.975C317.091 354.091 316.263 355.07 315.147 355.155C310.612 355.498 299.368 356.274 293.946 355.99C293.231 355.952 292.965 355.033 293.549 354.617Z" fill="url(#paint22_linear_81_1219)"/>
<path d="M347.674 353.193C348.079 350.594 348.729 346.836 349.232 345.875C350.02 344.368 352.718 345.875 352.718 345.875C352.718 345.875 354.612 346.758 355.484 348.23C356.04 349.169 357.577 351.839 358.618 353.652C358.738 353.86 358.787 354.082 358.781 354.297L347.977 354.675C347.713 354.251 347.589 353.734 347.674 353.193Z" fill="url(#paint23_linear_81_1219)"/>
<path d="M358.781 354.297C358.763 354.914 358.274 355.474 357.584 355.493L349.887 355.704C349.074 355.727 348.37 355.304 347.978 354.675L358.781 354.297Z" fill="url(#paint24_linear_81_1219)"/>
<path d="M346.848 337.235C346.941 337.546 348.337 344.314 348.948 347.284C349.117 348.105 349.857 348.682 350.694 348.64C351.151 348.617 351.683 348.576 352.24 348.503C353.23 348.375 353.984 347.549 354.021 346.552C354.12 343.95 354.169 338.955 353.214 337.019C351.896 334.349 346.848 337.235 346.848 337.235Z" fill="url(#paint25_linear_81_1219)"/>
<path d="M315.801 339.173C315.202 339.154 316.039 342.265 315.134 345.322C314.929 346.012 314.414 346.553 313.695 346.562C313.228 346.568 312.676 346.559 312.116 346.514C311.272 346.446 310.595 345.792 310.516 344.95L309.779 337.02L315.801 339.173Z" fill="url(#paint26_linear_81_1219)"/>
<path d="M299.053 254.879C299.32 256.18 308.753 311.2 309.325 339.67C309.335 340.147 309.686 340.547 310.159 340.613C311.356 340.78 313.688 340.995 315.95 340.575C316.259 340.518 316.493 340.263 316.512 339.949C316.842 334.643 319.493 289.786 316.246 268.669C316.246 268.669 343.067 325.117 347.132 340.682C347.231 341.06 347.579 341.315 347.97 341.294C349.119 341.234 351.507 341.027 353.404 340.329C354.084 340.079 354.471 339.364 354.299 338.66C352.028 329.345 336.11 265.169 325.301 251.029L299.053 254.879Z" fill="url(#paint27_linear_81_1219)"/>
<path d="M316.246 269.021C316.335 269.021 316.424 268.988 316.492 268.921C316.631 268.785 316.634 268.562 316.498 268.423L312.906 264.75C312.771 264.611 312.547 264.609 312.409 264.745C312.27 264.881 312.267 265.104 312.403 265.243L315.995 268.915C316.064 268.986 316.155 269.021 316.246 269.021Z" fill="url(#paint28_linear_81_1219)"/>
<path d="M289.98 183.878C298.005 182.672 313.753 180.944 324.025 183.958L322.911 215.707L285.694 211.695L282.537 207.208C282.537 207.208 284 184.777 289.98 183.878Z" fill="url(#paint29_linear_81_1219)"/>
<path d="M308.519 166.88C308.519 166.88 309.262 179.508 309.121 183.436C309.121 183.436 298.783 185.128 296.322 183.359L298.266 168.39L308.519 166.88Z" fill="url(#paint30_linear_81_1219)"/>
<path d="M298.466 154.232C298.466 154.232 294.303 161.539 293.646 165.539C292.989 169.538 291.841 172.056 296.406 173.367C300.971 174.678 305.14 172.783 307.695 169.003C307.695 169.003 311.687 163.185 311.213 160.575C310.739 157.966 298.466 154.232 298.466 154.232Z" fill="url(#paint31_linear_81_1219)"/>
<path d="M306.415 165.95L305.827 165.887C305.827 165.887 308.785 161.177 306.75 160.074C304.715 158.972 296.465 156.344 294.967 153.155C293.524 150.081 295.49 146.522 297.943 145.731C298.098 145.681 298.265 145.77 298.325 145.921L298.48 146.309C298.586 146.575 298.961 146.577 299.069 146.312C299.172 146.061 299.527 146.042 299.645 146.286C300.106 147.242 301.457 148.859 305.423 150.041C311.049 151.719 314.594 154.451 314.26 158.428C314.239 158.68 314.493 158.848 314.722 158.74C315.173 158.527 315.865 158.479 316.689 159.339C318.123 160.834 317.107 164.203 313.347 166.659C313.169 166.776 313.143 167.032 313.308 167.167C313.89 167.642 314.719 168.713 312.161 169.746C309.543 170.803 308.094 170.501 307.556 170.3C307.412 170.246 307.326 170.099 307.352 169.947L307.948 166.455C307.979 166.274 307.851 166.105 307.669 166.085L306.415 165.95Z" fill="url(#paint32_linear_81_1219)"/>
<path d="M306.191 166.67C306.191 166.67 307.992 161.91 310.04 163.52C312.087 165.129 308.309 168.884 306.525 168.877L306.191 166.67Z" fill="url(#paint33_linear_81_1219)"/>
<path d="M261.614 208.715L262.601 204.835C263.089 202.916 264.998 201.719 266.938 202.115L359.884 221.077C362.001 221.509 363.361 223.581 362.915 225.695L357.249 252.556L261.614 208.715Z" fill="url(#paint34_linear_81_1219)"/>
<path d="M252.802 255.833L259.792 205.589C259.937 204.55 260.937 203.855 261.962 204.082L357.424 225.281C359.462 225.734 360.74 227.76 360.271 229.793L352.259 264.523L252.802 255.833Z" fill="white"/>
<path d="M255.323 253.556L258.001 208.71C258.07 207.557 259.148 206.736 260.278 206.975L356.744 227.387C358.104 227.675 359.001 228.978 358.783 230.351L353.644 262.746L255.323 253.556Z" fill="white"/>
<path d="M248.335 264.156L254.408 215.582C254.711 213.161 256.993 211.497 259.39 211.95L358.309 230.62C360.315 230.999 361.635 232.932 361.256 234.938L352.901 279.202C352.507 281.291 350.548 282.707 348.442 282.425L252.547 269.619C249.881 269.263 248.002 266.825 248.335 264.156Z" fill="url(#paint35_linear_81_1219)"/>
<path d="M294.197 218.519C293.808 220.58 291.822 221.935 289.761 221.546L267.705 217.383C265.644 216.994 264.289 215.008 264.678 212.947C265.067 210.886 267.053 209.531 269.114 209.92L291.17 214.083C293.231 214.472 294.586 216.458 294.197 218.519Z" fill="url(#paint36_linear_81_1219)"/>
<path d="M313.646 197.801L324.026 183.957C324.026 183.957 340.707 201.677 343.908 224.168L333.502 229.243C330.272 221.669 324.328 211.409 313.646 197.801Z" fill="url(#paint37_linear_81_1219)"/>
<path d="M328.519 260.164C329.748 258.107 332.15 254.19 333.318 252.968C333.318 252.968 332.25 252.293 330.202 252.545C328.154 252.796 326.55 251.797 326.611 250.683L336.383 247.685C336.822 246.768 338.755 241.563 333.502 229.243L343.907 224.168C345.105 232.589 344.418 241.676 340.253 250.755C340.253 250.755 337.021 260.791 333.309 263.018C323.62 268.83 328.046 260.954 328.519 260.164Z" fill="url(#paint38_linear_81_1219)"/>
<path d="M80.0397 129.946L77.9895 132.542L77.9817 132.552C77.8327 132.741 77.5579 132.773 77.3692 132.624C77.18 132.475 77.1476 132.2 77.2971 132.011C77.2988 132.009 77.3018 132.005 77.3036 132.003L79.4302 129.438C79.5697 129.269 79.8199 129.246 79.9888 129.386C80.1546 129.523 80.1801 129.768 80.0471 129.937L80.0397 129.946Z" fill="white"/>
<path d="M73.1075 139.397L69.632 144.942L69.6152 144.968C69.4393 145.249 69.0688 145.334 68.7875 145.158C68.5063 144.982 68.4217 144.611 68.5975 144.33C68.5992 144.328 68.6022 144.323 68.604 144.321L72.2187 138.794C72.3811 138.546 72.7138 138.477 72.9621 138.639C73.2071 138.799 73.2779 139.126 73.1233 139.373L73.1075 139.397Z" fill="white"/>
<path d="M65.5965 152.317L62.809 158.229L62.7926 158.265C62.6198 158.632 62.1822 158.789 61.8156 158.616C61.4488 158.443 61.292 158.005 61.4648 157.639C61.4661 157.636 61.4691 157.63 61.4704 157.627L64.3953 151.698C64.5603 151.363 64.9651 151.226 65.2999 151.391C65.6303 151.554 65.7685 151.952 65.6122 152.284L65.5965 152.317Z" fill="white"/>
<path d="M59.7033 166.03L57.6799 172.235L57.6648 172.281C57.5162 172.737 57.0268 172.985 56.5716 172.837C56.1159 172.688 55.867 172.199 56.0157 171.743C56.0166 171.74 56.0196 171.732 56.0204 171.729L58.1845 165.471C58.3305 165.049 58.791 164.825 59.213 164.971C59.6302 165.116 59.8536 165.567 59.7176 165.986L59.7033 166.03Z" fill="white"/>
<path d="M55.5956 180.356L54.3887 186.76L54.3779 186.817C54.279 187.34 53.7744 187.685 53.2505 187.586C52.7265 187.488 52.3819 186.983 52.4808 186.459L52.4825 186.449L53.781 179.948C53.8816 179.444 54.3715 179.118 54.8748 179.218C55.3746 179.318 55.7003 179.802 55.6061 180.302L55.5956 180.356Z" fill="white"/>
<path d="M53.4035 195.077L53.0842 201.579L53.0807 201.642C53.0526 202.22 52.5615 202.665 51.9839 202.637C51.4063 202.608 50.9611 202.117 50.9896 201.54L50.9905 201.528L51.3874 194.905C51.4212 194.348 51.8997 193.923 52.457 193.957C53.0108 193.99 53.4333 194.463 53.4065 195.015L53.4035 195.077Z" fill="white"/>
<path d="M53.252 209.946L53.8287 216.428L53.8348 216.496C53.8901 217.117 53.4317 217.665 52.811 217.72C52.1903 217.775 51.6421 217.317 51.5868 216.696L51.5859 216.684L51.0688 210.063C51.0217 209.461 51.4714 208.936 52.0727 208.889C52.6701 208.842 53.1928 209.285 53.2459 209.88L53.252 209.946Z" fill="white"/>
<path d="M55.1396 224.686L56.5962 231.024L56.6122 231.094C56.7622 231.745 56.3552 232.395 55.7042 232.544C55.0528 232.694 54.4036 232.287 54.2536 231.636L54.251 231.623L52.8329 225.131C52.6947 224.498 53.0959 223.872 53.7293 223.734C54.3581 223.596 54.9797 223.991 55.1237 224.617L55.1396 224.686Z" fill="white"/>
<path d="M59.0142 239.026L61.2864 245.117L61.3119 245.186C61.5576 245.844 61.2228 246.577 60.5645 246.822C59.9066 247.068 59.174 246.733 58.9283 246.075L58.9261 246.069L56.6341 239.829C56.3948 239.178 56.7287 238.457 57.3792 238.218C58.0302 237.979 58.7515 238.313 58.9909 238.964L59.0142 239.026Z" fill="white"/>
<path d="M64.707 252.743L67.7442 258.492L67.7783 258.556C68.1131 259.19 67.8707 259.976 67.2362 260.311C66.6021 260.646 65.8159 260.404 65.4811 259.77L65.4789 259.765L62.3951 253.878C62.0656 253.248 62.3083 252.47 62.9381 252.14C63.5679 251.811 64.3458 252.054 64.6755 252.683L64.707 252.743Z" fill="white"/>
<path d="M72.1096 265.62L75.8457 270.941L75.8873 271C76.3081 271.6 76.1633 272.427 75.5641 272.848C74.9645 273.268 74.1373 273.124 73.7166 272.524L73.714 272.52L69.9149 267.067C69.4997 266.471 69.6463 265.652 70.2418 265.237C70.837 264.823 71.6561 264.969 72.0712 265.565L72.1096 265.62Z" fill="white"/>
<path d="M81.0653 277.468L85.436 282.279L85.4864 282.334C85.9888 282.887 85.9482 283.743 85.3948 284.245C84.8419 284.748 83.9862 284.707 83.4838 284.154L83.4803 284.15L79.0268 279.213C78.5309 278.664 78.5745 277.815 79.1244 277.319C79.6743 276.823 80.5222 276.867 81.0186 277.417L81.0653 277.468Z" fill="white"/>
<path d="M91.4376 288.086L96.3931 292.281L96.4567 292.334C97.038 292.827 97.1107 293.697 96.6182 294.279C96.1257 294.861 95.2554 294.933 94.6734 294.441L94.6695 294.437L89.6043 290.119C89.0298 289.629 88.9607 288.765 89.451 288.19C89.9413 287.616 90.8048 287.547 91.3797 288.037L91.4376 288.086Z" fill="white"/>
<path d="M103.119 297.203L105.867 298.916L107.24 299.772C107.701 300.053 108.149 300.356 108.621 300.616C109.301 300.991 109.549 301.847 109.173 302.528C108.798 303.208 107.942 303.456 107.261 303.08L107.256 303.078L107.219 303.057C106.733 302.786 106.272 302.474 105.799 302.183L104.386 301.295L101.563 299.519C100.91 299.109 100.714 298.248 101.125 297.596C101.535 296.944 102.395 296.748 103.048 297.158L103.119 297.203Z" fill="white"/>
<path d="M116.025 304.403C117.987 305.3 119.979 306.131 122 306.892C122.732 307.167 123.102 307.984 122.826 308.715C122.55 309.447 121.737 309.818 121.005 309.542C118.923 308.763 116.866 307.915 114.843 306.991C114.128 306.664 113.813 305.82 114.14 305.106C114.466 304.391 115.31 304.076 116.024 304.403L116.025 304.403Z" fill="white"/>
<path d="M129.914 309.49L136.207 311.051L136.292 311.072C137.041 311.257 137.497 312.014 137.311 312.763C137.126 313.511 136.372 313.968 135.624 313.783L129.154 312.195C128.401 312.011 127.94 311.25 128.125 310.497C128.31 309.744 129.07 309.283 129.823 309.468L129.827 309.468L129.914 309.49Z" fill="white"/>
<path d="M144.424 312.483L150.882 313.17L150.96 313.178C151.715 313.258 152.261 313.936 152.181 314.691C152.101 315.446 151.428 315.993 150.673 315.913L144.056 315.231C143.295 315.153 142.741 314.472 142.82 313.711C142.898 312.949 143.579 312.396 144.34 312.474L144.345 312.475L144.424 312.483Z" fill="white"/>
<path d="M159.23 313.542L165.734 313.437L165.802 313.436C166.529 313.424 167.129 314.005 167.141 314.733C167.152 315.457 166.577 316.054 165.854 316.072L159.214 316.229C158.472 316.247 157.857 315.66 157.839 314.918C157.822 314.177 158.409 313.561 159.15 313.544L159.16 313.543L159.23 313.542Z" fill="white"/>
<path d="M174.079 312.82L180.539 311.983L180.598 311.975C181.288 311.886 181.92 312.373 182.009 313.063C182.098 313.75 181.616 314.379 180.931 314.473L174.359 315.378C173.656 315.475 173.006 314.983 172.91 314.279C172.813 313.575 173.305 312.926 174.008 312.829L174.018 312.828L174.079 312.82Z" fill="white"/>
<path d="M188.786 310.497L195.138 309.018L195.186 309.006C195.805 308.862 196.422 309.247 196.567 309.865C196.709 310.478 196.333 311.09 195.724 311.242L189.296 312.839C188.654 312.999 188.004 312.608 187.844 311.965C187.684 311.323 188.076 310.673 188.718 310.513C188.722 310.512 188.726 310.512 188.729 310.511L188.786 310.497Z" fill="white"/>
<path d="M203.207 306.717L209.395 304.633L209.435 304.619C209.979 304.436 210.568 304.728 210.752 305.272C210.933 305.811 210.647 306.395 210.113 306.584L203.875 308.788C203.308 308.988 202.686 308.691 202.486 308.125C202.286 307.558 202.583 306.937 203.15 306.737C203.153 306.735 203.156 306.734 203.159 306.733L203.207 306.717Z" fill="white"/>
<path d="M217.227 301.59L223.21 298.954L223.243 298.94C223.712 298.733 224.26 298.946 224.467 299.415C224.672 299.88 224.464 300.423 224.004 300.634L217.994 303.388C217.503 303.613 216.923 303.397 216.698 302.907C216.474 302.416 216.689 301.836 217.18 301.611C217.183 301.61 217.186 301.608 217.188 301.607L217.227 301.59Z" fill="white"/>
<path d="M230.765 295.261L236.523 292.148L236.548 292.135C236.917 291.936 237.378 292.073 237.577 292.443C237.774 292.806 237.643 293.259 237.286 293.464L231.554 296.743C231.152 296.973 230.639 296.833 230.409 296.431C230.179 296.028 230.318 295.516 230.721 295.285C230.725 295.283 230.73 295.28 230.734 295.277L230.765 295.261Z" fill="white"/>
<path d="M243.757 287.844L249.249 284.27L249.266 284.259C249.534 284.084 249.893 284.16 250.067 284.428C250.239 284.692 250.168 285.045 249.91 285.222L244.47 288.952C244.17 289.158 243.76 289.081 243.554 288.781C243.348 288.481 243.425 288.071 243.725 287.866C243.728 287.863 243.732 287.861 243.735 287.858L243.757 287.844Z" fill="white"/>
<path d="M256.165 279.402L258.819 277.414L258.825 277.41C259 277.279 259.249 277.315 259.38 277.49C259.509 277.662 259.477 277.904 259.311 278.038L256.711 280.119C256.517 280.274 256.233 280.243 256.077 280.049C255.922 279.855 255.953 279.571 256.148 279.416C256.151 279.413 256.154 279.41 256.158 279.408L256.165 279.402Z" fill="white"/>
<defs>
<linearGradient id="paint0_linear_81_1219" x1="363.581" y1="391.064" x2="38.0563" y2="20.2124" gradientUnits="userSpaceOnUse">
<stop stop-color="#DAE3FE"/>
<stop offset="1" stop-color="#E9EFFD"/>
</linearGradient>
<linearGradient id="paint1_linear_81_1219" x1="242.322" y1="57.5327" x2="130.724" y2="166.098" gradientUnits="userSpaceOnUse">
<stop stop-color="#FDF53F"/>
<stop offset="1" stop-color="#D93C65"/>
</linearGradient>
<linearGradient id="paint2_linear_81_1219" x1="254.774" y1="70.3347" x2="143.179" y2="178.898" gradientUnits="userSpaceOnUse">
<stop stop-color="#FDF53F"/>
<stop offset="1" stop-color="#D93C65"/>
</linearGradient>
<linearGradient id="paint3_linear_81_1219" x1="223.023" y1="138.156" x2="136.723" y2="233.112" gradientUnits="userSpaceOnUse">
<stop stop-color="#A737D5"/>
<stop offset="1" stop-color="#EF497A"/>
</linearGradient>
<linearGradient id="paint4_linear_81_1219" x1="233.209" y1="147.412" x2="146.908" y2="242.368" gradientUnits="userSpaceOnUse">
<stop stop-color="#A737D5"/>
<stop offset="1" stop-color="#EF497A"/>
</linearGradient>
<linearGradient id="paint5_linear_81_1219" x1="237.352" y1="176.176" x2="129.297" y2="275.021" gradientUnits="userSpaceOnUse">
<stop stop-color="#A737D5"/>
<stop offset="1" stop-color="#EF497A"/>
</linearGradient>
<linearGradient id="paint6_linear_81_1219" x1="253.578" y1="165.925" x2="167.277" y2="260.881" gradientUnits="userSpaceOnUse">
<stop stop-color="#A737D5"/>
<stop offset="1" stop-color="#EF497A"/>
</linearGradient>
<linearGradient id="paint7_linear_81_1219" x1="132.334" y1="158.028" x2="90.7971" y2="279.432" gradientUnits="userSpaceOnUse">
<stop stop-color="#A737D5"/>
<stop offset="1" stop-color="#EF497A"/>
</linearGradient>
<linearGradient id="paint8_linear_81_1219" x1="187.331" y1="319.546" x2="171.921" y2="-136.599" gradientUnits="userSpaceOnUse">
<stop stop-color="#09005D"/>
<stop offset="1" stop-color="#1A0F91"/>
</linearGradient>
<linearGradient id="paint9_linear_81_1219" x1="132.356" y1="79.2599" x2="183.724" y2="168.64" gradientUnits="userSpaceOnUse">
<stop stop-color="#FF928E"/>
<stop offset="1" stop-color="#FE7062"/>
</linearGradient>
<linearGradient id="paint10_linear_81_1219" x1="120.358" y1="86.155" x2="171.726" y2="175.535" gradientUnits="userSpaceOnUse">
<stop stop-color="#FF928E"/>
<stop offset="1" stop-color="#FE7062"/>
</linearGradient>
<linearGradient id="paint11_linear_81_1219" x1="96.9784" y1="163.532" x2="258.274" y2="292.465" gradientUnits="userSpaceOnUse">
<stop stop-color="#4F52FF"/>
<stop offset="1" stop-color="#4042E2"/>
</linearGradient>
<linearGradient id="paint12_linear_81_1219" x1="124.48" y1="129.127" x2="285.776" y2="258.06" gradientUnits="userSpaceOnUse">
<stop stop-color="#4F52FF"/>
<stop offset="1" stop-color="#4042E2"/>
</linearGradient>
<linearGradient id="paint13_linear_81_1219" x1="158.269" y1="164.134" x2="97.2569" y2="268.267" gradientUnits="userSpaceOnUse">
<stop stop-color="#4F52FF"/>
<stop offset="1" stop-color="#4042E2"/>
</linearGradient>
<linearGradient id="paint14_linear_81_1219" x1="169.439" y1="170.677" x2="108.426" y2="274.811" gradientUnits="userSpaceOnUse">
<stop stop-color="#4F52FF"/>
<stop offset="1" stop-color="#4042E2"/>
</linearGradient>
<linearGradient id="paint15_linear_81_1219" x1="178.83" y1="196.348" x2="98.5511" y2="308.28" gradientUnits="userSpaceOnUse">
<stop stop-color="#4F52FF"/>
<stop offset="1" stop-color="#4042E2"/>
</linearGradient>
<linearGradient id="paint16_linear_81_1219" x1="191.778" y1="183.767" x2="130.766" y2="287.9" gradientUnits="userSpaceOnUse">
<stop stop-color="#4F52FF"/>
<stop offset="1" stop-color="#4042E2"/>
</linearGradient>
<linearGradient id="paint17_linear_81_1219" x1="211.478" y1="1.40011" x2="134.411" y2="102.781" gradientUnits="userSpaceOnUse">
<stop stop-color="#2B3582"/>
<stop offset="1" stop-color="#150E42"/>
</linearGradient>
<linearGradient id="paint18_linear_81_1219" x1="219.931" y1="7.82654" x2="142.863" y2="109.208" gradientUnits="userSpaceOnUse">
<stop stop-color="#2B3582"/>
<stop offset="1" stop-color="#150E42"/>
</linearGradient>
<linearGradient id="paint19_linear_81_1219" x1="198.448" y1="125.449" x2="265.798" y2="29.2994" gradientUnits="userSpaceOnUse">
<stop stop-color="#FF928E"/>
<stop offset="1" stop-color="#FE7062"/>
</linearGradient>
<linearGradient id="paint20_linear_81_1219" x1="210.222" y1="14.0276" x2="157.008" y2="111.739" gradientUnits="userSpaceOnUse">
<stop stop-color="#4F52FF"/>
<stop offset="1" stop-color="#4042E2"/>
</linearGradient>
<linearGradient id="paint21_linear_81_1219" x1="317.009" y1="349.882" x2="293.23" y2="349.882" gradientUnits="userSpaceOnUse">
<stop stop-color="#090056"/>
<stop offset="1" stop-color="#020039"/>
</linearGradient>
<linearGradient id="paint22_linear_81_1219" x1="275.22" y1="319.626" x2="324.762" y2="376.473" gradientUnits="userSpaceOnUse">
<stop stop-color="#12372A"/>
<stop offset="1" stop-color="#41B06E"/>
</linearGradient>
<linearGradient id="paint23_linear_81_1219" x1="358.782" y1="349.94" x2="347.647" y2="349.94" gradientUnits="userSpaceOnUse">
<stop stop-color="#090056"/>
<stop offset="1" stop-color="#020039"/>
</linearGradient>
<linearGradient id="paint24_linear_81_1219" x1="302.365" y1="295.969" x2="351.907" y2="352.816" gradientUnits="userSpaceOnUse">
<stop stop-color="#090056"/>
<stop offset="1" stop-color="#020039"/>
</linearGradient>
<linearGradient id="paint25_linear_81_1219" x1="354.072" y1="342.264" x2="346.848" y2="342.264" gradientUnits="userSpaceOnUse">
<stop stop-color="#FEBBBA"/>
<stop offset="1" stop-color="#FF928E"/>
</linearGradient>
<linearGradient id="paint26_linear_81_1219" x1="315.801" y1="341.792" x2="309.779" y2="341.792" gradientUnits="userSpaceOnUse">
<stop stop-color="#FEBBBA"/>
<stop offset="1" stop-color="#FF928E"/>
</linearGradient>
<linearGradient id="paint27_linear_81_1219" x1="469.766" y1="372.44" x2="333.128" y2="303.607" gradientUnits="userSpaceOnUse">
<stop stop-color="#090056"/>
<stop offset="1" stop-color="#020039"/>
</linearGradient>
<linearGradient id="paint28_linear_81_1219" x1="300.828" y1="249.221" x2="325.472" y2="281.082" gradientUnits="userSpaceOnUse">
<stop stop-color="#CB236D"/>
<stop offset="1" stop-color="#4C246D"/>
</linearGradient>
<linearGradient id="paint29_linear_81_1219" x1="277.367" y1="146.92" x2="364.718" y2="310.951" gradientUnits="userSpaceOnUse">
<stop stop-color="#4F52FF"/>
<stop offset="1" stop-color="#4042E2"/>
</linearGradient>
<linearGradient id="paint30_linear_81_1219" x1="303.232" y1="190.199" x2="302.29" y2="172.63" gradientUnits="userSpaceOnUse">
<stop stop-color="#FEBBBA"/>
<stop offset="1" stop-color="#FF928E"/>
</linearGradient>
<linearGradient id="paint31_linear_81_1219" x1="297.04" y1="160.905" x2="314.547" y2="177.556" gradientUnits="userSpaceOnUse">
<stop stop-color="#FEBBBA"/>
<stop offset="1" stop-color="#FF928E"/>
</linearGradient>
<linearGradient id="paint32_linear_81_1219" x1="292.231" y1="155.141" x2="340.175" y2="168.155" gradientUnits="userSpaceOnUse">
<stop stop-color="#090056"/>
<stop offset="1" stop-color="#020039"/>
</linearGradient>
<linearGradient id="paint33_linear_81_1219" x1="299.739" y1="158.068" x2="317.246" y2="174.718" gradientUnits="userSpaceOnUse">
<stop stop-color="#FEBBBA"/>
<stop offset="1" stop-color="#FF928E"/>
</linearGradient>
<linearGradient id="paint34_linear_81_1219" x1="264.631" y1="163.131" x2="401.474" y2="315.04" gradientUnits="userSpaceOnUse">
<stop stop-color="#FF928E"/>
<stop offset="1" stop-color="#FE7062"/>
</linearGradient>
<linearGradient id="paint35_linear_81_1219" x1="256.62" y1="185.19" x2="339.493" y2="296.145" gradientUnits="userSpaceOnUse">
<stop stop-color="#FF928E"/>
<stop offset="1" stop-color="#FE7062"/>
</linearGradient>
<linearGradient id="paint36_linear_81_1219" x1="256.622" y1="185.187" x2="339.495" y2="296.142" gradientUnits="userSpaceOnUse">
<stop stop-color="#FF928E"/>
<stop offset="1" stop-color="#FE7062"/>
</linearGradient>
<linearGradient id="paint37_linear_81_1219" x1="292.531" y1="138.844" x2="379.882" y2="302.875" gradientUnits="userSpaceOnUse">
<stop stop-color="#4F52FF"/>
<stop offset="1" stop-color="#4042E2"/>
</linearGradient>
<linearGradient id="paint38_linear_81_1219" x1="327.154" y1="255.602" x2="356.092" y2="213.994" gradientUnits="userSpaceOnUse">
<stop stop-color="#FEBBBA"/>
<stop offset="1" stop-color="#FF928E"/>
</linearGradient>
</defs>
</svg>
