<svg width="331" height="331" viewBox="0 0 331 331" fill="none" xmlns="http://www.w3.org/2000/svg">
<path d="M163.515 320.872C249.283 320.872 318.813 279.259 318.813 227.928C318.813 176.596 249.283 134.983 163.515 134.983C77.746 134.983 8.2168 176.596 8.2168 227.928C8.2168 279.259 77.746 320.872 163.515 320.872Z" fill="#F5F5F5"/>
<path d="M191.014 186.517L188.203 184.894C186.296 183.793 183.205 183.793 181.298 184.894L32.7482 270.659C30.8496 271.755 30.8496 273.549 32.7482 274.646L35.559 276.269C37.4577 277.365 40.5651 277.365 42.4637 276.269L87.5909 250.214L107.671 261.808C112.846 264.796 121.314 264.796 126.489 261.808L157.624 243.832C162.043 241.281 162.043 237.105 157.624 234.554L136.17 222.167L191.014 190.503C192.913 189.407 192.913 187.613 191.014 186.517Z" fill="#E0E0E0"/>
<path d="M245.073 291.831C260.574 300.781 285.706 300.781 301.206 291.831C316.707 282.882 316.707 268.373 301.206 259.423C285.706 250.474 260.574 250.474 245.073 259.423C229.573 268.373 229.573 282.882 245.073 291.831Z" fill="#E0E0E0"/>
<path d="M93.2256 57.2377L95.72 55.729C95.6988 55.5628 95.6843 55.3913 95.6843 55.2066V53.9727C95.6843 51.7768 97.2261 49.107 99.1273 48.0094C99.8972 47.5645 100.606 47.4513 101.18 47.6128C101.491 44.4922 103.657 40.9624 106.288 39.4438C109.133 37.8013 111.439 39.1326 111.439 42.4175V44.2631C111.439 45.1138 111.282 46.0121 111.003 46.9052L114.541 44.8622C115.595 44.2532 116.451 44.747 116.451 45.9651C116.451 47.1832 115.595 48.6641 114.541 49.2731L93.2263 61.6479C92.1717 62.2569 91.3164 61.7631 91.3164 60.545C91.3164 59.3276 92.1711 57.8467 93.2256 57.2377Z" fill="#EBEBEB"/>
<path d="M71.8517 52.2045L69.2367 53.2101V47.45C69.2367 42.8842 65.5944 41.7893 61.6403 44.0718C57.6862 46.3551 54.4801 51.9073 54.4801 56.4731V57.3098C53.5831 56.9517 52.4246 57.0907 51.1575 57.8222C48.3116 59.4653 46.0052 63.4605 46.0052 66.7466V67.1266L42.3595 69.2318C40.4854 70.3135 38.9668 72.945 38.9668 75.1084C38.9668 77.2725 40.4861 78.1489 42.3595 77.0672L71.8517 60.0399C73.7258 58.9576 75.2451 56.3268 75.2451 54.1627C75.2451 51.9993 73.7258 51.1228 71.8517 52.2045Z" fill="#EBEBEB"/>
<path d="M126.849 257.19L152.603 242.299C155.258 240.766 156.585 238.758 156.586 236.749C156.586 234.74 156.597 233.166 156.597 233.166L132.363 219.411C130.947 218.594 129.799 216.606 129.799 214.971V183.218L84.8158 209.212L84.8145 240.965C84.8145 242.599 85.9617 244.588 87.3777 245.405L107.622 257.19C112.931 260.255 121.54 260.255 126.849 257.19Z" fill="#263238"/>
<path opacity="0.15" d="M95.6147 246.586V250.153L87.3702 245.402C85.9641 244.588 84.8096 242.604 84.8096 240.961V209.212L93.3798 204.268C93.5572 206.444 93.7492 208.694 93.9273 210.885L87.9183 214.363V239.17C87.9183 240.813 89.0583 242.796 90.4796 243.61L95.6147 246.586Z" fill="black"/>
<path d="M87.9167 239.177C87.9167 240.812 89.0646 242.8 90.4799 243.617L107.617 253.609C112.927 256.675 121.536 256.675 126.846 253.611L152.613 238.721C157.924 235.657 157.924 230.687 152.615 227.622L135.465 217.623C134.049 216.805 132.901 214.817 132.901 213.182V188.372L87.916 214.365V239.177H87.9167Z" fill="#455A64"/>
<path opacity="0.3" d="M140.688 220.641V220.637L135.466 217.622C134.05 216.805 132.902 214.817 132.902 213.182V188.371L87.917 214.365V239.176C87.917 240.811 89.0649 242.799 90.4809 243.617L95.6127 246.579L140.688 220.641Z" fill="black"/>
<path d="M34.3304 258.756C35.9907 259.715 38.7717 259.663 40.5412 258.641C62.6573 245.873 166.43 185.961 188.542 173.195C190.312 172.173 191.745 169.689 191.745 167.645V32.8068C191.745 30.7632 190.4 28.329 188.739 27.3711C187.079 26.4126 184.299 26.4642 182.528 27.4857L34.5309 112.932C32.7614 113.954 31.3262 116.439 31.3262 118.483L31.3242 253.32C31.3242 255.364 32.6701 257.797 34.3304 258.756Z" fill="#455A64"/>
<path d="M40.5417 258.637L188.541 173.191C190.311 172.169 191.746 169.684 191.746 167.64V32.8019C191.746 30.7583 190.311 29.9302 188.541 30.9516L40.5443 116.399C38.7741 117.421 37.3396 119.905 37.3396 121.95L37.3369 256.787C37.3369 258.831 38.7721 259.659 40.5417 258.637Z" fill="#37474F"/>
<path d="M41.5723 235.743L41.5743 123.378C41.5743 122.122 42.4567 120.593 43.5444 119.965L185.535 37.9854C186.624 37.3572 187.506 37.8663 187.506 39.1234L187.512 151.491C187.512 152.748 186.63 154.276 185.541 154.905L43.543 236.881C42.4547 237.51 41.5723 237 41.5723 235.743Z" fill="#41B06E"/>
<path opacity="0.7" d="M41.5723 235.743L41.5743 123.378C41.5743 122.122 42.4567 120.593 43.5444 119.965L185.535 37.9854C186.624 37.3572 187.506 37.8663 187.506 39.1234L187.512 151.491C187.512 152.748 186.63 154.276 185.541 154.905L43.543 236.881C42.4547 237.51 41.5723 237 41.5723 235.743Z" fill="white"/>
<path d="M32.2693 115.316L38.2789 118.78C37.7016 119.786 37.3461 120.926 37.3316 121.947V241.829L37.3362 256.787C37.3362 258.652 38.598 259.694 40.5396 258.642C38.5993 259.77 35.8388 259.63 34.3288 258.756C32.6704 257.794 31.3213 255.765 31.3213 253.708V238.35V118.483C31.3226 117.461 31.6927 116.322 32.2693 115.316Z" fill="#263238"/>
<path d="M111.736 209.017L118.984 204.857C119.633 204.482 120.159 204.748 120.159 205.451C120.159 206.154 119.633 207.028 118.984 207.403L111.736 211.564C111.087 211.938 110.561 211.672 110.561 210.969C110.561 210.266 111.087 209.392 111.736 209.017Z" fill="#41B06E"/>
<path d="M76.0698 279.887L81.1255 276.966C81.1255 276.966 84.1349 264.463 82.9354 253.212C81.2492 237.394 70.8373 231.442 66.8779 232.806C62.9185 234.171 61.7719 238.773 68.323 248.194C72.1885 253.753 76.937 265.33 76.0698 279.887Z" fill="#41B06E"/>
<g opacity="0.3">
<path d="M76.0698 279.887L81.1255 276.966C81.1255 276.966 84.1349 264.463 82.9354 253.212C81.2492 237.394 70.8373 231.442 66.8779 232.806C62.9185 234.171 61.7719 238.773 68.323 248.194C72.1885 253.753 76.937 265.33 76.0698 279.887Z" fill="white"/>
</g>
<path d="M78.1647 273.744C78.1482 273.743 78.1323 273.741 78.1164 273.738C77.9264 273.701 77.8013 273.518 77.8371 273.328C80.6082 258.738 75.5121 242.344 69.2006 235.522C69.0695 235.38 69.0775 235.158 69.2198 235.027C69.3621 234.897 69.5839 234.904 69.715 235.046C76.1417 241.992 81.3377 258.654 78.5255 273.458C78.4931 273.633 78.3362 273.752 78.1647 273.744Z" fill="white"/>
<path d="M63.3438 287.234C62.5885 287.619 60.58 285.899 60.0199 285.481C59.0614 284.765 58.3054 283.782 57.8247 282.689C57.266 281.418 57.1766 280.08 57.4401 278.717C57.5772 278.01 57.8115 277.327 58.0445 276.646C58.2736 275.977 58.5026 275.309 58.7323 274.641C58.9588 273.981 59.1878 273.299 59.1342 272.603C59.0263 271.202 57.84 270.165 56.7596 269.267C55.5647 268.275 54.3334 266.982 54.4247 265.307C54.4955 264.014 55.2251 262.847 56.0777 261.873C56.9304 260.898 57.926 260.05 58.7039 259.016C59.2639 258.271 59.7161 257.386 59.6783 256.454C59.6545 255.876 59.4433 255.321 59.1931 254.799C58.6562 253.679 57.926 252.64 57.5772 251.447C57.2283 250.255 57.36 248.8 58.3166 248.007C59.1024 247.356 60.2225 247.317 61.236 247.435C62.1734 247.545 63.0704 248.015 63.8701 248.514C66.4552 250.128 67.815 253.355 70.5802 254.635C71.6466 255.129 72.8349 255.285 73.9544 255.643C75.0738 256 76.2019 256.638 76.6745 257.714C77.6066 259.836 75.5551 262.29 76.1727 264.523C76.7196 266.5 78.5712 267.339 79.5436 269.144C79.9693 269.934 80.0315 270.825 79.9117 271.714C79.7085 273.219 79.4318 274.316 78.6215 275.961C77.9522 277.319 76.0675 279.887 76.0675 279.887C76.0675 279.887 63.4597 287.174 63.3438 287.234Z" fill="#41B06E"/>
<g opacity="0.65">
<path d="M63.3438 287.234C62.5885 287.619 60.58 285.899 60.0199 285.481C59.0614 284.765 58.3054 283.782 57.8247 282.689C57.266 281.418 57.1766 280.08 57.4401 278.717C57.5772 278.01 57.8115 277.327 58.0445 276.646C58.2736 275.977 58.5026 275.309 58.7323 274.641C58.9588 273.981 59.1878 273.299 59.1342 272.603C59.0263 271.202 57.84 270.165 56.7596 269.267C55.5647 268.275 54.3334 266.982 54.4247 265.307C54.4955 264.014 55.2251 262.847 56.0777 261.873C56.9304 260.898 57.926 260.05 58.7039 259.016C59.2639 258.271 59.7161 257.386 59.6783 256.454C59.6545 255.876 59.4433 255.321 59.1931 254.799C58.6562 253.679 57.926 252.64 57.5772 251.447C57.2283 250.255 57.36 248.8 58.3166 248.007C59.1024 247.356 60.2225 247.317 61.236 247.435C62.1734 247.545 63.0704 248.015 63.8701 248.514C66.4552 250.128 67.815 253.355 70.5802 254.635C71.6466 255.129 72.8349 255.285 73.9544 255.643C75.0738 256 76.2019 256.638 76.6745 257.714C77.6066 259.836 75.5551 262.29 76.1727 264.523C76.7196 266.5 78.5712 267.339 79.5436 269.144C79.9693 269.934 80.0315 270.825 79.9117 271.714C79.7085 273.219 79.4318 274.316 78.6215 275.961C77.9522 277.319 76.0675 279.887 76.0675 279.887C76.0675 279.887 63.4597 287.174 63.3438 287.234Z" fill="white"/>
</g>
<path d="M70.6623 283.42C70.6577 283.42 70.6531 283.419 70.6531 283.419C70.4657 283.402 70.332 283.24 70.3485 283.058C71.5593 269.935 66.0952 255.105 61.8021 250.66C61.675 250.528 61.6783 250.318 61.8101 250.191C61.9425 250.063 62.1517 250.067 62.2794 250.198C66.6586 254.733 72.2366 269.811 71.0092 283.118C70.9927 283.297 70.8384 283.428 70.6623 283.42Z" fill="white"/>
<path d="M69.358 267.239C69.3256 267.237 69.2931 267.231 69.2607 267.219C65.102 265.7 59.8477 265.204 59.7954 265.199C59.6127 265.182 59.479 265.02 59.4955 264.838C59.5127 264.656 59.6584 264.519 59.8563 264.538C59.9099 264.544 65.247 265.047 69.4884 266.597C69.6605 266.659 69.7492 266.849 69.6864 267.022C69.6347 267.161 69.4997 267.246 69.358 267.239Z" fill="white"/>
<path d="M248.286 36.0316C248.274 35.9025 248.261 35.786 248.222 35.6688C248.235 35.643 248.221 35.6172 248.208 35.5914C248.196 35.4616 248.157 35.3451 248.118 35.2418C248.066 35.0604 247.988 34.8916 247.885 34.7361C247.859 34.6586 247.807 34.5937 247.755 34.5289C247.716 34.4772 247.691 34.4256 247.638 34.3865C247.56 34.2833 247.483 34.2051 247.379 34.1277C247.379 34.1277 247.367 34.1151 247.354 34.1019C247.25 34.0244 247.133 33.9595 247.017 33.9072C246.304 33.5703 245.384 33.661 244.361 34.2442L109.653 112.021C107.476 113.277 105.702 116.348 105.702 120.745L105.7 244.889C105.7 246.979 107.965 248.283 109.772 247.233L244.36 169.451C246.537 168.195 248.312 165.136 248.312 162.61V36.5241C248.312 36.356 248.3 36.1872 248.286 36.0316Z" fill="#FAFAFA"/>
<path d="M246.113 34.3494C246.343 34.3494 246.556 34.3944 246.758 34.4898C246.825 34.5196 246.887 34.554 246.939 34.5891L246.96 34.6096L246.997 34.6374C247.052 34.6791 247.088 34.7142 247.129 34.7698L247.184 34.8419L247.209 34.8611C247.221 34.8784 247.235 34.8976 247.258 34.9287C247.269 34.9419 247.28 34.9552 247.29 34.9691L247.307 35.0194L247.355 35.0909C247.422 35.1921 247.471 35.2987 247.505 35.4166L247.512 35.4424L247.522 35.4675C247.535 35.5026 247.548 35.5384 247.558 35.5728L247.533 35.6211L247.617 35.8727C247.634 35.9243 247.643 36.0011 247.652 36.0858C247.663 36.2249 247.675 36.3751 247.675 36.5254V162.611C247.675 164.883 246.011 167.763 244.042 168.9L109.452 246.682C109.127 246.871 108.778 246.967 108.416 246.967C107.417 246.967 106.338 246.172 106.338 244.889L106.338 120.746C106.338 116.267 108.215 113.588 109.971 112.573L244.676 34.7976C245.199 34.4997 245.682 34.3494 246.113 34.3494ZM246.113 33.7119C245.585 33.7119 244.992 33.884 244.361 34.2442L109.653 112.021C107.476 113.277 105.702 116.348 105.702 120.745L105.7 244.889C105.7 246.471 107 247.603 108.416 247.603C108.869 247.603 109.335 247.488 109.773 247.233L244.361 169.45C246.537 168.194 248.312 165.135 248.312 162.609V36.5241C248.312 36.3559 248.3 36.1871 248.286 36.0316C248.274 35.9025 248.261 35.7853 248.222 35.6688C248.235 35.643 248.221 35.6172 248.208 35.5913C248.196 35.4616 248.157 35.3451 248.118 35.2418C248.066 35.0604 247.988 34.8916 247.885 34.736C247.859 34.6586 247.807 34.5937 247.755 34.5288C247.716 34.4772 247.691 34.4249 247.638 34.3865C247.561 34.2832 247.483 34.2051 247.379 34.1276C247.379 34.1276 247.367 34.1151 247.354 34.1018C247.25 34.0244 247.133 33.9595 247.017 33.9072C246.744 33.7781 246.441 33.7119 246.113 33.7119Z" fill="#E0E0E0"/>
<path d="M144.633 109.544L234.506 57.6562V61.8229L144.633 113.711C143.787 114.2 143.095 113.8 143.095 112.823V112.21C143.095 111.233 143.787 110.033 144.633 109.544Z" fill="#E0E0E0"/>
<path d="M241.722 53.4884L236.28 56.6302V60.7969L241.722 57.655C242.572 57.1645 243.26 55.9716 243.26 54.9898V54.3768C243.26 53.3957 242.572 52.9978 241.722 53.4884Z" fill="#E0E0E0"/>
<path d="M239.075 58.1218C238.966 58.1218 238.862 58.0947 238.769 58.0404C238.523 57.8994 238.383 57.5883 238.383 57.1877C238.383 56.4754 238.807 55.6731 239.347 55.36C239.612 55.2077 239.874 55.1912 240.085 55.3136C240.33 55.4546 240.471 55.7658 240.471 56.1669C240.471 56.8799 240.048 57.6829 239.508 57.9947C239.36 58.0788 239.213 58.1218 239.075 58.1218ZM239.778 55.5519C239.68 55.5519 239.582 55.5937 239.507 55.6367C239.071 55.8882 238.703 56.5986 238.703 57.1864C238.703 57.4658 238.788 57.6809 238.928 57.7624C239.068 57.8425 239.233 57.7816 239.347 57.7154C239.782 57.4645 240.15 56.7541 240.15 56.1656C240.15 55.8863 240.065 55.6711 239.925 55.5897C239.878 55.5632 239.828 55.5519 239.778 55.5519Z" fill="#FAFAFA"/>
<path d="M240.763 57.8458C240.729 57.8458 240.695 57.8352 240.666 57.8133L239.956 57.2764C239.885 57.2235 239.872 57.1229 239.925 57.052C239.979 56.9812 240.079 56.9673 240.15 57.0209L240.859 57.5578C240.93 57.6108 240.944 57.7114 240.89 57.7822C240.859 57.8239 240.811 57.8458 240.763 57.8458Z" fill="#FAFAFA"/>
<path d="M109.653 112.021C107.476 113.277 105.702 116.348 105.702 120.745L105.7 244.889C105.7 246.979 107.965 248.283 109.772 247.234L139.671 229.954V106.729L139.715 94.6631L109.653 112.021Z" fill="#F0F0F0"/>
<path d="M139.074 95.77L139.034 106.73V229.587L109.452 246.683C109.127 246.871 108.778 246.967 108.416 246.967C107.417 246.967 106.338 246.173 106.338 244.89L106.338 120.747C106.338 116.267 108.215 113.588 109.971 112.574L139.074 95.77ZM139.716 94.6631L109.653 112.021C107.476 113.277 105.702 116.348 105.702 120.745L105.7 244.889C105.7 246.472 107 247.604 108.416 247.604C108.869 247.604 109.335 247.488 109.773 247.233L139.671 229.953V106.729L139.716 94.6631Z" fill="#E0E0E0"/>
<path d="M117.593 126.712L133.386 117.599C133.942 117.278 134.392 117.538 134.392 118.18L134.392 119.49C134.392 120.132 133.941 120.913 133.386 121.234L117.592 130.347C117.037 130.668 116.586 130.409 116.586 129.766V128.456C116.586 127.814 117.037 127.033 117.593 126.712Z" fill="#E0E0E0"/>
<path d="M113.437 130.273V131.584C113.437 132.226 112.986 133.006 112.43 133.327L112.029 133.574C111.473 133.895 111.022 133.635 111.022 132.993V131.683C111.022 131.041 111.473 130.26 112.029 129.939L112.431 129.692C112.986 129.371 113.437 129.631 113.437 130.273Z" fill="#41B06E"/>
<path d="M117.593 133.955L133.386 124.842C133.942 124.521 134.392 124.781 134.392 125.422L134.392 126.732C134.392 127.374 133.941 128.156 133.386 128.477L117.592 137.59C117.037 137.911 116.586 137.651 116.586 137.009V135.699C116.586 135.057 117.037 134.276 117.593 133.955Z" fill="#E0E0E0"/>
<path d="M113.437 137.516V138.826C113.437 139.468 112.986 140.248 112.43 140.57L112.029 140.816C111.473 141.138 111.022 140.877 111.022 140.235V138.925C111.022 138.283 111.473 137.502 112.029 137.181L112.431 136.934C112.986 136.614 113.437 136.874 113.437 137.516Z" fill="#41B06E"/>
<path d="M117.593 141.197L133.386 132.084C133.942 131.763 134.392 132.023 134.392 132.664L134.392 133.975C134.392 134.617 133.941 135.397 133.386 135.719L117.592 144.832C117.037 145.153 116.586 144.894 116.586 144.251V142.941C116.586 142.3 117.037 141.519 117.593 141.197Z" fill="#E0E0E0"/>
<path d="M113.437 144.758V146.069C113.437 146.711 112.986 147.491 112.43 147.812L112.029 148.059C111.473 148.38 111.022 148.12 111.022 147.478V146.168C111.022 145.526 111.473 144.745 112.029 144.424L112.431 144.177C112.986 143.857 113.437 144.117 113.437 144.758Z" fill="#41B06E"/>
<path d="M117.593 165.214L133.386 156.101C133.942 155.78 134.392 156.04 134.392 156.682L134.392 157.992C134.392 158.634 133.941 159.415 133.386 159.736L117.592 168.849C117.037 169.17 116.586 168.911 116.586 168.269V166.958C116.586 166.317 117.037 165.536 117.593 165.214Z" fill="#E0E0E0"/>
<path d="M113.437 168.776V170.086C113.437 170.728 112.986 171.508 112.43 171.829L112.029 172.076C111.473 172.397 111.022 172.137 111.022 171.494V170.184C111.022 169.542 111.473 168.762 112.029 168.441L112.431 168.194C112.986 167.873 113.437 168.134 113.437 168.776Z" fill="#41B06E"/>
<path d="M117.593 171.629L133.386 162.516C133.942 162.195 134.392 162.455 134.392 163.097L134.392 164.407C134.392 165.049 133.941 165.829 133.386 166.151L117.592 175.264C117.037 175.585 116.586 175.325 116.586 174.684V173.373C116.586 172.732 117.037 171.951 117.593 171.629Z" fill="#E0E0E0"/>
<path d="M113.437 175.191V176.501C113.437 177.143 112.986 177.923 112.43 178.244L112.029 178.491C111.473 178.812 111.022 178.552 111.022 177.91V176.6C111.022 175.958 111.473 175.177 112.029 174.856L112.431 174.609C112.986 174.289 113.437 174.549 113.437 175.191Z" fill="#41B06E"/>
<path d="M117.593 178.045L133.386 168.931C133.942 168.61 134.392 168.87 134.392 169.512L134.392 170.822C134.392 171.464 133.941 172.245 133.386 172.566L117.592 181.68C117.037 182.001 116.586 181.741 116.586 181.098V179.789C116.586 179.147 117.037 178.366 117.593 178.045Z" fill="#E0E0E0"/>
<path d="M113.437 181.605V182.915C113.437 183.558 112.986 184.338 112.43 184.659L112.029 184.906C111.473 185.227 111.022 184.967 111.022 184.325V183.015C111.022 182.373 111.473 181.592 112.029 181.271L112.431 181.024C112.986 180.703 113.437 180.964 113.437 181.605Z" fill="#41B06E"/>
<path d="M117.319 148.694V150.954L119.276 148.695L117.319 148.694Z" fill="#41B06E"/>
<path d="M120.467 148.229C120.467 148.648 120.767 148.815 121.139 148.602L133.721 141.357C134.091 141.143 134.392 140.625 134.392 140.2C134.392 139.775 134.091 139.604 133.721 139.818L121.138 147.082C120.767 147.296 120.467 147.81 120.467 148.229Z" fill="#E0E0E0"/>
<path d="M117.319 152.329V154.589L119.276 152.329H117.319Z" fill="#41B06E"/>
<path d="M120.467 151.863C120.467 152.283 120.767 152.449 121.139 152.236L133.721 144.991C134.091 144.778 134.392 144.259 134.392 143.834C134.392 143.409 134.091 143.238 133.721 143.452L121.138 150.716C120.767 150.93 120.467 151.444 120.467 151.863Z" fill="#E0E0E0"/>
<path d="M117.319 155.962V158.222L119.276 155.962H117.319Z" fill="#41B06E"/>
<path d="M120.467 155.498C120.467 155.917 120.767 156.083 121.139 155.87L133.721 148.625C134.091 148.412 134.392 147.894 134.392 147.469C134.392 147.044 134.091 146.872 133.721 147.086L121.138 154.351C120.767 154.565 120.467 155.078 120.467 155.498Z" fill="#E0E0E0"/>
<path d="M117.319 159.596V161.856L119.276 159.596H117.319Z" fill="#41B06E"/>
<path d="M120.467 159.13C120.467 159.549 120.767 159.716 121.139 159.503L133.721 152.258C134.091 152.044 134.392 151.527 134.392 151.102C134.392 150.677 134.091 150.505 133.721 150.719L121.138 157.984C120.767 158.198 120.467 158.711 120.467 159.13Z" fill="#E0E0E0"/>
<path d="M247.017 33.9063C246.305 33.5694 245.385 33.6601 244.361 34.2433L109.654 112.02C107.477 113.277 105.702 116.348 105.702 118.861V126.519L100.661 123.564V115.998C100.661 113.484 102.423 110.426 104.6 109.169L239.321 31.3927C240.448 30.732 241.459 30.7188 242.184 31.1597C242.896 31.5873 246.175 33.4661 247.017 33.9063Z" fill="#41B06E"/>
<path d="M248.303 36.4978C248.288 34.0047 246.529 32.9958 244.359 34.249L109.651 112.025C107.471 113.284 105.703 116.344 105.703 118.861L105.707 126.525L248.303 44.2055V36.4978H248.303Z" fill="#41B06E"/>
<g opacity="0.2">
<path d="M244.358 34.2474L109.655 112.023C108.575 112.656 107.582 113.724 106.875 114.953L101.859 112.048C102.567 110.831 103.538 109.774 104.605 109.165L239.316 31.3903C240.446 30.7322 241.452 30.7216 242.185 31.1566C242.893 31.5908 246.17 33.453 247.002 33.8999C246.306 33.5649 245.376 33.6642 244.358 34.2474Z" fill="white"/>
</g>
<path opacity="0.15" d="M100.655 123.582L100.659 115.996C100.659 114.717 101.127 113.302 101.859 112.048L106.887 114.94C106.155 116.181 105.708 117.585 105.708 118.863V126.524L100.655 123.582Z" fill="black"/>
<path d="M232.744 44.6056C231.916 45.0836 231.244 46.5056 231.244 47.7813C231.244 49.0563 231.915 49.7024 232.744 49.2244C233.572 48.7458 234.244 47.3245 234.244 46.0495C234.244 44.7731 233.573 44.127 232.744 44.6056Z" fill="#37474F"/>
<path d="M238.145 41.4816C237.316 41.9595 236.645 43.3815 236.645 44.6572C236.645 45.9322 237.316 46.579 238.145 46.1003C238.973 45.6217 239.645 44.2004 239.645 42.9247C239.645 41.6497 238.973 41.0029 238.145 41.4816Z" fill="#37474F"/>
<path d="M243.545 38.3578C242.717 38.8365 242.046 40.2578 242.046 41.5334C242.046 42.8091 242.717 43.4552 243.545 42.9766C244.374 42.4986 245.045 41.0767 245.045 39.801C245.045 38.5253 244.374 37.8799 243.545 38.3578Z" fill="#37474F"/>
<path d="M106.915 247.158L102.752 244.753C101.626 244.114 100.874 242.97 100.691 241.691C100.667 241.496 100.655 241.307 100.655 241.117V123.569L105.701 126.524V244.89C105.701 245.038 105.713 245.174 105.737 245.31C105.749 245.387 105.761 245.464 105.784 245.535C105.784 245.571 105.796 245.606 105.808 245.636C105.831 245.718 105.855 245.802 105.89 245.879C105.89 245.891 105.896 245.908 105.902 245.914C105.944 246.015 105.991 246.11 106.039 246.204C106.092 246.299 106.157 246.388 106.216 246.476C106.264 246.541 106.317 246.607 106.37 246.666C106.578 246.909 106.83 247.113 107.109 247.266L106.915 247.158Z" fill="#E0E0E0"/>
<path d="M150.551 297.041C149.712 297.041 148.873 296.857 148.234 296.488L119.829 280.088L121.269 279.257L119.233 277.455C119.074 277.295 119.009 277.114 119.033 276.93C119.06 276.729 119.19 276.552 119.399 276.431L132.1 269.097C132.405 268.922 132.853 268.884 133.214 269.004L136.44 270.217C136.612 270.273 136.856 270.257 136.998 270.175L161.007 256.314L161.173 256.41L189.046 272.503C189.606 272.827 189.939 273.405 189.939 274.051C189.939 274.697 189.606 275.275 189.046 275.598L152.867 296.488C152.228 296.857 151.389 297.041 150.551 297.041ZM121.162 280.089L148.568 295.911C149.642 296.532 151.46 296.532 152.534 295.911L188.712 275.021C189.063 274.818 189.272 274.456 189.272 274.051C189.272 273.646 189.062 273.284 188.712 273.082L161.006 257.085L137.331 270.753C137.029 270.927 136.581 270.966 136.219 270.846L132.993 269.633C132.821 269.575 132.576 269.593 132.434 269.675L119.734 277.007L121.77 278.81C121.929 278.971 121.994 279.152 121.969 279.337C121.942 279.537 121.812 279.714 121.603 279.835L121.162 280.089Z" fill="#E0E0E0"/>
<path d="M166.799 297.052C165.965 297.052 165.132 296.864 164.482 296.489L136.077 280.089L137.516 279.258L135.48 277.455C135.321 277.296 135.256 277.115 135.28 276.931C135.307 276.73 135.437 276.553 135.646 276.432L148.348 269.098C148.653 268.923 149.099 268.885 149.461 269.005L152.687 270.218C152.858 270.276 153.104 270.258 153.246 270.176L177.254 256.315L177.42 256.411L198.782 268.744L198.448 269.322L177.254 257.085L153.58 270.754C153.275 270.928 152.827 270.965 152.466 270.846L149.24 269.634C149.068 269.575 148.823 269.593 148.682 269.675L135.981 277.008L138.016 278.811C138.176 278.97 138.241 279.15 138.215 279.335C138.189 279.536 138.059 279.714 137.849 279.835L137.41 280.089L164.815 295.91C165.889 296.531 167.706 296.532 168.781 295.91L198.732 278.618L199.066 279.196L169.114 296.488C168.465 296.864 167.631 297.052 166.799 297.052Z" fill="#41B06E"/>
<path d="M206.002 280.71C203.058 280.71 200.119 280.066 197.888 278.779C195.644 277.482 194.424 275.736 194.454 273.862C194.483 272.024 195.719 270.308 197.931 269.03C202.415 266.443 209.709 266.441 214.193 269.03C216.428 270.321 217.654 272.055 217.646 273.911C217.638 275.767 216.396 277.496 214.149 278.78C211.895 280.067 208.946 280.71 206.002 280.71ZM198.222 278.201C202.497 280.67 209.494 280.67 213.818 278.2C215.848 277.04 216.971 275.516 216.978 273.908C216.986 272.301 215.878 270.773 213.859 269.607C209.56 267.124 202.564 267.124 198.265 269.607C196.262 270.763 195.146 272.277 195.12 273.872C195.094 275.494 196.196 277.032 198.222 278.201Z" fill="#41B06E"/>
<path d="M209.75 276.704C209.637 276.704 209.523 276.675 209.417 276.615L202.014 272.34C201.695 272.156 201.586 271.748 201.771 271.43C201.954 271.111 202.362 271.001 202.681 271.186L210.084 275.461C210.403 275.645 210.512 276.053 210.328 276.371C210.204 276.584 209.981 276.704 209.75 276.704Z" fill="#41B06E"/>
<path d="M202.347 276.704C202.117 276.704 201.893 276.584 201.769 276.37C201.585 276.051 201.695 275.643 202.013 275.46L209.416 271.185C209.736 271.001 210.144 271.111 210.326 271.429C210.511 271.748 210.401 272.156 210.083 272.339L202.68 276.614C202.575 276.675 202.461 276.704 202.347 276.704Z" fill="#41B06E"/>
<path d="M107.839 94.9392C108.51 95.3562 111.646 97.1397 112.431 97.5448C111.581 97.2065 110.794 97.3747 109.901 97.8864L57.3452 128.246C55.2705 129.447 53.589 132.357 53.589 134.76V194.58C53.6109 195.639 53.924 196.769 54.7018 197.502C54.7905 197.59 54.8793 197.653 54.9799 197.729C51.9823 195.598 48.8438 195.632 48.7822 191.848V132.028C48.7783 129.652 50.4816 126.697 52.5384 125.514L105.095 95.1543C106.17 94.5473 107.131 94.5347 107.839 94.9392Z" fill="#263238"/>
<path d="M111.576 97.3726C111.071 97.3726 110.501 97.5374 109.898 97.8863L57.3493 128.244C55.2726 129.443 53.5898 132.359 53.5898 134.756V194.575C53.5898 196.471 54.6424 198.081 56.1114 198.081C56.5 198.081 56.9177 197.967 57.3533 197.717L109.968 167.341C112.046 166.145 113.731 163.232 113.731 160.835L113.658 100.057C113.657 98.3556 112.81 97.3726 111.576 97.3726Z" fill="#37474F"/>
<path d="M109.897 97.8842L57.3544 128.242C56.3256 128.845 55.3796 129.862 54.7057 131.032L49.9287 128.265C50.6033 127.106 51.5255 126.101 52.5416 125.522L105.097 95.164C106.174 94.5371 107.131 94.5252 107.829 94.9396C108.502 95.3534 111.624 97.1268 112.417 97.5532C111.754 97.2341 110.867 97.3288 109.897 97.8842Z" fill="#455A64"/>
<path d="M70.4326 132.02L70.4339 167.763C70.4339 169.398 71.5818 170.062 72.9985 169.243L103.952 151.372C105.368 150.555 106.516 148.566 106.516 146.931V111.187C106.516 109.552 105.368 108.89 103.952 109.707L72.9965 127.579C71.5805 128.396 70.4326 130.385 70.4326 132.02Z" fill="#41B06E"/>
<path opacity="0.3" d="M92.2809 125.938C92.2809 124.303 91.133 123.639 89.7164 124.457L70.4316 135.591L70.4323 167.764C70.4323 169.399 71.5802 170.062 72.9969 169.244L92.2809 158.11V125.938Z" fill="black"/>
<path d="M60.8086 148.684L60.8099 184.427C60.8099 186.063 61.9578 186.726 63.3745 185.908L94.3283 168.036C95.7443 167.218 96.8929 165.229 96.8929 163.594V127.851C96.8929 126.216 95.745 125.553 94.3283 126.37L63.3732 144.242C61.9565 145.06 60.8086 147.049 60.8086 148.684Z" fill="#41B06E"/>
<path opacity="0.3" d="M60.8086 148.684L60.8099 184.427C60.8099 186.063 61.9578 186.726 63.3745 185.908L94.3283 168.036C95.7443 167.218 96.8929 165.229 96.8929 163.594V127.851C96.8929 126.216 95.745 125.553 94.3283 126.37L63.3732 144.242C61.9565 145.06 60.8086 147.049 60.8086 148.684Z" fill="white"/>
<path d="M89.6772 153.296V149.685C89.6772 149.031 89.2178 148.766 88.6511 149.093L82.4594 152.667L82.4601 145.519C82.4601 144.865 82.0006 144.6 81.4346 144.927L78.308 146.731C77.7413 147.058 77.2819 147.853 77.2819 148.507V155.657L71.0909 159.231C70.5242 159.558 70.0654 160.354 70.0654 161.008V164.617C70.0654 165.271 70.5249 165.537 71.0909 165.21L77.2819 161.635V168.784C77.2819 169.438 77.7413 169.704 78.3073 169.377L81.434 167.572C82.0006 167.245 82.4594 166.449 82.4594 165.795V158.648L88.6504 155.074C89.2178 154.745 89.6772 153.95 89.6772 153.296Z" fill="white"/>
<path d="M130.762 176.493L127.107 174.383V212.101L130.762 214.212L137.858 199.327L147.941 193.505L130.762 176.493Z" fill="#E0E0E0"/>
<path d="M130.761 214.531C130.706 214.531 130.651 214.516 130.602 214.488L126.948 212.379C126.849 212.322 126.788 212.216 126.788 212.102V174.384C126.788 174.27 126.849 174.165 126.948 174.108C127.046 174.051 127.167 174.051 127.266 174.108L130.92 176.218C130.944 176.231 130.966 176.249 130.985 176.268L148.165 193.28C148.236 193.35 148.269 193.449 148.257 193.547C148.244 193.646 148.186 193.733 148.1 193.782L138.102 199.555L131.049 214.349C131.011 214.429 130.941 214.49 130.856 214.516C130.826 214.526 130.793 214.531 130.761 214.531ZM127.426 211.918L130.622 213.764L137.57 199.191C137.598 199.133 137.642 199.084 137.699 199.052L147.421 193.439L130.567 176.75L127.426 174.936V211.918H127.426Z" fill="#455A64"/>
<path d="M130.762 176.493V214.212L137.858 199.327L147.941 193.505L130.762 176.493Z" fill="#FAFAFA"/>
<path d="M130.761 214.531C130.738 214.531 130.714 214.528 130.691 214.523C130.546 214.489 130.442 214.36 130.442 214.211V176.493C130.442 176.364 130.52 176.248 130.638 176.199C130.757 176.15 130.893 176.176 130.986 176.266L148.165 193.278C148.236 193.349 148.27 193.447 148.257 193.546C148.245 193.644 148.187 193.731 148.101 193.781L138.103 199.553L131.049 214.348C130.996 214.462 130.883 214.531 130.761 214.531ZM131.081 177.257V212.802L137.57 199.189C137.598 199.131 137.642 199.083 137.699 199.05L147.421 193.437L131.081 177.257Z" fill="#455A64"/>
<path d="M120.345 174.314L116.69 172.205V209.923L120.345 212.033L127.441 197.149L137.524 191.326L120.345 174.314Z" fill="#263238"/>
<path d="M120.345 174.314V212.033L127.44 197.149L137.524 191.327L120.345 174.314Z" fill="#455A64"/>
<path d="M199.917 183.75C199.815 183.75 199.715 183.698 199.661 183.602C199.58 183.461 199.628 183.28 199.77 183.198L201.307 182.31C201.448 182.229 201.63 182.276 201.712 182.419C201.793 182.56 201.745 182.741 201.603 182.823L200.065 183.711C200.019 183.738 199.968 183.75 199.917 183.75ZM197.785 183.212C197.621 183.212 197.488 183.088 197.488 182.924C197.488 182.915 197.49 182.888 197.49 182.878L197.489 181.132C197.489 180.968 197.622 180.836 197.785 180.836C197.948 180.836 198.081 180.969 198.081 181.132V182.908C198.081 183.071 197.948 183.212 197.785 183.212ZM204.02 181.384C203.918 181.384 203.818 181.331 203.763 181.236C203.682 181.095 203.73 180.913 203.872 180.831L205.41 179.943C205.55 179.861 205.733 179.91 205.814 180.052C205.896 180.193 205.847 180.374 205.706 180.456L204.168 181.344C204.121 181.371 204.07 181.384 204.02 181.384ZM208.121 179.017C208.019 179.017 207.919 178.964 207.865 178.869C207.784 178.728 207.832 178.546 207.974 178.464L209.512 177.577C209.652 177.496 209.835 177.543 209.916 177.685C209.997 177.826 209.949 178.008 209.807 178.09L208.27 178.977C208.223 179.004 208.172 179.017 208.121 179.017ZM197.785 178.468C197.621 178.468 197.489 178.335 197.489 178.172V176.396C197.489 176.232 197.622 176.1 197.785 176.1C197.948 176.1 198.081 176.233 198.081 176.396V178.172C198.081 178.335 197.948 178.468 197.785 178.468ZM212.223 176.65C212.121 176.65 212.021 176.597 211.967 176.502C211.885 176.361 211.934 176.179 212.075 176.097L213.614 175.209C213.754 175.128 213.937 175.175 214.018 175.318C214.1 175.459 214.052 175.64 213.91 175.722L212.371 176.61C212.324 176.637 212.273 176.65 212.223 176.65ZM216.325 174.283C216.223 174.283 216.123 174.23 216.069 174.135C215.987 173.994 216.036 173.813 216.177 173.731L217.716 172.843C217.855 172.763 218.038 172.81 218.12 172.952C218.202 173.093 218.153 173.274 218.012 173.356L216.473 174.244C216.427 174.271 216.376 174.283 216.325 174.283ZM197.785 173.732C197.621 173.732 197.489 173.599 197.489 173.437V171.66C197.489 171.497 197.622 171.364 197.785 171.364C197.948 171.364 198.081 171.497 198.081 171.66V173.437C198.081 173.599 197.948 173.732 197.785 173.732ZM220.427 171.917C220.325 171.917 220.225 171.864 220.171 171.768C220.09 171.627 220.138 171.446 220.28 171.364L221.817 170.476C221.958 170.395 222.14 170.442 222.222 170.585C222.303 170.726 222.255 170.907 222.113 170.989L220.576 171.877C220.529 171.904 220.478 171.917 220.427 171.917ZM224.53 169.549C224.428 169.549 224.328 169.496 224.273 169.401C224.192 169.26 224.24 169.079 224.382 168.996L225.92 168.109C226.06 168.027 226.243 168.074 226.324 168.217C226.406 168.358 226.357 168.54 226.216 168.622L224.678 169.51C224.631 169.537 224.58 169.549 224.53 169.549ZM197.785 168.996C197.621 168.996 197.489 168.863 197.489 168.701V166.924C197.489 166.761 197.622 166.629 197.785 166.629C197.948 166.629 198.081 166.761 198.081 166.924V168.701C198.081 168.863 197.948 168.996 197.785 168.996ZM228.631 167.183C228.529 167.183 228.43 167.13 228.375 167.034C228.294 166.893 228.342 166.712 228.484 166.63L230.022 165.742C230.162 165.661 230.345 165.708 230.426 165.851C230.508 165.992 230.459 166.173 230.318 166.255L228.78 167.143C228.733 167.17 228.682 167.183 228.631 167.183ZM232.733 164.816C232.631 164.816 232.531 164.763 232.477 164.668C232.396 164.526 232.444 164.345 232.586 164.264L234.123 163.377C234.263 163.296 234.446 163.343 234.528 163.485C234.609 163.627 234.561 163.808 234.419 163.89L232.881 164.777C232.834 164.803 232.783 164.816 232.733 164.816ZM197.785 164.261C197.621 164.261 197.489 164.128 197.489 163.965V162.189C197.489 162.026 197.622 161.893 197.785 161.893C197.948 161.893 198.081 162.026 198.081 162.189V163.965C198.081 164.128 197.948 164.261 197.785 164.261ZM236.469 162.033C236.424 162.033 236.377 162.022 236.334 162C236.188 161.925 236.131 161.746 236.207 161.601C236.421 161.187 236.538 160.752 236.538 160.378V160.022C236.538 159.858 236.671 159.726 236.834 159.726C236.998 159.726 237.13 159.859 237.13 160.022V160.378C237.13 160.845 236.989 161.376 236.732 161.873C236.681 161.975 236.576 162.033 236.469 162.033ZM197.785 159.525C197.621 159.525 197.489 159.392 197.489 159.229V157.453C197.489 157.289 197.622 157.157 197.785 157.157C197.948 157.157 198.081 157.29 198.081 157.453V159.229C198.081 159.392 197.948 159.525 197.785 159.525ZM236.834 157.357C236.67 157.357 236.538 157.224 236.538 157.061L236.537 155.285C236.537 155.122 236.67 154.989 236.833 154.989C236.996 154.989 237.129 155.122 237.129 155.285L237.13 157.061C237.13 157.225 236.997 157.357 236.834 157.357ZM197.785 154.789C197.621 154.789 197.489 154.656 197.489 154.493V152.717C197.489 152.554 197.622 152.421 197.785 152.421C197.948 152.421 198.081 152.554 198.081 152.717V154.493C198.081 154.656 197.948 154.789 197.785 154.789ZM236.832 152.621C236.669 152.621 236.536 152.488 236.536 152.325V150.549C236.536 150.386 236.669 150.253 236.832 150.253C236.996 150.253 237.128 150.386 237.128 150.549V152.325C237.128 152.488 236.996 152.621 236.832 152.621ZM197.785 150.053C197.621 150.053 197.489 149.92 197.489 149.757V147.981C197.489 147.817 197.622 147.685 197.785 147.685C197.948 147.685 198.081 147.817 198.081 147.981V149.757C198.081 149.92 197.948 150.053 197.785 150.053ZM236.832 147.885C236.668 147.885 236.536 147.752 236.536 147.589L236.535 145.813C236.535 145.65 236.668 145.517 236.831 145.517C236.994 145.517 237.127 145.65 237.127 145.813L237.128 147.589C237.128 147.753 236.995 147.885 236.832 147.885ZM197.785 145.317C197.621 145.317 197.489 145.184 197.489 145.021V143.245C197.489 143.082 197.622 142.949 197.785 142.949C197.948 142.949 198.081 143.082 198.081 143.245V145.021C198.081 145.185 197.948 145.317 197.785 145.317ZM236.83 143.149C236.667 143.149 236.534 143.016 236.534 142.853V141.077C236.534 140.914 236.667 140.781 236.83 140.781C236.994 140.781 237.126 140.914 237.126 141.077V142.853C237.126 143.017 236.994 143.149 236.83 143.149ZM197.785 140.581C197.621 140.581 197.489 140.448 197.489 140.286V138.509C197.489 138.346 197.622 138.213 197.785 138.213C197.948 138.213 198.081 138.346 198.081 138.509V140.286C198.081 140.449 197.948 140.581 197.785 140.581ZM236.83 138.414C236.666 138.414 236.534 138.281 236.534 138.118L236.533 136.342C236.533 136.178 236.665 136.046 236.829 136.046C236.992 136.046 237.125 136.179 237.125 136.342L237.126 138.118C237.126 138.281 236.993 138.414 236.83 138.414ZM197.785 135.846C197.621 135.846 197.489 135.713 197.489 135.55V133.774C197.489 133.611 197.622 133.478 197.785 133.478C197.948 133.478 198.081 133.611 198.081 133.774V135.55C198.081 135.713 197.948 135.846 197.785 135.846ZM236.829 133.678C236.665 133.678 236.533 133.545 236.533 133.382V131.606C236.533 131.443 236.666 131.31 236.829 131.31C236.992 131.31 237.125 131.443 237.125 131.606V133.382C237.125 133.545 236.992 133.678 236.829 133.678ZM197.785 131.11C197.621 131.11 197.489 130.976 197.489 130.814V129.037C197.489 128.874 197.622 128.742 197.785 128.742C197.948 128.742 198.081 128.875 198.081 129.037V130.814C198.081 130.977 197.948 131.11 197.785 131.11ZM236.828 128.942C236.665 128.942 236.532 128.809 236.532 128.646L236.532 126.87C236.532 126.707 236.664 126.574 236.828 126.574C236.991 126.574 237.124 126.707 237.124 126.87L237.124 128.646C237.124 128.81 236.991 128.942 236.828 128.942ZM197.785 126.374C197.621 126.374 197.489 126.241 197.489 126.078V124.302C197.489 124.138 197.622 124.006 197.785 124.006C197.948 124.006 198.081 124.139 198.081 124.302V126.078C198.081 126.241 197.948 126.374 197.785 126.374ZM236.827 124.206C236.663 124.206 236.531 124.074 236.531 123.91V122.134C236.531 121.971 236.664 121.838 236.827 121.838C236.99 121.838 237.123 121.971 237.123 122.134V123.91C237.123 124.073 236.99 124.206 236.827 124.206ZM197.785 121.638C197.621 121.638 197.489 121.505 197.489 121.342V119.566C197.489 119.403 197.622 119.27 197.785 119.27C197.948 119.27 198.081 119.403 198.081 119.566V121.342C198.081 121.505 197.948 121.638 197.785 121.638ZM236.826 119.471C236.663 119.471 236.53 119.338 236.53 119.175L236.53 117.399C236.53 117.235 236.662 117.103 236.826 117.103C236.989 117.103 237.122 117.236 237.122 117.399L237.122 119.175C237.122 119.338 236.99 119.471 236.826 119.471ZM198.465 117.053C198.404 117.053 198.342 117.034 198.289 116.994C198.158 116.898 198.13 116.712 198.228 116.581C198.505 116.205 198.833 115.901 199.175 115.704L199.692 115.405C199.834 115.324 200.016 115.371 200.097 115.513C200.179 115.655 200.13 115.836 199.989 115.917L199.472 116.217C199.199 116.373 198.933 116.621 198.704 116.932C198.645 117.012 198.556 117.053 198.465 117.053ZM236.825 114.734C236.661 114.734 236.529 114.601 236.529 114.438L236.528 112.662C236.528 112.499 236.661 112.366 236.824 112.366C236.988 112.366 237.12 112.499 237.12 112.662L237.121 114.438C237.121 114.602 236.988 114.734 236.825 114.734ZM202.404 114.478C202.302 114.478 202.202 114.425 202.147 114.33C202.066 114.189 202.114 114.007 202.255 113.926L203.793 113.038C203.935 112.957 204.116 113.004 204.198 113.146C204.28 113.287 204.231 113.469 204.09 113.55L202.553 114.438C202.506 114.466 202.454 114.478 202.404 114.478ZM206.505 112.11C206.403 112.11 206.303 112.057 206.249 111.963C206.168 111.821 206.216 111.639 206.357 111.558L207.894 110.67C208.037 110.59 208.218 110.637 208.299 110.778C208.381 110.92 208.333 111.101 208.191 111.183L206.654 112.07C206.607 112.098 206.556 112.11 206.505 112.11ZM236.824 109.999C236.66 109.999 236.528 109.866 236.528 109.703V107.927C236.528 107.763 236.661 107.631 236.824 107.631C236.987 107.631 237.12 107.763 237.12 107.927V109.703C237.12 109.866 236.987 109.999 236.824 109.999ZM210.607 109.742C210.505 109.742 210.405 109.689 210.351 109.594C210.27 109.453 210.318 109.272 210.46 109.189L211.997 108.302C212.137 108.221 212.32 108.268 212.402 108.41C212.483 108.551 212.435 108.733 212.293 108.815L210.755 109.702C210.708 109.73 210.657 109.742 210.607 109.742ZM214.708 107.375C214.606 107.375 214.506 107.322 214.452 107.227C214.371 107.086 214.419 106.904 214.56 106.823L216.098 105.934C216.239 105.854 216.421 105.901 216.503 106.042C216.584 106.184 216.536 106.365 216.395 106.447L214.857 107.335C214.81 107.362 214.759 107.375 214.708 107.375ZM236.823 105.263C236.659 105.263 236.527 105.13 236.527 104.967L236.526 103.192C236.526 103.028 236.659 102.896 236.822 102.896C236.986 102.896 237.118 103.029 237.118 103.192L237.119 104.967C237.12 105.13 236.987 105.263 236.823 105.263ZM218.809 105.006C218.707 105.006 218.607 104.953 218.553 104.859C218.472 104.717 218.52 104.536 218.661 104.454L220.199 103.566C220.341 103.485 220.522 103.533 220.604 103.674C220.685 103.815 220.637 103.997 220.496 104.078L218.958 104.967C218.911 104.994 218.86 105.006 218.809 105.006ZM222.911 102.638C222.809 102.638 222.709 102.585 222.655 102.49C222.573 102.349 222.622 102.168 222.763 102.085L224.301 101.198C224.442 101.116 224.624 101.164 224.706 101.306C224.787 101.447 224.739 101.629 224.597 101.711L223.059 102.599C223.012 102.626 222.961 102.638 222.911 102.638ZM236.822 100.527C236.659 100.527 236.526 100.394 236.526 100.231V98.4544C236.526 98.2909 236.659 98.1585 236.822 98.1585C236.986 98.1585 237.118 98.2916 237.118 98.4544V100.231C237.118 100.395 236.985 100.527 236.822 100.527ZM227.012 100.271C226.91 100.271 226.81 100.218 226.756 100.123C226.675 99.9817 226.723 99.8003 226.864 99.7188L228.402 98.8304C228.544 98.749 228.725 98.7967 228.807 98.9383C228.888 99.08 228.84 99.2614 228.699 99.3428L227.161 100.231C227.113 100.258 227.062 100.271 227.012 100.271ZM231.113 97.903C231.011 97.903 230.911 97.85 230.857 97.7553C230.776 97.6137 230.824 97.4323 230.965 97.3509L232.503 96.4625C232.645 96.381 232.826 96.4287 232.908 96.5704C232.989 96.712 232.941 96.8934 232.8 96.9748L231.262 97.8632C231.215 97.8904 231.164 97.903 231.113 97.903ZM236.718 95.8044C236.603 95.8044 236.492 95.7362 236.445 95.6217C236.286 95.2391 235.892 95.1894 235.43 95.4562L235.362 95.4953C235.222 95.5774 235.04 95.5284 234.957 95.3867C234.876 95.245 234.924 95.0637 235.066 94.9822L235.134 94.9432C235.919 94.4904 236.701 94.6929 236.991 95.3947C237.054 95.5463 236.982 95.719 236.832 95.7813C236.795 95.7972 236.757 95.8044 236.718 95.8044Z" fill="#41B06E"/>
<path d="M197.786 134.956C197.735 134.956 197.684 134.943 197.638 134.916L196.1 134.027C195.958 133.946 195.909 133.765 195.991 133.623C196.073 133.481 196.256 133.433 196.395 133.514L197.934 134.403C198.076 134.484 198.125 134.666 198.042 134.807C197.988 134.903 197.888 134.956 197.786 134.956ZM193.683 132.587C193.632 132.587 193.581 132.574 193.535 132.547L191.996 131.659C191.855 131.577 191.806 131.396 191.888 131.254C191.97 131.112 192.153 131.064 192.292 131.146L193.831 132.034C193.973 132.116 194.022 132.297 193.939 132.439C193.884 132.534 193.785 132.587 193.683 132.587ZM189.58 130.218C189.53 130.218 189.479 130.206 189.432 130.179L187.893 129.29C187.752 129.208 187.703 129.027 187.785 128.885C187.868 128.743 188.05 128.696 188.191 128.777L189.729 129.666C189.87 129.748 189.919 129.929 189.837 130.071C189.781 130.165 189.682 130.218 189.58 130.218ZM185.477 127.849C185.427 127.849 185.376 127.836 185.329 127.809L183.791 126.921C183.649 126.839 183.6 126.658 183.682 126.516C183.764 126.374 183.947 126.326 184.087 126.408L185.625 127.296C185.767 127.378 185.816 127.559 185.734 127.701C185.678 127.796 185.579 127.849 185.477 127.849Z" fill="#41B06E"/>
<path d="M236.325 87.8299C239.75 85.8525 242.526 87.4552 242.526 91.41C242.526 95.3648 239.75 100.173 236.325 102.151C232.9 104.128 230.124 102.526 230.124 98.5709C230.124 94.6161 232.9 89.8073 236.325 87.8299Z" fill="#FAFAFA"/>
<path d="M233.555 103.253C232.921 103.253 232.333 103.104 231.813 102.804C230.56 102.081 229.87 100.577 229.87 98.5699C229.87 94.541 232.709 89.6243 236.198 87.6099C237.937 86.6056 239.582 86.452 240.835 87.1756C242.089 87.8992 242.778 89.4026 242.778 91.4098C242.778 95.4387 239.94 100.355 236.451 102.37C235.435 102.957 234.449 103.253 233.555 103.253ZM239.093 87.2339C238.289 87.2339 237.389 87.5073 236.452 88.0488C233.102 89.9825 230.377 94.7019 230.377 98.5699C230.377 100.388 230.977 101.736 232.067 102.365C233.157 102.995 234.623 102.84 236.198 101.93C239.548 99.9966 242.272 95.2772 242.272 91.4091C242.272 89.5906 241.672 88.2427 240.583 87.6138C240.142 87.3603 239.639 87.2339 239.093 87.2339Z" fill="#41B06E"/>
<path d="M240.306 93.4248V91.9591C240.306 91.6936 240.119 91.5857 239.89 91.7188L237.375 93.1699V90.267C237.375 90.0016 237.189 89.8937 236.959 90.0267L235.689 90.7596C235.459 90.8926 235.273 91.215 235.273 91.4805V94.3834L232.759 95.8345C232.529 95.9675 232.343 96.2899 232.343 96.556V98.0217C232.343 98.2872 232.529 98.3951 232.759 98.262L235.273 96.8109V99.7138C235.273 99.9792 235.459 100.087 235.689 99.9541L236.958 99.2213C237.189 99.0882 237.375 98.7658 237.375 98.4997V95.5981L239.888 94.147C240.119 94.0133 240.306 93.6902 240.306 93.4248Z" fill="#41B06E"/>
<path d="M238.673 110.327V156.203C238.673 156.831 238.232 157.597 237.685 157.911L204.503 177.072C204.235 177.227 203.984 177.245 203.806 177.14C203.629 177.035 202.135 176.174 201.957 176.07C201.78 175.97 201.67 175.747 201.67 175.432V120.014C201.67 119.385 202.107 118.621 202.654 118.306L227.571 103.921L238.673 110.327Z" fill="#F0F0F0"/>
<path d="M205.369 121.013L201.925 119.105C201.767 119.399 201.668 119.722 201.668 120.016V175.434C201.668 175.748 201.779 175.969 201.957 176.072C202.135 176.175 203.628 177.037 203.807 177.14C203.986 177.244 204.232 177.228 204.504 177.072L205.368 176.573V121.013H205.369Z" fill="#E0E0E0"/>
<path d="M238.672 110.328V156.205C238.672 156.834 238.229 157.599 237.683 157.913L204.505 177.071C203.963 177.385 203.521 177.13 203.521 176.501V121.087C203.521 120.458 203.963 119.693 204.505 119.379L223.868 108.192L229.42 104.985L238.672 110.328Z" fill="#FAFAFA"/>
<path d="M229.42 105.551L238.181 110.611V156.204C238.181 156.661 237.834 157.26 237.437 157.488L204.259 176.646C204.149 176.71 204.083 176.715 204.057 176.717C204.047 176.707 204.011 176.644 204.011 176.501V121.086C204.011 120.631 204.357 120.031 204.75 119.802L224.113 108.616L229.42 105.551ZM229.42 104.985L223.867 108.192L204.504 119.379C203.962 119.693 203.521 120.458 203.521 121.087V176.501C203.521 176.948 203.743 177.205 204.065 177.205C204.198 177.205 204.347 177.162 204.504 177.071L237.682 157.913C238.229 157.599 238.671 156.833 238.671 156.205V110.328L229.42 104.985Z" fill="#E0E0E0"/>
<path d="M233.82 110.691C234.178 110.691 234.425 110.977 234.425 111.471V150.553C234.425 151.25 233.936 152.097 233.332 152.446L208.862 166.573C208.686 166.675 208.52 166.722 208.374 166.722C208.015 166.722 207.769 166.436 207.769 165.942V126.86C207.769 126.163 208.258 125.316 208.862 124.967L225.412 115.412L233.332 110.839C233.507 110.739 233.673 110.691 233.82 110.691ZM233.82 110.236C233.586 110.236 233.346 110.307 233.104 110.446L225.183 115.019L208.633 124.575C207.892 125.002 207.312 126.007 207.312 126.863V165.944C207.312 166.672 207.749 167.18 208.373 167.18C208.606 167.18 208.847 167.11 209.089 166.97L233.559 152.842C234.3 152.415 234.88 151.41 234.88 150.555V111.473C234.88 110.744 234.444 110.236 233.82 110.236Z" fill="#41B06E"/>
<path d="M229.422 114.527V104.984L238.673 110.327L230.41 115.096C229.864 115.41 229.422 115.155 229.422 114.527Z" fill="#E0E0E0"/>
<path d="M212.756 139.754L229.436 130.031C230.144 129.622 230.718 128.669 230.718 127.902C230.718 127.134 230.144 126.845 229.436 127.253L212.755 136.976C212.048 137.385 211.474 138.338 211.474 139.105C211.474 139.873 212.048 140.163 212.756 139.754ZM229.436 133.401L212.755 143.124C212.048 143.533 211.474 144.486 211.474 145.253C211.474 146.02 212.048 146.311 212.756 145.902L229.436 136.178C230.144 135.769 230.718 134.816 230.718 134.049C230.718 133.282 230.144 132.993 229.436 133.401ZM229.436 139.548L212.755 149.271C212.048 149.68 211.474 150.633 211.474 151.4C211.474 152.167 212.048 152.458 212.756 152.049L229.436 142.325C230.144 141.916 230.718 140.964 230.718 140.196C230.718 139.43 230.144 139.14 229.436 139.548Z" fill="#41B06E"/>
<path opacity="0.3" d="M212.756 139.754L229.436 130.031C230.144 129.622 230.718 128.669 230.718 127.902C230.718 127.134 230.144 126.845 229.436 127.253L212.755 136.976C212.048 137.385 211.474 138.338 211.474 139.105C211.474 139.873 212.048 140.163 212.756 139.754ZM229.436 133.401L212.755 143.124C212.048 143.533 211.474 144.486 211.474 145.253C211.474 146.02 212.048 146.311 212.756 145.902L229.436 136.178C230.144 135.769 230.718 134.816 230.718 134.049C230.718 133.282 230.144 132.993 229.436 133.401ZM229.436 139.548L212.755 149.271C212.048 149.68 211.474 150.633 211.474 151.4C211.474 152.167 212.048 152.458 212.756 152.049L229.436 142.325C230.144 141.916 230.718 140.964 230.718 140.196C230.718 139.43 230.144 139.14 229.436 139.548Z" fill="white"/>
<path d="M184.909 112.664V158.54C184.909 159.169 184.468 159.933 183.921 160.248L150.739 179.409C150.471 179.564 150.22 179.582 150.042 179.477C149.865 179.372 148.371 178.511 148.193 178.407C148.015 178.307 147.905 178.083 147.905 177.769V122.351C147.905 121.723 148.343 120.958 148.889 120.643L173.806 106.258L184.909 112.664Z" fill="#F0F0F0"/>
<path d="M151.605 123.35L148.162 121.442C148.004 121.735 147.904 122.058 147.904 122.352V177.769C147.904 178.084 148.015 178.305 148.193 178.408C148.372 178.511 149.864 179.373 150.043 179.476C150.222 179.579 150.468 179.564 150.74 179.407L151.604 178.909V123.35H151.605Z" fill="#E0E0E0"/>
<path d="M184.908 112.664V158.542C184.908 159.17 184.466 159.935 183.92 160.25L150.742 179.408C150.199 179.722 149.758 179.467 149.758 178.838V123.423C149.758 122.795 150.199 122.03 150.742 121.715L170.104 110.528L175.657 107.321L184.908 112.664Z" fill="#FAFAFA"/>
<path d="M175.658 107.887L184.418 112.947V158.541C184.418 158.997 184.072 159.597 183.675 159.825L150.496 178.983C150.387 179.046 150.321 179.051 150.296 179.054C150.286 179.044 150.249 178.981 150.249 178.838V123.423C150.249 122.968 150.595 122.368 150.988 122.139L170.351 110.952L175.658 107.887ZM175.658 107.321L170.105 110.528L150.743 121.715C150.2 122.03 149.759 122.795 149.759 123.423V178.838C149.759 179.285 149.981 179.542 150.304 179.542C150.437 179.542 150.586 179.499 150.743 179.408L183.921 160.25C184.468 159.935 184.91 159.17 184.91 158.542V112.664L175.658 107.321Z" fill="#E0E0E0"/>
<path d="M180.056 113.028C180.415 113.028 180.661 113.314 180.661 113.808V152.89C180.661 153.587 180.172 154.434 179.568 154.783L155.098 168.91C154.923 169.012 154.757 169.06 154.61 169.06C154.252 169.06 154.005 168.774 154.005 168.279V129.198C154.005 128.5 154.494 127.653 155.098 127.305L171.648 117.75L179.569 113.176C179.744 113.077 179.909 113.028 180.056 113.028ZM180.056 112.573C179.823 112.573 179.582 112.644 179.341 112.783L171.421 117.356L154.871 126.912C154.13 127.339 153.55 128.344 153.55 129.199V168.281C153.55 169.008 153.986 169.517 154.61 169.517C154.844 169.517 155.084 169.446 155.326 169.306L179.796 155.178C180.537 154.751 181.117 153.746 181.117 152.891V113.809C181.117 113.081 180.681 112.573 180.056 112.573Z" fill="#41B06E"/>
<path d="M175.659 116.864V107.321L184.91 112.664L176.648 117.433C176.101 117.747 175.659 117.492 175.659 116.864Z" fill="#E0E0E0"/>
<path d="M158.993 142.092L175.673 132.369C176.381 131.96 176.955 131.007 176.955 130.24C176.955 129.473 176.381 129.183 175.673 129.591L158.993 139.314C158.285 139.723 157.711 140.676 157.711 141.443C157.711 142.21 158.285 142.501 158.993 142.092ZM175.673 135.739L158.993 145.461C158.285 145.87 157.711 146.824 157.711 147.591C157.711 148.358 158.286 148.649 158.993 148.24L175.673 138.516C176.381 138.107 176.955 137.155 176.955 136.387C176.955 135.62 176.381 135.329 175.673 135.739ZM175.673 141.886L158.993 151.609C158.285 152.017 157.711 152.971 157.711 153.738C157.711 154.505 158.286 154.796 158.993 154.386L175.673 144.663C176.381 144.254 176.955 143.301 176.955 142.534C176.955 141.767 176.381 141.477 175.673 141.886Z" fill="#41B06E"/>
<path opacity="0.3" d="M158.993 142.092L175.673 132.369C176.381 131.96 176.955 131.007 176.955 130.24C176.955 129.473 176.381 129.183 175.673 129.591L158.993 139.314C158.285 139.723 157.711 140.676 157.711 141.443C157.711 142.21 158.285 142.501 158.993 142.092ZM175.673 135.739L158.993 145.461C158.285 145.87 157.711 146.824 157.711 147.591C157.711 148.358 158.286 148.649 158.993 148.24L175.673 138.516C176.381 138.107 176.955 137.155 176.955 136.387C176.955 135.62 176.381 135.329 175.673 135.739ZM175.673 141.886L158.993 151.609C158.285 152.017 157.711 152.971 157.711 153.738C157.711 154.505 158.286 154.796 158.993 154.386L175.673 144.663C176.381 144.254 176.955 143.301 176.955 142.534C176.955 141.767 176.381 141.477 175.673 141.886Z" fill="white"/>
<path d="M257.202 264.349C257.256 267.223 257.481 271.403 257.202 272.596C256.922 273.788 252.133 274.948 248.388 275.124C244.643 275.299 240.136 274.717 239.866 277.345C239.592 280.003 241.94 281.762 243.662 282.558C246.584 283.91 249.841 283.615 252.706 283.195C255.57 282.775 257.1 283.08 260.126 283.819C263.152 284.558 264.86 284.103 266.154 283.456C268.071 282.497 267.564 279.219 266.884 277.087C266.204 274.956 266.282 273.005 266.537 270.046C266.791 267.086 267.631 262.768 267.631 262.768L257.202 264.349Z" fill="#FFBDA7"/>
<path d="M266.884 277.088C266.884 277.088 266.888 277.993 264.922 278.406C262.956 278.819 259.702 278.712 257.419 278.859C253.997 279.079 251.401 279.472 247.477 278.859C244.037 278.322 244.181 275.592 247.263 275.157V275.156C243.796 275.215 240.111 274.976 239.867 277.345C239.593 280.003 241.941 281.762 243.663 282.558C246.585 283.91 249.842 283.615 252.707 283.195C255.571 282.775 257.101 283.08 260.127 283.819C263.153 284.558 264.861 284.103 266.155 283.456C268.071 282.498 267.563 279.22 266.884 277.088Z" fill="#455A64"/>
<path d="M292.777 257.218C294.381 259.553 297.035 263.957 297.401 265.054C297.767 266.152 298.102 270.253 297.401 271.468C296.398 272.202 294.82 272.622 293.474 273.288C291.532 274.249 291.114 275.841 292.384 277.059C294.156 278.758 297.014 278.959 298.743 278.857C301.253 278.474 301.426 275.661 301.788 273.17C302.15 270.678 301.741 265.778 303.63 262.767C305.518 259.757 308.867 259.474 309.303 260.476C309.097 258.963 308.262 258.917 306.451 257.893C304.64 256.87 303.063 256.901 302.061 254.524C300.874 251.71 299.795 248.353 299.795 248.353L292.777 257.218Z" fill="#FFBDA7"/>
<path d="M296.308 278.904C298.114 279.206 299.379 279.205 302.583 277.633C305.347 276.277 306.049 275.705 306.471 274.952C307.139 273.763 306.416 270.826 306.998 268.295C307.58 265.764 308.196 264.663 308.823 263.126C309.45 261.588 309.402 260.924 309.303 260.477C309.088 259.515 307.131 259.397 305.272 260.477C303.414 261.557 302.209 263.614 301.594 268.518C300.98 273.422 301.927 278.787 296.308 278.904Z" fill="#263238"/>
<path d="M309.303 260.477C309.097 258.964 308.574 258.738 306.762 257.715C306.089 257.334 305.428 257.061 304.811 256.747C303.058 256.417 300.297 257.799 300.155 261.478C300.013 265.156 300.645 269.823 299.538 271.553C298.595 273.027 297.043 272.927 297.401 271.468C294.916 272.379 294.062 272.391 292.658 273.16C291.039 274.046 290.495 276.361 291.992 277.287C294.08 278.578 296.233 279.241 298.742 278.858C301.252 278.474 301.425 275.661 301.787 273.17C302.149 270.679 301.74 265.778 303.629 262.767C305.518 259.757 308.867 259.474 309.303 260.477Z" fill="#455A64"/>
<path d="M293.253 258.681C293.253 258.681 284.126 245.275 279.25 236.591C275.645 230.171 275.317 228.927 274.433 224.726C272.535 215.698 272.09 213.583 272.09 213.583L269.258 231.812C269.71 233.792 270.625 237.711 270.662 240.015C270.706 243.077 270.428 247.388 269.565 253.454C268.192 263.101 266.791 268.347 266.791 268.347C266.082 268.842 264.023 268.935 262.236 268.878C259.758 268.8 257.115 267.922 257.115 267.922C257.115 267.922 255.628 246.438 255.281 240.528C254.864 233.434 254.718 230.65 254.496 226.755C254.144 220.554 253.3 211.573 253.54 200.179C254.02 177.51 259.068 167.164 259.068 167.164L284.656 163.61C286.78 171.247 291.194 172.134 291.656 182.559C291.762 184.927 290.511 189.622 290.469 193.294C290.333 205.204 289.268 223.914 289.268 223.914C292.077 226.504 294.135 228.845 296.077 234.853C297.255 238.5 299.869 247.739 300.97 251.486C297.745 251.486 293.215 257.219 293.253 258.681Z" fill="#455A64"/>
<path d="M267.386 180.23L268.063 180.127C268.659 184.233 269.639 188.892 270.179 189.263C271.117 189.901 274.6 190.425 275.381 190.229C276.186 190.031 276.855 189.396 278.244 187.509C279.219 186.184 279.114 185.357 278.886 183.549C278.801 182.871 278.703 182.102 278.64 181.138L279.324 181.091C279.384 182.034 279.48 182.791 279.565 183.459C279.795 185.278 279.935 186.376 278.791 187.931C277.289 189.972 276.53 190.668 275.54 190.911C275.426 190.939 275.277 190.957 275.104 190.965C273.724 191.027 270.731 190.48 269.8 189.846C268.752 189.134 267.686 182.306 267.386 180.23Z" fill="#37474F"/>
<path d="M256.91 179.625L257.569 179.817C255.632 186.779 256.056 193.152 259.523 195.089C260.156 190.39 261.046 185.533 262.271 180.334L262.938 180.498C258.994 197.237 258.517 210.422 259.026 226.269C259.413 238.338 260.176 259.091 260.535 268.717C260.299 268.682 260.068 268.643 259.844 268.602C259.485 258.913 258.727 238.303 258.341 226.292C257.996 215.564 258.108 206.047 259.428 195.831C255.456 193.81 254.833 187.091 256.91 179.625Z" fill="#37474F"/>
<path d="M291.361 185.874C290.989 186.24 290.164 186.736 289.858 186.756L289.837 186.757C288.757 186.806 286.97 185.267 286.463 184.108C286.216 183.545 286.134 182.866 286.031 182.004C285.924 181.109 285.802 180.094 285.459 178.89L286.116 178.694C286.475 179.952 286.606 181.042 286.711 181.919C286.808 182.721 286.884 183.355 287.088 183.822C287.518 184.803 289.084 186.089 289.804 186.056L289.814 186.056C290 186.044 291.007 185.328 291.523 184.703C291.479 185.049 291.412 185.522 291.361 185.874Z" fill="#37474F"/>
<path d="M295.402 255.073C295.56 254.892 295.721 254.711 295.89 254.533C291.522 246.915 282.139 230.252 281.302 226.206C280.23 221.027 278.382 203.665 278.309 194.325L277.623 194.33C277.697 203.707 279.553 221.147 280.631 226.351C281.508 230.584 291.06 247.517 295.402 255.073Z" fill="#37474F"/>
<path d="M282.016 177.508C283.752 180.269 284.808 185.114 282.567 190.427L281.937 190.151C284.072 185.089 283.08 180.497 281.439 177.888L282.016 177.508Z" fill="#37474F"/>
<path d="M272.09 213.582L274.87 194.469C274.87 194.469 282.066 193.462 283.059 186.714C283.233 190.717 281.635 194.161 277.165 196.01L273.594 213.653L274.433 224.725L272.09 213.582Z" fill="#37474F"/>
<path d="M286.819 132.73C291.476 133.836 293.998 135.126 295.915 141.456C297.73 147.448 300.768 157.563 301.565 161.851C301.953 163.943 302.129 165.934 299.224 167.163C292.656 169.942 286.322 171.889 286.322 171.889L283.757 164.135L290.78 160.626L289.028 154.975L286.819 132.73Z" fill="#FFBDA7"/>
<path d="M290.781 160.626C291.281 161.723 292.278 163.105 293.674 163.79C291.963 163.997 290.293 162.209 289.859 161.087L290.781 160.626Z" fill="#F0997A"/>
<path d="M287.151 132.68C289.23 133.055 292.077 133.49 294.153 136.638C296.229 139.786 299.611 150.804 299.611 150.804C299.611 150.804 297.96 152.853 293.673 154.009C289.387 155.166 287.555 154.182 287.555 154.182L284.307 143.626L287.151 132.68Z" fill="#41B06E"/>
<path opacity="0.2" d="M287.151 132.68C289.23 133.055 292.077 133.49 294.153 136.638C296.229 139.786 299.611 150.804 299.611 150.804C299.611 150.804 297.96 152.853 293.673 154.009C289.387 155.166 287.555 154.182 287.555 154.182L284.307 143.626L287.151 132.68Z" fill="black"/>
<path d="M264.204 109.555C263.392 108.468 263.507 106.842 264.09 105.617C264.673 104.392 265.798 103.132 268.918 101.789C272.623 100.193 282.739 99.1329 286.618 105.906C287.198 106.917 276.622 124.813 276.831 128.617C274.512 125.802 266.892 115.942 266.892 115.942C264.99 114.968 263.854 114.175 263.572 112.295C263.492 111.76 263.612 110.413 264.204 109.555Z" fill="#263238"/>
<path d="M265.312 114.801C265.312 114.801 262.357 118.94 262.625 119.314C262.892 119.688 264.494 120.751 264.494 120.751L265.312 114.801Z" fill="#F0997A"/>
<path d="M269.164 107.147C267.328 107.859 265.69 109.113 264.861 112.974C264.644 113.983 265.341 115.433 264.883 116.763C262.923 122.459 264.415 127.43 265.469 128.578C266.18 129.353 270.144 129.956 272.277 129.523C274.946 128.979 280.814 126.816 283.817 122.917C287.348 118.33 288.554 111.912 285.186 109.061C280.448 105.049 271.123 106.385 269.164 107.147Z" fill="#FFBDA7"/>
<path d="M281.874 126.076L282.207 131.861C285.419 133.738 278.773 136.188 271.727 133.173L271.219 127.956L281.874 126.076Z" fill="#FFBDA7"/>
<path d="M271.451 130.333C271.581 131.672 271.711 133.673 269.637 134.225C267.687 134.744 264.533 135.069 261.461 136.217C261.461 136.217 272.536 137.964 278.343 137.006C284.151 136.048 285.162 132.31 285.162 132.31C283.07 132.03 282.196 131.683 282.118 130.333H271.451Z" fill="#FFBDA7"/>
<path d="M265.67 128.739C266.561 129.32 268.579 129.845 271.384 129.655L271.259 128.208C271.259 128.208 270.111 128.607 268.555 128.81C267.009 129.011 265.686 128.742 265.67 128.739Z" fill="#F0997A"/>
<path d="M266.387 109.042C266.109 111.563 267.638 112.472 268.733 113.05C268.277 113.752 267.954 115.178 268.057 115.997C268.219 117.297 268.631 118.381 269.863 118.895C270.616 119.209 270.868 118.885 271.186 118.296C271.64 117.459 272.225 116.165 274.065 116.553C276.176 116.998 276.509 120.246 275.118 122.259C274.505 123.147 273.553 123.718 272.601 123.705C271.749 123.693 271.199 122.918 271.199 122.918C271.199 122.918 271.141 125.73 274.624 127.645C274.624 127.645 278.113 129.948 281.918 129.113C283.429 127.553 285.197 125.949 287.073 123.614C291.408 118.215 292.315 107.958 285.751 105.618C285.438 105.507 280.049 104.144 277.046 104.575C267.833 105.897 266.435 108.605 266.387 109.042Z" fill="#263238"/>
<path d="M286.618 105.905C287.654 105.905 290.782 107.501 290.774 114.455C290.768 119.151 289.636 125.438 288.113 128.38C284.088 132.817 272.436 133.664 267.281 131.807C270.617 130.276 271.219 126.128 271.199 122.917C272.725 125.226 275.513 125.772 278.886 124.08C282.259 122.388 286.618 105.905 286.618 105.905Z" fill="#263238"/>
<path d="M291.333 138.484C290.37 133.791 287.824 132.77 286.689 132.568C284.879 132.245 283.757 132.058 283.757 132.058C283.789 132.614 284.159 133.942 278.964 134.592C275.622 135.01 269.861 134.153 269.861 134.153C269.861 134.153 266.898 134.592 263.3 135.62C259.93 136.584 258.151 140.516 255.952 145.711C254.213 149.816 254.864 153.995 257.967 157.049C258.204 159.628 257.781 164.734 257.781 164.734C255.544 173.591 255.453 179.916 255.453 179.916C255.453 179.916 257.442 181.77 273.215 181.418C285.432 181.145 291.07 175.685 291.07 175.685C290.718 173.859 289.441 169.95 287.132 163.871C287.443 157.928 293.419 148.643 291.333 138.484Z" fill="#41B06E"/>
<path d="M236.364 150.81C236.364 150.81 218.996 147.353 218.005 146.637C217.162 146.027 216.89 145.029 216.47 144.138C215.988 143.115 215.299 142.196 214.549 141.356C214.055 140.804 213.46 140.327 212.999 139.75C212.571 139.215 212.394 138.541 211.982 138C211.535 137.413 211.006 137.848 210.744 138.37C210.394 139.064 210.528 140.04 210.8 140.734C210.93 141.066 211.043 141.403 211.174 141.734C211.294 142.036 211.476 142.337 211.534 142.659C211.562 142.815 211.582 143.02 211.498 143.159C211.31 143.471 210.724 143.262 210.462 143.158C208.744 142.474 207.085 141.368 205.788 140.053C205.218 139.477 204.771 138.83 204.159 138.291C203.62 137.816 202.952 137.328 202.286 137.047C201.94 136.902 201.197 136.641 200.814 136.783C200.062 137.062 200.9 138.257 201.094 138.661C201.335 139.162 201.471 139.544 201.444 140.11C201.409 140.851 201.548 141.162 201.957 141.776C202.302 142.293 202.831 142.838 202.908 143.465C202.935 143.681 202.909 143.919 202.908 144.137C202.905 144.755 203.321 145.534 203.708 145.992C204.206 146.58 204.325 146.971 204.406 147.731C204.559 149.198 206.095 150.279 207.239 150.984C208.555 151.794 210.001 152.371 211.466 152.85C212.256 153.109 213.024 153.429 213.819 153.668C214.531 153.881 215.264 154.019 215.957 154.284C217.608 154.915 230.398 159.788 235.496 161.199C238.009 161.895 238.689 162.519 242.226 160.672C248.599 157.346 254.847 155.07 258.513 152.823C263.535 149.746 265.671 148.021 266.355 144.744C267.94 137.148 262.933 135.741 262.933 135.741C261.103 136.212 260.153 136.64 254.575 139.865C248.612 143.31 236.364 150.81 236.364 150.81Z" fill="#FFBDA7"/>
<path d="M262.931 135.741C259.852 136.095 258.255 136.941 254.835 139.091C251.415 141.241 245.604 145.009 245.604 145.009C245.604 145.009 245.905 149.949 249.668 154.249C252.405 157.376 254.633 157.116 254.633 157.116C254.633 157.116 263.81 150.368 265.669 147.767C267.528 145.165 268.896 137.367 262.931 135.741Z" fill="#41B06E"/>
<path opacity="0.2" d="M262.931 135.741C259.852 136.095 258.255 136.941 254.835 139.091C251.415 141.241 245.604 145.009 245.604 145.009C245.604 145.009 245.905 149.949 249.668 154.249C252.405 157.376 254.633 157.116 254.633 157.116C254.633 157.116 263.81 150.368 265.669 147.767C267.528 145.165 268.896 137.367 262.931 135.741Z" fill="black"/>
<path d="M278.342 89.0006L276.612 85.7481L278.004 81.7311V79.2725L273.745 81.7311V84.1905L275.576 87.3621C275.607 87.4157 275.652 87.4508 275.701 87.4727L275.7 87.474L278.342 89.0006Z" fill="#41B06E"/>
<path opacity="0.2" d="M278.342 89.0006L276.612 85.7481L278.004 81.7311V79.2725L273.745 81.7311V84.1905L275.576 87.3621C275.607 87.4157 275.652 87.4508 275.701 87.4727L275.7 87.474L278.342 89.0006Z" fill="black"/>
<path d="M288.512 59.7249C288.512 58.9107 287.941 57.9203 287.235 57.5132L286.196 56.9128C285.491 56.5056 284.348 56.5056 283.642 56.9128L267.697 66.1344C266.992 66.5416 266.42 67.5319 266.42 68.3462V85.8898C266.42 86.7041 266.992 87.6944 267.697 88.1016L268.736 88.702C269.441 89.1091 270.585 89.1091 271.29 88.702L276.418 85.7389L278.245 88.9039C278.362 89.1065 278.662 89.0774 278.739 88.8569L280.67 83.2822L287.235 79.4797C287.94 79.0726 288.512 78.0829 288.512 77.2679L288.512 59.7249Z" fill="#41B06E"/>
<path d="M284.439 71.7362V69.7442C284.439 69.3834 284.186 69.2371 283.873 69.4172L280.457 71.3893L280.457 67.4451C280.457 67.0843 280.204 66.938 279.891 67.1181L278.166 68.1137C277.854 68.2944 277.6 68.7333 277.6 69.0941V73.039L274.184 75.0111C273.872 75.1918 273.618 75.6307 273.618 75.9915V77.9828C273.618 78.3436 273.872 78.4899 274.184 78.3098L277.6 76.3377V80.2819C277.6 80.6427 277.854 80.789 278.166 80.609L279.891 79.6126C280.204 79.4326 280.457 78.993 280.457 78.6322V74.6887L283.873 72.7166C284.186 72.5359 284.439 72.097 284.439 71.7362Z" fill="#FAFAFA"/>
<path opacity="0.2" d="M266.421 85.8895C266.421 86.7038 266.993 87.6941 267.698 88.1013L268.737 88.7017C269.375 89.0698 270.366 89.1015 271.073 88.8043C270.472 89.0314 270.014 88.6924 270.014 87.9642V70.4206C270.014 70.0134 270.157 69.5626 270.388 69.1621L266.795 67.0874C266.564 67.4873 266.421 67.9387 266.421 68.3459V85.8895Z" fill="black"/>
<path opacity="0.3" d="M288.471 59.3623C288.322 58.8201 287.827 58.6473 287.238 58.9869L271.29 68.2112C270.939 68.4138 270.617 68.7594 270.391 69.1645L266.799 67.0918C267.031 66.6867 267.347 66.3411 267.698 66.1385L283.64 56.9142C284.349 56.5091 285.492 56.5091 286.196 56.9142L287.239 57.516C287.839 57.8609 288.346 58.6354 288.471 59.3623Z" fill="white"/>
</svg>
