<?xml version="1.0" encoding="UTF-8" standalone="no"?>
<!-- Created with Inkscape (http://www.inkscape.org/) -->

<svg
   width="120.483mm"
   height="50.93457mm"
   viewBox="0 0 120.483 50.93457"
   version="1.1"
   id="svg5"
   xml:space="preserve"
   inkscape:version="1.2.2 (b0a8486541, 2022-12-01)"
   sodipodi:docname="promo_facil.svg"
   xmlns:inkscape="http://www.inkscape.org/namespaces/inkscape"
   xmlns:sodipodi="http://sodipodi.sourceforge.net/DTD/sodipodi-0.dtd"
   xmlns:xlink="http://www.w3.org/1999/xlink"
   xmlns="http://www.w3.org/2000/svg"
   xmlns:svg="http://www.w3.org/2000/svg"><sodipodi:namedview
     id="namedview7"
     pagecolor="#505050"
     bordercolor="#ffffff"
     borderopacity="1"
     inkscape:showpageshadow="0"
     inkscape:pageopacity="0"
     inkscape:pagecheckerboard="1"
     inkscape:deskcolor="#505050"
     inkscape:document-units="mm"
     showgrid="false"
     inkscape:zoom="0.51224046"
     inkscape:cx="1486.6065"
     inkscape:cy="4246.0527"
     inkscape:window-width="1366"
     inkscape:window-height="699"
     inkscape:window-x="0"
     inkscape:window-y="32"
     inkscape:window-maximized="1"
     inkscape:current-layer="layer1" /><defs
     id="defs2"><linearGradient
       inkscape:collect="always"
       id="linearGradient1279"><stop
         style="stop-color:#000080;stop-opacity:1;"
         offset="0"
         id="stop1275" /><stop
         style="stop-color:#000080;stop-opacity:0;"
         offset="1"
         id="stop1277" /></linearGradient><linearGradient
       inkscape:collect="always"
       id="linearGradient1180"><stop
         style="stop-color:#0000ff;stop-opacity:1;"
         offset="0"
         id="stop1176" /><stop
         style="stop-color:#0000ff;stop-opacity:0;"
         offset="1"
         id="stop1178" /></linearGradient><linearGradient
       inkscape:collect="always"
       xlink:href="#linearGradient1180"
       id="linearGradient1182"
       x1="142.95535"
       y1="473.32025"
       x2="143.51399"
       y2="480.78793"
       gradientUnits="userSpaceOnUse"
       gradientTransform="matrix(1.9305375,0,0,1.9305375,-145.4879,-486.93221)" /><linearGradient
       inkscape:collect="always"
       xlink:href="#linearGradient1279"
       id="linearGradient1281"
       x1="162.0043"
       y1="486.75696"
       x2="162.62825"
       y2="491.71841"
       gradientUnits="userSpaceOnUse"
       gradientTransform="matrix(1.9305375,0,0,1.9305375,-143.15352,-484.44509)" /></defs><g
     inkscape:label="Camada 1"
     inkscape:groupmode="layer"
     id="layer1"
     transform="translate(-403.98808,-1166.7213)"><rect
       style="display:none;fill:#cccccc;stroke:none;stroke-width:4"
       id="rect1828"
       width="120.48298"
       height="50.934555"
       x="403.98807"
       y="1166.7213" /><g
       id="g2409"
       inkscape:export-filename="../../UFPI/Web1/Projeto/promofacil/copia_promo_facil/logo_branca__promo_facil.svg"
       inkscape:export-xdpi="96"
       inkscape:export-ydpi="96"><g
         id="g2399"
         transform="matrix(0.77081173,0,0,0.77081173,364.95834,551.36346)"
         style="fill:#ffffff"><text
           xml:space="preserve"
           style="font-style:normal;font-variant:normal;font-weight:bold;font-stretch:normal;font-size:31.6763px;font-family:Autography;-inkscape-font-specification:'Autography Bold';opacity:1;fill:#ffffff;stroke-width:24.3717"
           x="118.23525"
           y="823.7063"
           id="text2393"><tspan
             sodipodi:role="line"
             id="tspan2391"
             style="font-style:normal;font-variant:normal;font-weight:bold;font-stretch:normal;font-family:Coolvetica;-inkscape-font-specification:'Coolvetica Bold';fill:#ffffff;stroke-width:24.3717"
             x="118.23525"
             y="823.7063">Promo</tspan></text><text
           xml:space="preserve"
           style="font-style:normal;font-variant:normal;font-weight:bold;font-stretch:normal;font-size:47.2162px;font-family:Autography;-inkscape-font-specification:'Autography Bold';opacity:1;fill:#ffffff;stroke-width:36.3282"
           x="117.87784"
           y="859.44098"
           id="text2397"><tspan
             sodipodi:role="line"
             id="tspan2395"
             style="font-style:normal;font-variant:normal;font-weight:bold;font-stretch:normal;font-family:Coolvetica;-inkscape-font-specification:'Coolvetica Bold';fill:#ffffff;stroke-width:36.3282"
             x="117.87784"
             y="859.44098">Fácil</tspan></text></g><path
         id="path2401"
         style="fill:#ffffff;stroke-width:4.76563"
         d="m 411.82699,1170.3101 c -2.11907,0 -3.82509,1.706 -3.82509,3.8251 v 36.1068 c 0,2.1191 1.70602,3.8251 3.82509,3.8251 h 36.10684 c 2.11907,0 3.82509,-1.706 3.82509,-3.8251 v -36.1068 c 0,-2.1191 -1.70602,-3.8251 -3.82509,-3.8251 z m 27.83706,4.625 c 0.2334,0 0.32088,0.041 0.48576,0.2254 0.11058,0.1237 0.20102,0.2949 0.20102,0.3808 0,0.178 -0.77783,3.1265 -0.94051,3.5652 -0.0766,0.2066 -0.17293,0.3199 -0.33951,0.3989 -0.27807,0.132 -0.2884,0.1318 -0.57878,0.01 v 0 c -0.14955,-0.065 -0.26373,-0.1844 -0.33176,-0.3473 -0.1004,-0.2403 -0.0882,-0.3075 0.38344,-2.0644 0.54956,-2.0476 0.60997,-2.1643 1.12034,-2.1643 z m -8.13025,0.3928 c 0.0697,0 0.14134,0.019 0.25631,0.063 0.24502,0.093 0.35798,0.2697 2.10323,3.2892 1.01441,1.7549 1.86659,3.2258 1.89394,3.2681 0.036,0.056 0.14984,0.051 0.41342,-0.017 1.16422,-0.3019 2.58728,0.1329 3.44836,1.0532 0.66953,0.7157 0.97678,1.5015 0.97824,2.5001 0.004,0.8861 -0.32278,1.7525 -0.90072,2.4076 -0.16044,0.1818 -0.27647,0.3701 -0.25787,0.4186 0.0195,0.048 0.84939,1.5006 1.84589,3.2266 1.55039,2.6854 1.81177,3.1782 1.81177,3.4174 0,0.4318 -0.29806,0.6759 -0.76326,0.6253 -0.0572,-0.01 -0.38796,-0.1498 -0.73484,-0.3194 -1.42715,-0.6978 -2.83617,-1.0238 -4.43435,-1.0258 -1.62059,0 -2.92211,0.2862 -4.30207,0.953 -0.67453,0.3259 -5.89879,3.3047 -6.01048,3.4271 -0.0239,0.026 1.51904,1.375 3.42925,2.9968 3.87165,3.2874 4.00249,3.4055 4.21266,3.8173 0.42877,0.8406 0.22876,1.9539 -0.4594,2.5575 -0.39991,0.3507 -1.9274,1.2191 -2.38125,1.3539 -0.44237,0.1312 -0.68406,0.1345 -1.12862,0.015 v 0 c -0.17933,-0.048 -0.44451,-0.1678 -0.58963,-0.2656 -0.145,-0.098 -1.32987,-1.079 -2.63239,-2.1802 -1.30255,-1.1012 -2.83241,-2.3938 -3.3998,-2.8727 l -1.03146,-0.8713 -0.31264,0.094 c -0.24232,0.074 -0.39046,0.077 -0.66301,0.019 -0.50948,-0.1094 -0.81723,-0.3513 -1.14205,-0.8981 l -0.28422,-0.478 -0.39481,0.1385 c -3.03175,1.0655 -6.41924,-0.492 -7.57214,-3.4816 -0.92843,-2.4074 -0.23616,-5.0943 1.74666,-6.782 l 0.2589,-0.2207 -0.23823,-0.402 c -0.38736,-0.6534 -0.43742,-1.1919 -0.15916,-1.7203 0.18611,-0.3537 0.45181,-0.5428 2.06499,-1.4728 2.06204,-1.1889 1.95807,-1.1407 2.43861,-1.1384 0.62724,0 1.0078,0.2596 1.48156,0.9994 0.0592,0.092 0.29983,-0.025 1.59577,-0.7844 1.55166,-0.9081 1.79373,-1.0027 2.12028,-0.8279 0.16588,0.089 0.34314,0.4211 0.34314,0.6439 0,0.092 -0.0625,0.247 -0.1385,0.3437 -0.076,0.097 -0.82692,0.5725 -1.66863,1.0573 -1.47964,0.8524 -1.52695,0.8865 -1.43557,1.0305 0.052,0.082 1.15225,1.9829 2.44533,4.225 1.29301,2.242 2.37826,4.0762 2.41174,4.0762 0.0336,0 1.39343,-0.77 3.02204,-1.7115 3.16123,-1.8275 3.7127,-2.1143 4.71444,-2.4499 2.15127,-0.7208 4.79024,-0.7651 6.90242,-0.1163 0.18125,0.055 0.32918,0.088 0.32918,0.073 0,-0.1116 -8.70306,-15.0728 -8.75089,-15.0431 -0.0335,0.021 -0.0605,0.099 -0.0605,0.1731 0,0.2603 -0.50194,1.6997 -0.83561,2.3963 -0.42499,0.8873 -1.17199,2.0068 -1.74253,2.6117 -0.36616,0.3882 -0.47937,0.4682 -0.66301,0.4682 -0.33099,0 -0.55519,-0.13 -0.68109,-0.3953 -0.15026,-0.3169 -0.0757,-0.5176 0.40566,-1.0852 0.83729,-0.9869 1.55787,-2.2714 1.95233,-3.4804 0.22587,-0.6924 0.45372,-1.9861 0.45372,-2.5762 0,-0.5819 0.13292,-0.8942 0.44338,-1.0423 0.10774,-0.051 0.17574,-0.078 0.24547,-0.08 z m 14.42961,4.2907 c 0.1867,-0.014 0.35182,0.053 0.49868,0.2 0.26595,0.2661 0.28347,0.6764 0.0387,0.9121 -0.25925,0.2495 -4.07913,2.4346 -4.31085,2.466 -0.11445,0.016 -0.29338,-0.019 -0.39739,-0.078 l -5.1e-4,5e-4 c -0.10392,-0.058 -0.22082,-0.1661 -0.25994,-0.2392 -0.12392,-0.2314 -0.0834,-0.6058 0.0853,-0.7901 0.12778,-0.1397 3.18485,-1.9504 3.9858,-2.3606 0.12823,-0.066 0.24817,-0.1025 0.36019,-0.1106 z m -9.0873,3.6086 c -0.19897,0 -0.27234,0.017 -0.27234,0.066 0,0.07 1.60648,2.9173 1.99058,3.5274 l 0.10232,0.1623 0.16588,-0.2248 c 0.0913,-0.1236 0.21713,-0.3804 0.28009,-0.57 l 5.1e-4,5e-4 c 0.15674,-0.4721 0.10744,-1.2938 -0.10232,-1.7012 -0.3929,-0.764 -1.05273,-1.1928 -1.92184,-1.2485 -0.0962,-0.01 -0.17656,-0.01 -0.24288,-0.011 z m -10.68876,1.3337 c 0.46754,0 0.86988,0.545 0.59532,1.0098 -0.2012,0.3406 -0.58643,0.4497 -0.92501,0.262 h -5.2e-4 c -0.46344,-0.2569 -0.46209,-0.9073 0.004,-1.1819 0.10732,-0.063 0.2187,-0.091 0.32659,-0.09 z m 17.33435,1.9932 c 0.16588,0 0.88911,0.1831 3.58014,0.9074 0.29705,0.08 0.53391,0.3926 0.53433,0.7049 2.7e-4,0.2488 -0.32296,0.5997 -0.58962,0.6403 -0.12708,0.019 -0.82912,-0.1386 -1.80403,-0.4057 -0.87771,-0.2403 -1.68447,-0.4585 -1.79265,-0.4852 -0.52775,-0.1303 -0.7114,-0.7765 -0.32918,-1.1586 0.12955,-0.1296 0.27458,-0.2031 0.40101,-0.2031 z m -24.88841,1.666 c -0.0839,-2e-4 -2.55045,1.3808 -3.17861,1.7798 l -0.1602,0.1018 0.22169,0.3943 c 0.12201,0.217 0.39165,0.6851 0.59996,1.0402 0.36295,0.6188 0.38509,0.6417 0.52865,0.5498 0.0824,-0.053 0.84459,-0.4963 1.69396,-0.9859 l 1.54461,-0.8904 -0.12506,-0.2145 c -0.0686,-0.1179 -0.32607,-0.5658 -0.57258,-0.9948 -0.25648,-0.4464 -0.49288,-0.78 -0.55242,-0.7803 z m 1.89549,3.2376 c -0.14025,0.028 -3.34994,1.9143 -3.32744,1.9549 0.0141,0.025 0.28227,0.4898 0.59635,1.033 0.49686,0.8594 0.58747,0.9791 0.69608,0.9209 0.0687,-0.037 0.80713,-0.4598 1.64124,-0.9405 0.83411,-0.4808 1.5396,-0.8967 1.56786,-0.924 0.0609,-0.059 -1.08928,-2.0616 -1.17409,-2.0443 z m -5.30458,1.3937 c -0.19897,0 -0.94453,0.8904 -1.23042,1.4893 -0.64839,1.3581 -0.65504,2.724 -0.0196,4.0437 0.60644,1.2596 1.621,2.0895 3.01635,2.468 0.63813,0.1731 1.89928,0.1469 2.44946,-0.051 v 5e-4 l 0.35554,-0.1277 -2.23449,-3.8705 c -1.22907,-2.1288 -2.26623,-3.9018 -2.30477,-3.9403 -0.008,-0.01 -0.0188,-0.012 -0.032,-0.012 z m 7.23987,1.9135 c -0.12444,-0.014 -0.44971,0.1716 -1.69499,0.891 -0.92646,0.535 -1.68935,0.9776 -1.69499,0.9834 -0.0319,0.033 1.18396,2.0586 1.22525,2.0422 0.0274,-0.011 0.7869,-0.4413 1.68775,-0.9565 0.90088,-0.5152 1.63914,-0.9582 1.64021,-0.985 0.004,-0.043 -0.82186,-1.4977 -1.079,-1.9063 -0.0233,-0.037 -0.0427,-0.064 -0.0842,-0.069 z m 1.85156,3.2376 c -0.066,0 -3.17418,1.7796 -3.28248,1.8794 -0.0594,0.055 0.81758,1.6781 1.05575,1.9545 0.10005,0.116 0.11495,0.1158 0.31936,0 0.11796,-0.069 0.86285,-0.4976 1.65468,-0.953 v 0 c 0.79186,-0.4554 1.4397,-0.8538 1.4397,-0.8852 0,-0.1058 -1.1239,-1.9921 -1.18701,-1.9921 z m 2.55179,2.5321 c -0.0447,-0.015 -0.17493,0.1169 -0.28939,0.2925 -0.17814,0.2732 -0.3654,0.41 -1.29708,0.9462 -0.59886,0.3448 -1.07477,0.6498 -1.0573,0.678 0.0175,0.028 0.80303,0.7014 1.74511,1.496 0.94213,0.7947 2.35419,1.9875 3.13831,2.6505 1.563,1.3215 1.76045,1.4652 2.01228,1.4656 0.0937,2e-4 0.58606,-0.2364 1.09451,-0.5256 0.50846,-0.289 0.97006,-0.595 1.02578,-0.68 0.17061,-0.2604 0.19027,-0.5436 0.0543,-0.7809 -0.11356,-0.1983 -6.23811,-5.4802 -6.42648,-5.5423 z" /></g></g></svg>
