<svg width="377" height="370" viewBox="0 0 377 370" fill="none" xmlns="http://www.w3.org/2000/svg">
<path d="M310.559 359.881C341.144 359.881 365.937 345.566 365.937 327.908C365.937 310.25 341.144 295.936 310.559 295.936C279.975 295.936 255.182 310.25 255.182 327.908C255.182 345.566 279.975 359.881 310.559 359.881Z" fill="#E0E0E0"/>
<path d="M91.1813 35.0437L92.0826 38.6981L87.1504 39.9144L86.2482 36.2592C82.7368 36.6093 78.9675 35.7168 77.0209 31.6183L82.9519 28.3817C83.4977 29.6481 84.9555 31.205 87.5541 30.5643C89.1829 30.1632 90.122 29.2303 89.763 27.777C89.1882 25.4434 86.3368 26.0051 82.9475 25.9068C79.3176 25.7734 75.7554 24.9695 74.5715 20.1689C73.5078 15.8528 75.5421 12.7346 79.6187 11.0751L78.7174 7.41978L83.6943 6.19287L84.5956 9.84815C88.6248 9.50939 91.6008 10.9706 93.3402 14.0467L87.7085 17.164C87.0082 15.6545 85.5259 14.9453 83.3231 15.4877C81.2537 15.9976 80.7332 17.1069 81.0053 18.2083C81.4494 20.0145 83.0896 20.0303 86.6422 20.0417C90.3949 20.0996 95.1902 20.2242 96.5374 25.6856C97.623 30.0904 95.2912 33.3288 91.1813 35.0437Z" fill="#1E0342"/>
<path d="M368.143 204.482L367.033 202.056C364.892 202.603 362.068 202.585 360.056 199.826L359.812 199.491L364.116 195.961L364.387 196.36C364.632 196.727 365.57 197.865 367.248 197.098C367.7 196.89 368.022 196.637 368.176 196.364C368.322 196.107 368.32 195.824 368.174 195.502C367.775 194.631 366.825 194.772 365.038 195.126C364.635 195.205 364.211 195.289 363.771 195.359C361.23 195.742 358.425 195.679 356.874 192.287C355.62 189.544 356.388 186.951 358.977 185.123L357.867 182.696L361.887 180.856L362.999 183.288C365.676 182.653 367.944 183.327 369.568 185.25L369.853 185.588L365.726 189.014L365.451 188.63C364.717 187.606 363.603 187.83 362.796 188.199C361.85 188.631 361.511 189.159 361.787 189.764C362.164 190.592 362.952 190.487 365.374 190.035C367.826 189.608 371.525 188.965 373.301 192.846C374.569 195.618 373.736 198.289 371.02 200.226L372.131 202.656L368.143 204.482ZM367.517 201.005L368.575 203.32L370.972 202.225L369.915 199.914L370.229 199.707C371.735 198.714 374.034 196.552 372.507 193.211C371.013 189.946 367.975 190.474 365.534 190.899C363.046 191.362 361.673 191.618 360.993 190.129C360.809 189.727 360.371 188.344 362.435 187.402C363.801 186.776 365.026 186.911 365.865 187.76L368.603 185.488C367.153 183.998 365.226 183.574 362.873 184.227L362.512 184.327L361.457 182.019L359.031 183.129L360.089 185.442L359.769 185.648C358.021 186.779 356.238 188.785 357.673 191.923C358.907 194.619 360.949 194.9 363.637 194.493C364.063 194.425 364.476 194.344 364.869 194.266C366.617 193.922 368.267 193.596 368.972 195.139C369.238 195.72 369.227 196.294 368.941 196.798C368.69 197.24 368.244 197.609 367.613 197.898C366.013 198.627 364.713 198.056 363.957 197.23L361.02 199.637C362.835 201.806 365.333 201.65 367.151 201.114L367.517 201.005Z" fill="#1E0342"/>
<path d="M108.891 185.052L109.353 182.425C107.28 181.661 104.965 180.045 104.875 176.631L104.863 176.216L110.411 175.753L110.406 176.235C110.4 176.676 110.527 178.145 112.344 178.465C112.835 178.551 113.243 178.524 113.525 178.388C113.791 178.259 113.95 178.025 114.012 177.677C114.178 176.733 113.316 176.31 111.644 175.587C111.267 175.424 110.871 175.253 110.468 175.061C108.159 173.934 105.884 172.291 106.533 168.618C107.056 165.647 109.16 163.948 112.329 163.912L112.793 161.284L117.146 162.051L116.682 164.684C119.247 165.68 120.731 167.522 120.978 170.027L121.021 170.468L115.678 170.947L115.669 170.476C115.646 169.216 114.602 168.768 113.728 168.614C112.704 168.434 112.125 168.675 112.009 169.331C111.85 170.227 112.557 170.587 114.808 171.59C117.07 172.63 120.481 174.199 119.741 178.401C119.211 181.403 117.01 183.13 113.674 183.184L113.209 185.815L108.891 185.052ZM110.348 181.833L109.906 184.34L112.501 184.798L112.942 182.296L113.317 182.303C115.121 182.341 118.242 181.865 118.88 178.247C119.502 174.712 116.701 173.423 114.449 172.387C112.139 171.358 110.863 170.788 111.148 169.177C111.224 168.742 111.649 167.354 113.883 167.749C115.364 168.009 116.296 168.815 116.505 169.991L120.048 169.674C119.699 167.624 118.354 166.183 116.044 165.385L115.69 165.263L116.132 162.763L113.505 162.3L113.064 164.805L112.684 164.793C110.603 164.732 107.996 165.372 107.397 168.77C106.884 171.69 108.405 173.08 110.85 174.27C111.238 174.455 111.625 174.623 111.993 174.781C113.627 175.491 115.17 176.158 114.876 177.829C114.765 178.458 114.43 178.924 113.909 179.177C113.453 179.399 112.875 179.449 112.191 179.329C110.46 179.022 109.714 177.814 109.559 176.704L105.776 177.02C106.039 179.836 108.185 181.125 109.987 181.715L110.348 181.833Z" fill="#E0E0E0"/>
<path d="M8.9365 27.2847L4.3606 26.2667L4.9881 23.4495C2.78353 22.5324 0.345506 20.6806 0.41045 16.9824L0.41747 16.5681L6.37123 16.3347L6.34578 16.8147C6.32032 17.3009 6.38965 18.9219 8.36605 19.3625C9.44552 19.6047 10.0844 19.3335 10.2564 18.5594C10.4873 17.5177 9.56312 17.0148 7.77103 16.1434C7.37083 15.9485 6.94958 15.744 6.52393 15.5176C4.08679 14.1942 1.71547 12.3143 2.58869 8.39137C3.30746 5.15998 5.6077 3.46706 9.08745 3.60397L9.71495 0.78418L14.3233 1.80924L13.6941 4.63341C16.4287 5.82697 17.9479 7.88498 18.0953 10.6047L18.119 11.0462L12.3855 11.3051L12.3978 10.8338C12.4347 9.44451 11.3078 8.90038 10.3556 8.68888C9.22963 8.43876 8.57843 8.68186 8.4152 9.41028C8.19755 10.3958 8.94879 10.8241 11.3578 12.0308C13.7476 13.2621 17.3529 15.1192 16.3559 19.6038C15.6389 22.8203 13.1745 24.572 9.56136 24.4632L8.9365 27.2847ZM5.4076 25.6006L8.26951 26.2368L8.86805 23.5434L9.24367 23.568C11.2069 23.6953 14.627 23.3293 15.5011 19.4125C16.3506 15.5887 13.3632 14.0494 10.9629 12.8128C8.52841 11.5938 7.1839 10.9207 7.5604 9.21896C7.66396 8.75997 8.18087 7.30488 10.5478 7.83145C12.1354 8.18425 13.099 9.10399 13.2553 10.3871L17.1826 10.2098C16.9114 7.93851 15.5151 6.28947 13.0262 5.30479L12.6778 5.167L13.2781 2.47447L10.3828 1.83118L9.78165 4.52809L9.4034 4.50001C7.13739 4.33151 4.26494 4.90196 3.447 8.58093C2.74403 11.7404 4.33515 13.3297 6.9408 14.7444C7.35328 14.9647 7.76488 15.1648 8.15542 15.3544C9.87819 16.1916 11.5053 16.9832 11.1139 18.7508C10.8304 20.0172 9.73074 20.5657 8.17648 20.2199C6.31418 19.8048 5.57259 18.4884 5.47606 17.2483L1.29421 17.4124C1.42849 20.5192 3.7138 22.0374 5.65333 22.7694L6.00965 22.9036L5.4076 25.6006Z" fill="#1E0342"/>
<path d="M375.011 27.5818L370.921 29.8724L369.512 27.3536C367.257 28.1391 364.205 28.3839 361.788 25.5834L361.517 25.2701L365.8 21.1278L366.101 21.5025C366.406 21.8825 367.539 23.0445 369.305 22.0554C370.272 21.5166 370.566 20.8891 370.179 20.1966C369.657 19.2663 368.633 19.5068 366.716 20.0509C366.288 20.1729 365.838 20.3011 365.369 20.416C362.671 21.0541 359.65 21.2322 357.686 17.7261C356.068 14.8379 356.654 12.0427 359.34 9.82582L357.929 7.3053L362.047 4.99805L363.46 7.52295C366.295 6.59005 368.799 7.11223 370.721 9.04123L371.033 9.35454L366.931 13.3688L366.626 13.0089C365.727 11.9479 364.525 12.2937 363.674 12.7702C362.668 13.3337 362.345 13.9489 362.707 14.6018C363.202 15.4821 364.047 15.3004 366.648 14.5939C369.25 13.919 373.176 12.901 375.421 16.9082C377.03 19.7841 376.361 22.7321 373.594 25.0586L375.011 27.5818ZM371.258 28.6788L373.815 27.2456L372.466 24.8383L372.762 24.6067C374.31 23.3929 376.617 20.8399 374.658 17.3382C372.743 13.9208 369.49 14.765 366.876 15.4426C364.248 16.1561 362.798 16.551 361.944 15.031C361.715 14.6194 361.13 13.1906 363.246 12.0049C364.665 11.2098 365.996 11.2537 366.968 12.1059L369.778 9.3563C368.063 7.84329 365.923 7.54489 363.41 8.4699L363.059 8.59979L361.712 6.19248L359.125 7.64231L360.475 10.0531L360.174 10.2839C358.372 11.6688 356.611 14.0085 358.453 17.2961C360.034 20.1203 362.28 20.244 365.166 19.5621C365.62 19.4515 366.06 19.326 366.478 19.2075C368.32 18.6836 370.061 18.1895 370.946 19.7675C371.579 20.9005 371.125 22.0423 369.736 22.8207C368.071 23.7527 366.641 23.2657 365.742 22.4047L362.734 25.314C364.904 27.5405 367.62 27.1491 369.554 26.4023L369.909 26.2645L371.258 28.6788Z" fill="#1E0342"/>
<path d="M190.463 105.952L189.372 109.712L184.299 108.241L185.389 104.481C182.046 102.971 179.114 100.206 179.497 95.5029L186.518 95.674C186.351 97.0993 186.854 99.2582 189.527 100.032C191.203 100.518 192.531 100.167 192.965 98.6737C193.661 96.2726 190.801 95.2967 187.804 93.444C184.604 91.436 181.816 88.8602 183.248 83.9227C184.535 79.4829 187.988 77.7347 192.522 78.3613L193.612 74.6016L198.729 76.0856L197.639 79.8453C201.442 81.6357 203.361 84.4993 203.329 88.173L196.636 88.0493C196.791 86.3274 195.825 84.9171 193.562 84.2606C191.433 83.6428 190.387 84.3712 190.058 85.5033C189.519 87.3604 190.988 88.2275 194.181 90.0854C197.529 92.0881 201.782 94.6964 200.153 100.313C198.837 104.845 195.054 106.547 190.463 105.952Z" fill="#1E0342"/>
<path d="M296.436 36.4268L295.159 40.563L289.578 38.8394L290.855 34.7032C287.188 32.9708 284.005 29.857 284.516 24.6659L292.273 24.9915C292.062 26.5642 292.577 28.9583 295.515 29.8666C297.36 30.4362 298.837 30.0755 299.343 28.4317C300.16 25.7919 297.015 24.6553 293.736 22.5491C290.241 20.2699 287.207 17.3659 288.883 11.9343C290.392 7.05385 294.244 5.18629 299.243 5.96824L300.519 1.83203L306.151 3.57234L304.874 7.70856C309.041 9.75955 311.108 12.9637 311 17.0227L303.605 16.7568C303.811 14.8559 302.77 13.2788 300.278 12.51C297.935 11.786 296.766 12.5697 296.382 13.8159C295.75 15.8581 297.356 16.8463 300.85 18.964C304.512 21.2397 309.163 24.2051 307.253 30.3836C305.714 35.3649 301.499 37.1737 296.436 36.4268Z" fill="#1E0342"/>
<path d="M259.903 237.317L261.305 240.69L256.754 242.582L255.351 239.209C252.038 240.063 248.293 239.76 245.825 236.116L251.034 232.142C251.744 233.277 253.37 234.552 255.767 233.557C257.271 232.931 258.034 231.9 257.476 230.56C256.583 228.407 253.929 229.365 250.665 229.768C247.169 230.174 243.633 229.927 241.791 225.498C240.137 221.518 241.629 218.228 245.294 216.039L243.891 212.667L248.484 210.758L249.886 214.131C253.696 213.213 256.766 214.178 258.886 216.87L253.944 220.686C253.052 219.342 251.526 218.881 249.494 219.725C247.584 220.52 247.248 221.659 247.671 222.674C248.362 224.34 249.937 224.115 253.347 223.604C256.95 223.106 261.568 222.521 263.662 227.56C265.35 231.623 263.59 235.07 259.903 237.317Z" fill="#E0E0E0"/>
<path d="M197.556 42.8159L196.295 39.6845C193.571 40.2708 189.98 40.126 187.591 36.512L187.362 36.1653L192.844 32.0826L193.095 32.4933C193.401 32.9936 194.572 34.5531 196.833 33.6457C197.547 33.3587 198.022 32.9778 198.206 32.5451C198.336 32.238 198.326 31.9027 198.17 31.5192C197.681 30.3028 196.431 30.4309 194.081 30.7802C193.564 30.8575 193.021 30.9391 192.459 31.0014C189.254 31.334 185.745 31.0944 184.001 26.766C182.56 23.1827 183.674 20.04 187.135 17.8801L185.875 14.7479L190.873 12.7373L192.136 15.8739C195.573 15.1964 198.403 16.1644 200.344 18.6884L200.614 19.0386L195.365 22.9993L195.109 22.6035C194.195 21.1914 192.704 21.4178 191.617 21.8549C190.848 22.1647 190.344 22.5614 190.156 23.0019C190.034 23.2871 190.041 23.6031 190.177 23.9383C190.64 25.0924 191.667 25.009 194.846 24.5702C197.946 24.1762 202.632 23.5838 204.623 28.5344C206.058 32.1002 204.829 35.4184 201.253 37.6853L202.515 40.8202L197.556 42.8159ZM196.827 38.656L198.043 41.6741L201.374 40.3331L200.161 37.3194L200.485 37.1272C202.489 35.9362 205.587 33.2797 203.81 28.8609C202.073 24.5404 198.132 25.0406 194.962 25.4399C191.833 25.8726 190.104 26.1113 189.363 24.2666C189.14 23.7154 189.135 23.1581 189.348 22.6579C189.633 21.9883 190.286 21.4441 191.29 21.0404C193.054 20.3313 194.586 20.5911 195.566 21.7487L199.37 18.8789C197.575 16.7901 195.086 16.0933 191.965 16.8068L191.599 16.8902L190.387 13.8782L187.017 15.2341L188.231 18.2514L187.904 18.4418C185.574 19.7986 183.146 22.2875 184.816 26.4387C186.337 30.2168 189.343 30.445 192.365 30.129C192.913 30.0676 193.446 29.9886 193.952 29.9123C196.239 29.5718 198.215 29.276 198.985 31.191C199.227 31.793 199.237 32.3643 199.014 32.8892C198.736 33.5403 198.095 34.0836 197.16 34.4601C195.091 35.2921 193.51 34.4899 192.618 33.3446L188.56 36.3671C190.779 39.3809 194.058 39.337 196.457 38.7464L196.827 38.656Z" fill="#E0E0E0"/>
<path d="M348.812 308.677L342.461 305.007C342.461 305.007 338.681 289.299 340.187 275.166C342.305 255.295 355.386 247.818 360.359 249.531C365.332 251.245 366.774 257.027 358.543 268.862C353.688 275.845 347.723 290.389 348.812 308.677Z" fill="#BA68C8"/>
<path d="M346.18 300.96C346.2 300.959 346.221 300.957 346.241 300.952C346.479 300.907 346.637 300.677 346.591 300.438C343.109 282.11 349.513 261.514 357.441 252.944C357.606 252.766 357.595 252.487 357.416 252.322C357.237 252.159 356.959 252.167 356.794 252.347C348.721 261.073 342.193 282.005 345.726 300.603C345.768 300.821 345.965 300.972 346.18 300.96Z" fill="white"/>
<path d="M364.797 317.906C365.746 318.389 368.269 316.229 368.973 315.704C370.177 314.806 371.126 313.57 371.73 312.197C372.432 310.599 372.545 308.92 372.213 307.207C372.041 306.319 371.747 305.461 371.454 304.605C371.166 303.765 370.878 302.925 370.59 302.086C370.306 301.257 370.018 300.4 370.085 299.525C370.221 297.766 371.712 296.463 373.068 295.335C374.569 294.088 376.116 292.464 376.001 290.36C375.913 288.736 374.996 287.27 373.925 286.046C372.854 284.822 371.603 283.756 370.625 282.457C369.921 281.521 369.354 280.409 369.401 279.239C369.431 278.513 369.697 277.816 370.01 277.16C370.684 275.753 371.601 274.448 372.04 272.949C372.479 271.451 372.313 269.623 371.111 268.628C370.123 267.811 368.716 267.761 367.443 267.909C366.266 268.047 365.138 268.638 364.134 269.265C360.886 271.292 359.178 275.346 355.705 276.955C354.365 277.575 352.873 277.772 351.466 278.22C350.059 278.669 348.643 279.471 348.048 280.823C346.878 283.488 349.455 286.57 348.679 289.377C347.993 291.859 345.667 292.914 344.445 295.183C343.911 296.176 343.832 297.295 343.982 298.412C344.238 300.302 344.585 301.681 345.603 303.747C346.443 305.454 348.811 308.68 348.811 308.68C348.811 308.68 364.652 317.833 364.797 317.906Z" fill="#BA68C8"/>
<g opacity="0.3">
<path d="M364.797 317.906C365.746 318.389 368.269 316.229 368.973 315.704C370.177 314.806 371.126 313.57 371.73 312.197C372.432 310.599 372.545 308.92 372.213 307.207C372.041 306.319 371.747 305.461 371.454 304.605C371.166 303.765 370.878 302.925 370.59 302.086C370.306 301.257 370.018 300.4 370.085 299.525C370.221 297.766 371.712 296.463 373.068 295.335C374.569 294.088 376.116 292.464 376.001 290.36C375.913 288.736 374.996 287.27 373.925 286.046C372.854 284.822 371.603 283.756 370.625 282.457C369.921 281.521 369.354 280.409 369.401 279.239C369.431 278.513 369.697 277.816 370.01 277.16C370.684 275.753 371.601 274.448 372.04 272.949C372.479 271.451 372.313 269.623 371.111 268.628C370.123 267.811 368.716 267.761 367.443 267.909C366.266 268.047 365.138 268.638 364.134 269.265C360.886 271.292 359.178 275.346 355.705 276.955C354.365 277.575 352.873 277.772 351.466 278.22C350.059 278.669 348.643 279.471 348.048 280.823C346.878 283.488 349.455 286.57 348.679 289.377C347.993 291.859 345.667 292.914 344.445 295.183C343.911 296.176 343.832 297.295 343.982 298.412C344.238 300.302 344.585 301.681 345.603 303.747C346.443 305.454 348.811 308.68 348.811 308.68C348.811 308.68 364.652 317.833 364.797 317.906Z" fill="white"/>
</g>
<path d="M355.604 313.114C355.609 313.114 355.615 313.113 355.615 313.113C355.85 313.091 356.019 312.889 355.998 312.66C354.477 296.174 361.341 277.544 366.733 271.959C366.893 271.794 366.889 271.53 366.723 271.369C366.557 271.21 366.294 271.215 366.133 271.38C360.632 277.077 353.625 296.018 355.166 312.735C355.188 312.96 355.381 313.126 355.604 313.114Z" fill="white"/>
<path d="M357.242 292.788C357.282 292.786 357.323 292.779 357.364 292.764C362.588 290.855 369.189 290.233 369.254 290.226C369.484 290.205 369.652 290.002 369.632 289.774C369.611 289.545 369.427 289.373 369.178 289.396C369.11 289.403 362.406 290.035 357.077 291.982C356.862 292.061 356.75 292.299 356.829 292.515C356.893 292.691 357.063 292.797 357.242 292.788Z" fill="white"/>
<path d="M188.928 362.086C188.895 362.031 188.852 361.983 188.82 361.927L137.957 275.23V275.228C137.05 273.83 137.074 271.847 138.242 269.611C140.577 265.138 146.609 261.347 151.711 261.141C154.263 261.038 156.1 261.853 157.006 263.251L215.402 345.209C215.438 345.259 215.463 345.315 215.498 345.364C215.558 345.451 215.624 345.531 215.683 345.619C220.414 352.919 218.296 362.58 210.949 367.199C203.604 371.819 193.812 369.645 189.081 362.346C189.025 362.262 188.982 362.172 188.928 362.086Z" fill="#37474F"/>
<path d="M151.713 261.141C156.815 260.935 159.058 264.396 156.722 268.869C154.385 273.342 148.355 277.135 143.252 277.339C138.15 277.544 135.907 274.084 138.243 269.611C140.579 265.138 146.609 261.347 151.713 261.141Z" fill="#263238"/>
<path d="M204.822 347.089L153.644 272.714C154.927 271.551 155.995 270.243 156.724 268.873C157.881 266.646 157.924 264.685 157.025 263.277L215.402 345.208C215.439 345.257 215.463 345.313 215.499 345.363C215.558 345.45 215.625 345.529 215.683 345.618C220.415 352.918 218.297 362.579 210.95 367.198C214.399 363.55 210.794 355.768 204.822 347.089Z" fill="#455A64"/>
<path d="M125.002 243.398C126.415 240.693 130.06 238.4 133.146 238.277C134.689 238.214 135.799 238.706 136.348 239.552L136.351 239.551L153.244 265.616L153.242 265.618C153.79 266.463 153.775 267.663 153.069 269.015C151.656 271.72 148.009 274.012 144.924 274.136C143.381 274.198 142.272 273.705 141.723 272.859L124.829 246.793C124.281 245.949 124.295 244.751 125.002 243.398Z" fill="#E0E0E0"/>
<path opacity="0.25" d="M145.638 253.88L139.359 244.192C136.081 247.537 132.711 250.695 129.268 253.643L135.447 263.176C138.946 260.239 142.35 257.132 145.638 253.88Z" fill="black"/>
<path d="M157.349 107.263L139.496 96.8935C126.621 89.4672 108.831 90.5406 89.1739 101.878C49.8726 124.575 18.0093 179.757 18.0093 225.151C18.0093 247.847 25.978 263.785 38.8634 271.223L56.6705 281.558C62.0619 284.678 68.3133 286.294 75.2074 286.294C84.7699 286.294 95.5645 283.174 106.991 276.572C146.293 253.887 178.156 198.693 178.156 153.311C178.157 130.638 170.2 114.701 157.349 107.263ZM124.568 204.549C112.101 226.138 95.6998 243.534 78.3832 253.538C69.3073 258.772 60.4903 261.608 52.8272 261.733C49.1193 255.143 47.1301 246.259 47.1301 235.487C47.1301 215.492 53.9916 192.591 66.458 171.002C78.9257 149.413 95.3264 132.017 112.643 122.014C121.72 116.769 130.548 113.943 138.211 113.818C141.907 120.42 143.896 129.305 143.896 140.064C143.897 160.061 137.036 182.96 124.568 204.549Z" fill="#BA68C8"/>
<path opacity="0.1" d="M36.6118 159.014L64.2195 175.007C64.9455 173.667 65.691 172.333 66.4599 171.002C70.3929 164.192 74.7175 157.801 79.3387 151.927L51.6607 135.894C46.0833 143.114 41.0171 150.898 36.6118 159.014ZM69.0073 116.892C65.6988 119.93 62.493 123.179 59.4044 126.607L87.2216 142.721C90.4234 139.287 93.728 136.093 97.1106 133.172L69.0073 116.892Z" fill="white"/>
<path opacity="0.25" d="M56.5797 281.502L38.8624 271.224C25.9771 263.786 18.0083 247.849 18.0083 225.152C18.0083 224.282 18.0421 223.411 18.0642 222.529L35.8596 232.865C35.8375 233.747 35.8258 234.617 35.8258 235.488C35.8271 258.116 43.762 274.042 56.5797 281.502Z" fill="black"/>
<path d="M138.777 113.807C138.596 113.807 138.403 113.807 138.212 113.819C141.908 120.42 143.897 129.305 143.897 140.064C143.897 160.06 137.036 182.96 124.568 204.55C112.1 226.139 95.6997 243.535 78.3831 253.538C69.3072 258.772 60.4902 261.608 52.8271 261.733C57.6201 270.29 65.2831 274.992 75.2073 274.992C83.007 274.992 92.0374 272.155 101.341 266.787C118.658 256.795 135.058 239.399 147.526 217.81C159.994 196.22 166.854 173.309 166.854 153.313C166.854 128.582 156.365 113.807 138.777 113.807Z" fill="#BA68C8"/>
<path opacity="0.25" d="M138.777 113.807C138.596 113.807 138.403 113.807 138.212 113.819C141.908 120.42 143.897 129.305 143.897 140.064C143.897 160.06 137.036 182.96 124.568 204.55C112.1 226.139 95.6997 243.535 78.3831 253.538C69.3072 258.772 60.4902 261.608 52.8271 261.733C57.6201 270.29 65.2831 274.992 75.2073 274.992C83.007 274.992 92.0374 272.155 101.341 266.787C118.658 256.795 135.058 239.399 147.526 217.81C159.994 196.22 166.854 173.309 166.854 153.313C166.854 128.582 156.365 113.807 138.777 113.807Z" fill="black"/>
<path opacity="0.3" d="M156.173 147.174C156.173 167.17 149.313 190.081 136.845 211.671C124.377 233.261 107.976 250.656 90.6598 260.648C81.3575 266.018 72.3258 268.854 64.5262 268.854C62.0399 268.854 59.7111 268.56 57.5176 267.983H57.5059C55.7313 266.209 54.1713 264.118 52.8261 261.733C49.1182 255.144 47.1289 246.259 47.1289 235.488C47.1289 215.492 53.9905 192.592 66.4569 171.003C78.9246 149.413 95.3253 132.018 112.642 122.014C121.719 116.77 130.547 113.944 138.21 113.819C138.402 113.807 138.593 113.807 138.774 113.807C141.272 113.807 143.623 114.101 145.817 114.7C152.488 121.358 156.173 132.515 156.173 147.174Z" fill="white"/>
<path d="M106.993 112.225C67.6877 134.917 35.8257 190.105 35.8257 235.49C35.8257 280.875 67.689 299.271 106.993 276.579C146.297 253.886 178.16 198.698 178.16 153.313C178.16 107.929 146.297 89.5321 106.993 112.225ZM101.341 266.785C92.039 272.154 83.0073 274.99 75.2076 274.99C65.2834 274.99 57.6204 270.288 52.8275 261.732C49.1195 255.142 47.1303 246.257 47.1303 235.486C47.1303 215.491 53.9919 192.59 66.4583 171.001C78.926 149.412 95.3266 132.016 112.643 122.012C121.72 116.768 130.548 113.942 138.211 113.817C138.403 113.805 138.595 113.805 138.776 113.805C156.363 113.805 166.853 128.578 166.853 153.311C166.853 173.306 159.993 196.219 147.525 217.808C135.059 239.397 118.658 256.793 101.341 266.785Z" fill="#BA68C8"/>
<g opacity="0.3">
<path d="M106.993 112.225C67.6877 134.917 35.8257 190.105 35.8257 235.49C35.8257 280.875 67.689 299.271 106.993 276.579C146.297 253.886 178.16 198.698 178.16 153.313C178.16 107.929 146.297 89.5321 106.993 112.225ZM101.341 266.785C92.039 272.154 83.0073 274.99 75.2076 274.99C65.2834 274.99 57.6204 270.288 52.8275 261.732C49.1195 255.142 47.1303 246.257 47.1303 235.486C47.1303 215.491 53.9919 192.59 66.4583 171.001C78.926 149.412 95.3266 132.016 112.643 122.012C121.72 116.768 130.548 113.942 138.211 113.817C138.403 113.805 138.595 113.805 138.776 113.805C156.363 113.805 166.853 128.578 166.853 153.311C166.853 173.306 159.993 196.219 147.525 217.808C135.059 239.397 118.658 256.793 101.341 266.785Z" fill="white"/>
</g>
<g opacity="0.3">
<path d="M53.0877 171.869C46.6112 184.69 41.5711 198.261 38.6347 212.306C37.2218 219.331 36.298 226.471 36.2148 233.635C36.0782 240.79 36.7729 247.973 38.5514 254.89C40.3702 261.763 43.3066 268.464 47.9864 273.868C52.6024 279.29 58.9241 283.228 65.8625 284.9C72.7995 286.631 80.1477 286.26 87.0873 284.576C94.0816 282.986 100.717 280.053 106.994 276.58C100.785 280.174 94.1961 283.244 87.1849 284.98C80.2101 286.733 72.7852 287.156 65.7285 285.449C58.6717 283.8 52.19 279.827 47.4517 274.331C42.6483 268.855 39.6169 262.062 37.7331 255.103C35.9767 248.081 35.3275 240.827 35.5109 233.622C35.6436 226.409 36.6194 219.238 38.0856 212.191C39.587 205.148 41.6569 198.235 44.151 191.487C46.7205 184.766 49.7168 178.215 53.0877 171.869Z" fill="white"/>
</g>
<g opacity="0.3">
<path d="M138.777 113.807C142.326 113.789 145.908 114.357 149.216 115.722C152.525 117.082 155.492 119.244 157.899 121.909C160.325 124.573 162.097 127.758 163.499 131.05C164.934 134.346 165.803 137.851 166.458 141.369C167.639 148.44 167.746 155.657 167.063 162.771C166.423 169.898 165.012 176.935 163.088 183.819C161.185 190.712 158.685 197.432 155.741 203.942C152.798 210.454 149.455 216.786 145.69 222.86C138.172 235.004 129.141 246.289 118.395 255.803C112.994 260.514 107.166 264.771 100.884 268.28C94.603 271.756 87.8143 274.542 80.5936 275.605C76.9963 276.142 73.2819 276.163 69.6507 275.48C66.0378 274.757 62.5302 273.29 59.5795 271.049C58.0911 269.951 56.7355 268.678 55.5437 267.278C54.3455 265.885 53.2591 264.393 52.3614 262.801C50.5218 259.641 49.2182 256.213 48.3165 252.717C46.5081 245.706 46.1556 238.457 46.5185 231.322C46.9349 224.178 48.0524 217.09 49.8348 210.182C51.6133 203.273 53.9435 196.52 56.7602 189.983C59.5548 183.438 62.8112 177.098 66.458 171.003C59.6289 183.443 54.0827 196.643 50.9108 210.446C49.2598 217.322 48.2476 224.345 47.9445 231.387C47.6882 238.419 48.1487 245.526 49.9962 252.267C50.9147 255.63 52.2131 258.885 53.9929 261.84C55.7506 264.797 57.9909 267.476 60.7465 269.481C63.4709 271.53 66.6844 272.854 70.0306 273.511C73.3925 274.126 76.874 274.1 80.2957 273.57C87.1573 272.529 93.7313 269.813 99.8305 266.395C105.939 262.946 111.623 258.746 116.905 254.107C127.494 244.823 136.462 233.737 143.944 221.778C151.402 209.794 157.384 196.864 161.424 183.34C163.421 176.574 164.915 169.648 165.648 162.631C166.429 155.625 166.406 148.512 165.371 141.551C164.81 138.085 164.039 134.626 162.71 131.37C161.416 128.117 159.758 124.961 157.449 122.303C155.159 119.642 152.305 117.459 149.081 116.034C145.866 114.585 142.327 113.902 138.777 113.807Z" fill="white"/>
</g>
<path d="M346.04 309.004C345.191 297.332 346.171 292.44 345.199 274.217C345.112 269.546 344.944 264.542 344.63 260.096C343.576 245.139 341.271 240.025 341.057 237.139C341.057 237.139 341.283 219.209 340.306 186.481C339.847 171.085 335.386 166.423 331.821 158.251H289.449C284.716 178.416 283.926 216.383 284.066 237.166C284.138 247.762 288.354 300.432 288.44 301.736C288.744 306.361 288.34 308.187 286.527 310.132C282.73 314.205 277.227 318.083 272.469 321.635C273.158 323.455 278.879 323.388 281.711 322.003C286.236 319.79 290.727 316.414 292.271 315.271C296.18 312.377 301.175 310.056 301.239 305.652C301.25 305.104 301.399 304.953 301.371 304.866C301.446 302.295 307.499 268.388 307.998 259.589C308.427 252.025 307.505 239.187 307.505 239.187L311.829 213.149C311.829 213.149 314.215 226.747 317.259 239.68C319.737 250.207 324.155 264.116 326.944 277.072C329.621 291.997 333.557 302.621 334.237 310.092C334.442 311.875 336.462 329.385 337.297 333.394C338.131 337.404 346.872 337.51 347.433 330.613C347.807 326.022 346.2 311.2 346.04 309.004Z" fill="#B16668"/>
<path d="M264.376 326.286C264.135 326.284 263.741 328.946 265.042 330.094C266.545 331.418 270.974 333.614 276.865 332.916C282.755 332.218 285.96 330.432 288.335 328.488C290.71 326.543 294.039 323.799 296.707 323.241C299.184 322.722 301.881 321.632 302.68 320.876C303.478 320.12 303.406 316.722 303.406 316.722L264.376 326.286Z" fill="#263238"/>
<path d="M301.496 303.622C301.496 303.622 301.94 303.641 302.083 304.428C302.254 305.366 302.421 308.09 302.793 309.632C303.31 311.773 303.625 316.153 303.282 317.891C302.94 319.628 298.896 320.794 296.311 321.747C293.67 322.72 290.606 324.753 287.912 326.926C285.124 329.175 279.283 331.4 275.449 331.415C269.595 331.438 265.822 329.81 264.674 327.694C263.254 325.076 264.405 323.579 271.165 320.535C272.444 319.959 276.946 317.36 278.48 316.416C280.101 315.42 281.657 314.309 283.093 313.059C283.82 312.426 284.516 311.757 285.168 311.049C285.743 310.425 286.55 309.672 286.895 308.892C286.973 308.715 287.028 308.507 287.098 308.324C287.3 307.794 287.44 307.305 287.553 306.752C287.667 306.194 287.745 305.379 288.28 305.05C288.895 304.672 289.997 304.732 290.687 304.791C291.556 304.867 292.429 304.986 293.277 305.186C294.264 305.419 295.409 305.519 295.986 306.455C296.429 307.172 296.487 308.074 296.515 308.898C296.527 309.29 296.515 309.686 296.514 310.079C296.514 310.247 296.438 310.548 296.674 310.48C296.899 310.416 297.154 309.832 297.241 309.633C297.433 309.195 297.557 308.727 297.766 308.296C298.005 307.803 298.273 307.3 298.618 306.881C298.94 306.491 299.291 306.116 299.694 305.808C300.061 305.528 300.528 305.392 300.854 305.074C301.269 304.672 301.456 303.954 301.496 303.622Z" fill="#37474F"/>
<path d="M270.075 321.037C278.543 321.712 281.155 326.973 281.48 330.216C279.373 330.937 277.202 331.409 275.449 331.416C269.595 331.439 265.58 329.811 264.433 327.694C263.094 325.223 264.043 323.253 270.075 321.037Z" fill="#FAFAFA"/>
<path d="M282.776 321.258C282.868 321.259 282.961 321.23 283.04 321.168C283.219 321.026 283.247 320.765 283.104 320.586C281.939 319.129 278.558 317.18 275.475 317.483C275.247 317.505 275.08 317.708 275.103 317.935C275.125 318.162 275.322 318.328 275.555 318.307C278.433 318.033 281.535 319.948 282.459 321.104C282.538 321.204 282.656 321.257 282.776 321.258Z" fill="#F0F0F0"/>
<path d="M286.449 319.172C286.541 319.173 286.634 319.144 286.712 319.081C286.891 318.939 286.919 318.679 286.777 318.5C285.612 317.041 282.229 315.089 279.149 315.397C278.92 315.419 278.754 315.621 278.777 315.849C278.798 316.075 278.991 316.242 279.228 316.221C282.106 315.943 285.209 317.862 286.131 319.017C286.21 319.117 286.329 319.171 286.449 319.172Z" fill="#F0F0F0"/>
<path d="M289.856 316.779C289.948 316.78 290.041 316.751 290.119 316.688C290.298 316.546 290.326 316.285 290.183 316.106C289.02 314.647 285.624 312.698 282.555 313.003C282.327 313.025 282.16 313.228 282.183 313.455C282.205 313.682 282.399 313.847 282.635 313.827C285.509 313.551 288.614 315.468 289.537 316.624C289.617 316.725 289.736 316.778 289.856 316.779Z" fill="#F0F0F0"/>
<path d="M293.194 314.386C293.285 314.386 293.376 314.358 293.452 314.299C293.634 314.159 293.666 313.899 293.526 313.719C291.925 311.652 288.272 310.263 285.193 310.567C284.965 310.588 284.798 310.791 284.821 311.018C284.843 311.246 285.039 311.405 285.273 311.391C288.046 311.119 291.452 312.394 292.873 314.226C292.952 314.329 293.073 314.384 293.194 314.386Z" fill="#F0F0F0"/>
<path d="M334.553 336.519C334.786 340.516 335.407 343.167 336.825 345.511C338.244 347.855 340.919 348.59 343.629 347.905C346.338 347.218 349.809 345.383 350.586 341.935C351.362 338.487 351.815 336.125 351.199 332.417L334.553 336.519Z" fill="#263238"/>
<path d="M345.944 307.577C347.06 307.665 347.39 313.032 348.034 318.405C348.724 324.165 350.444 326.547 351.06 331.269C351.764 336.665 350.871 339.075 348.981 342.337C347.09 345.6 340.398 348.799 337.1 344.127C334.411 340.318 334.3 336.094 334.545 330.707C334.798 325.137 334.413 321.281 334.186 317.055C333.968 313.015 333.074 308.941 334.044 308.492C334.118 309.085 334.191 309.838 334.27 310.421C334.367 311.138 334.37 311.89 334.63 312.574C334.744 312.874 334.992 313.189 335.094 312.701C335.163 312.369 335.13 312.027 335.093 311.696C334.93 310.208 335.68 310.087 336.084 309.971C336.962 309.72 340.427 309.295 341.263 309.238C342.116 309.179 345.06 309.052 345.442 309.537C345.701 309.866 345.738 310.416 345.818 311.097C345.913 311.909 346.101 312.504 346.124 312.249C346.178 311.668 346.064 310.156 346.05 309.791C346.036 309.44 345.979 308.963 345.975 308.612C345.97 308.268 345.967 307.922 345.944 307.577Z" fill="#37474F"/>
<path d="M351.369 334.395C351.562 337.745 350.761 340.04 349.282 342.594C347.391 345.856 340.16 349.067 336.862 344.395C335.22 342.07 334.781 339.321 334.555 336.518C336.532 332.916 348.252 331.33 351.369 334.395Z" fill="#FAFAFA"/>
<path d="M336.991 330.651C337.038 330.646 337.083 330.634 337.129 330.613C337.174 330.592 342.34 328.456 347.368 329.62C347.59 329.667 347.812 329.532 347.865 329.309C347.916 329.086 347.776 328.863 347.554 328.812C342.236 327.585 336.969 329.773 336.772 329.866C336.566 329.966 336.479 330.212 336.577 330.418C336.653 330.579 336.823 330.668 336.991 330.651Z" fill="#F0F0F0"/>
<path d="M347.117 325.598C347.274 325.582 347.415 325.478 347.468 325.32C347.541 325.103 347.425 324.868 347.209 324.794C342.204 323.099 336.649 325.644 336.44 325.754C336.237 325.859 336.159 326.109 336.266 326.312C336.374 326.514 336.626 326.587 336.825 326.486C336.872 326.463 342.285 323.996 346.943 325.58C347.001 325.598 347.059 325.603 347.117 325.598Z" fill="#F0F0F0"/>
<path d="M346.942 321.806C347.096 321.79 347.234 321.688 347.29 321.534C347.367 321.317 347.255 321.081 347.04 321.004C341.535 319.032 336.262 321.814 336.067 321.932C335.872 322.051 335.809 322.305 335.929 322.501C336.047 322.696 336.307 322.759 336.497 322.639C336.54 322.612 341.637 319.949 346.76 321.783C346.821 321.806 346.882 321.812 346.942 321.806Z" fill="#F0F0F0"/>
<path d="M346.668 318.074C346.819 318.059 346.957 317.959 347.014 317.808C347.093 317.593 346.986 317.355 346.771 317.275C341.613 315.343 335.937 318.194 335.725 318.318C335.526 318.431 335.459 318.685 335.573 318.884C335.686 319.082 335.939 319.153 336.138 319.035C336.187 319.007 341.691 316.256 346.481 318.051C346.543 318.072 346.606 318.08 346.668 318.074Z" fill="#EBEBEB"/>
<path d="M332.957 158.386C337.977 167.541 341.701 175.021 342.209 202.24C342.717 229.458 342.012 231.742 342.119 235.024C342.225 238.306 344.136 244.172 345.813 260.34C347.49 276.507 345.838 291.717 345.838 291.717C345.838 291.717 344.681 294.319 338.499 294.873C332.796 295.384 329.971 293.244 329.971 293.244C329.971 293.244 321.82 265.814 319.657 256.076C317.493 246.338 311.831 219.661 311.831 219.661L308.659 239.624C308.659 239.624 310.399 248.546 308.659 262.724C306.92 276.901 304.263 287.2 304.263 287.2C304.263 287.2 299.915 288.92 295.036 288.847C290.157 288.773 287.086 286.608 287.086 286.608C287.086 286.608 282.566 248.663 282.565 232.593C282.565 216.523 283.365 182.356 288.423 158.564L332.957 158.386Z" fill="#BA68C8"/>
<path opacity="0.6" d="M332.957 158.386C337.977 167.541 341.701 175.021 342.209 202.24C342.717 229.458 342.012 231.742 342.119 235.024C342.225 238.306 344.136 244.172 345.813 260.34C347.49 276.507 345.838 291.717 345.838 291.717C345.838 291.717 344.681 294.319 338.499 294.873C332.796 295.384 329.971 293.244 329.971 293.244C329.971 293.244 321.82 265.814 319.657 256.076C317.493 246.338 311.831 219.661 311.831 219.661L308.659 239.624C308.659 239.624 310.399 248.546 308.659 262.724C306.92 276.901 304.263 287.2 304.263 287.2C304.263 287.2 299.915 288.92 295.036 288.847C290.157 288.773 287.086 286.608 287.086 286.608C287.086 286.608 282.566 248.663 282.565 232.593C282.565 216.523 283.365 182.356 288.423 158.564L332.957 158.386Z" fill="white"/>
<path d="M335.769 237.913C335.769 237.913 332.636 234.638 326.608 235.366C320.58 236.093 318.124 239.641 318.124 239.641C324.582 236.73 335.769 237.913 335.769 237.913ZM321.58 240.803C325.127 241.51 328.674 241.823 336.446 240.288C332.759 239.391 321.58 240.803 321.58 240.803Z" fill="#B16668"/>
<path d="M298.274 237.306C296.052 236.026 287.79 234.351 282.598 235.043L282.649 236.785C282.649 236.785 290.449 236.125 298.274 237.306ZM282.742 239.046L282.827 240.681C282.827 240.681 291.109 240.259 294.586 239.325C288.665 238.863 282.742 239.046 282.742 239.046Z" fill="#B16668"/>
<path opacity="0.3" d="M340.693 247.589C340.49 246.657 340.299 245.77 340.122 244.924C338.548 237.406 339.189 232.912 339.214 220.462C339.221 216.7 339.229 212.81 339.193 208.678C339.051 192.464 337.801 174.311 329.602 162.605L328.942 163.068C334.453 170.938 336.773 181.828 337.737 193.067C329.6 191.987 327.817 183.948 325.392 172.881C325.06 171.368 324.717 169.803 324.345 168.197L323.557 168.378C323.929 169.982 324.272 171.543 324.603 173.053C327.024 184.097 328.947 192.846 337.804 193.902C338.198 198.85 338.343 203.853 338.386 208.683C338.422 212.813 338.414 216.7 338.407 220.46C338.381 232.958 337.74 237.488 339.332 245.089C339.509 245.937 339.701 246.824 339.904 247.759C342.011 257.483 345.5 268.02 343.926 293.426C344.259 293.241 344.539 293.057 344.77 292.88C346.267 267.727 342.793 257.281 340.693 247.589ZM292.593 185.272C293.728 190.62 299.939 193.585 303.814 194.514L304.548 197.967C304.358 200.861 304.151 203.898 303.936 207.035C302.755 224.322 302.093 236.192 302.976 240.225C305.306 250.841 304.617 257.572 303.367 269.794C303.239 271.045 303.106 272.35 302.969 273.721C302.263 280.821 301.419 283.77 300.903 288.234C301.199 288.169 301.481 288.103 301.738 288.038C302.255 283.563 303.08 280.754 303.771 273.801C303.908 272.431 304.042 271.125 304.17 269.876C305.428 257.572 306.122 250.795 303.764 240.051C302.905 236.131 303.619 223.518 304.74 207.09C304.876 205.098 305.01 203.147 305.138 201.244L308.593 220.405L308.659 239.623L311.831 219.661L306.697 191.249C306.697 191.249 298.565 191.518 292.593 185.272Z" fill="#BA68C8"/>
<path d="M297.811 111.732C291.329 113.281 288.106 114.171 284.116 120.186C280.025 126.35 275.881 133.223 269.725 142.67L253.591 135.133L247.122 146.376C247.122 146.376 263.64 155.823 270.886 159.164C275.484 161.284 278.864 159.767 282.412 156.064C286.358 151.944 295.902 137.93 295.902 137.93L297.811 111.732Z" fill="#37474F"/>
<path d="M269.724 142.67C272.45 143.592 275.348 146.19 275.848 147.74C274.282 142.971 271.811 142.103 270.507 141.473L269.724 142.67Z" fill="#263238"/>
<path d="M340.82 178.725C339.748 170.767 335.466 155.604 335.219 153.77C333.786 143.111 335.679 137.7 336.377 133.037C337.895 122.881 334.985 114.371 332.621 112.371C332.621 112.371 329.937 111.705 327.682 111.3C325.895 110.979 324.519 110.769 322.163 110.197C316.3 108.774 309.887 110.174 307.652 110.401C306.551 110.513 305.064 110.263 303.072 110.729C301.493 111.097 297.816 111.729 297.811 111.733C297.811 111.733 294.205 114.679 290.829 120.711C288.254 125.315 286.479 128.887 286.081 137.994C285.421 153.141 285.459 172.272 284.989 180.865C293.374 186.02 319.792 189.357 332.484 183.435L332.422 170.823L335.403 182.382C336.422 181.943 339.146 180.61 340.82 178.725Z" fill="#455A64"/>
<path d="M304.525 131.816C304.184 134.134 303.95 136.464 303.723 138.794C303.298 143.457 303.082 148.133 302.887 152.808C302.763 157.485 302.66 162.163 302.702 166.84C302.73 169.179 302.753 171.517 302.816 173.855C302.892 176.193 302.973 178.53 303.102 180.865L303.322 166.844C303.41 162.172 303.506 157.502 303.692 152.834C303.819 148.165 304.046 143.5 304.338 138.841C304.489 136.512 304.655 134.182 304.915 131.865C305.149 129.545 305.417 127.218 306.06 124.968C305.243 127.169 304.892 129.508 304.525 131.816Z" fill="#37474F"/>
<path d="M233.653 122.128L233.626 122.131L234.88 120.96L234.881 120.976C235.166 120.729 235.618 120.638 236.211 120.774L259.421 126.165C260.739 126.468 262.208 127.733 262.701 128.993L273.994 157.804C274.256 158.472 274.183 158.996 273.867 159.304L273.878 159.306L272.585 160.514V160.497C272.303 160.753 271.845 160.848 271.243 160.71L248.032 155.32C246.714 155.017 245.245 153.751 244.753 152.492C242.534 146.828 235.677 129.343 233.46 123.679C233.183 122.97 233.284 122.424 233.653 122.128Z" fill="#BA68C8"/>
<path opacity="0.35" d="M233.653 122.128L233.626 122.131L234.88 120.96L234.881 120.976C235.166 120.729 235.618 120.638 236.211 120.774L259.421 126.165C260.739 126.468 262.208 127.733 262.701 128.993L273.994 157.804C274.256 158.472 274.183 158.996 273.867 159.304L273.878 159.306L272.585 160.514V160.497C272.303 160.753 271.845 160.848 271.243 160.71L248.032 155.32C246.714 155.017 245.245 153.751 244.753 152.492C242.534 146.828 235.677 129.343 233.46 123.679C233.183 122.97 233.284 122.424 233.653 122.128Z" fill="white"/>
<path d="M259.729 128.088C260.485 128.638 261.146 129.409 261.447 130.17L272.743 158.972C272.988 159.619 272.944 160.136 272.661 160.443L273.877 159.312L273.864 159.3C274.186 158.991 274.256 158.473 273.997 157.801L262.701 128.986C262.428 128.276 261.82 127.566 261.116 127.015L259.729 128.088Z" fill="#BA68C8"/>
<path d="M272.738 158.978L261.445 130.168C260.952 128.908 259.484 127.642 258.166 127.339L234.955 121.949C233.637 121.646 232.968 122.422 233.462 123.68C235.679 129.343 242.537 146.829 244.755 152.492C245.249 153.751 246.717 155.018 248.035 155.32L271.246 160.711C272.563 161.013 273.232 160.237 272.738 158.978Z" fill="#BA68C8"/>
<path opacity="0.15" d="M272.738 158.978L261.445 130.168C260.952 128.908 259.484 127.642 258.166 127.339L234.955 121.949C233.637 121.646 232.968 122.422 233.462 123.68C235.679 129.343 242.537 146.829 244.755 152.492C245.249 153.751 246.717 155.018 248.035 155.32L271.246 160.711C272.563 161.013 273.232 160.237 272.738 158.978Z" fill="black"/>
<path d="M261.672 136.295L259.559 130.903C259.467 130.668 259.191 130.431 258.944 130.374L256.282 129.763C256.035 129.706 255.91 129.852 256.003 130.087C256.418 131.147 257.701 134.42 258.116 135.479C258.208 135.715 258.483 135.952 258.73 136.008L261.392 136.619C261.638 136.676 261.764 136.53 261.672 136.295Z" fill="#BA68C8"/>
<path d="M259.481 132.215C259.255 131.641 258.556 131.058 257.919 130.912C257.282 130.765 256.947 131.112 257.173 131.686C257.4 132.259 258.098 132.843 258.735 132.99C259.372 133.135 259.705 132.789 259.481 132.215Z" fill="#263238"/>
<path d="M260.512 134.937C260.287 134.363 259.587 133.78 258.95 133.634C258.313 133.488 257.978 133.834 258.205 134.408C258.431 134.981 259.129 135.565 259.766 135.712C260.404 135.857 260.737 135.511 260.512 134.937Z" fill="#263238"/>
<path d="M237.579 141.091C236.106 139.447 236.198 139.197 236.791 138.211C237.382 137.225 238.765 135.555 241.105 135.369C242.679 135.244 244.259 135.04 245.114 135.369C245.969 135.698 245.466 137.476 243.473 138.157C240.331 139.233 240.448 140.105 240.448 140.105C240.448 140.105 243.341 139.118 244.525 138.921C245.709 138.723 247.945 139.053 249.327 139.118C250.708 139.184 251.168 140.907 248.932 141.762C248.932 141.762 250.675 141.849 251.464 141.887C253.236 141.975 253.931 142.838 252.68 144.066C252.382 144.358 251.965 144.703 251.168 144.831C251.168 144.831 253.023 144.626 253.129 145.239C253.433 146.996 252.337 147.586 248.706 149.085C245.245 150.514 244.719 152.52 245.574 153.769C245.574 153.769 244.042 153.088 242.662 152.342C241.652 151.796 240.776 151.154 241.038 149.641C241.038 149.641 239 149.904 238.736 148.655C238.473 147.405 238.934 145.892 238.934 145.892C238.934 145.892 237.67 145.431 237.579 143.919C237.488 142.406 238.079 141.617 238.079 141.617L237.579 141.091Z" fill="#B16668"/>
<path d="M248.931 141.761C248.169 141.73 247.447 141.643 246.645 141.764C245.829 141.928 245.184 142.341 244.532 142.698C243.243 143.457 241.979 144.262 240.821 145.238C242.246 144.713 243.564 144.016 244.858 143.274C245.503 142.901 246.131 142.483 246.767 142.264C247.431 142.081 248.213 141.982 248.931 141.761Z" fill="#9A4A4D"/>
<path d="M251.168 144.831C250.366 144.686 249.5 144.761 248.714 145.025C247.921 145.27 247.184 145.634 246.467 146.014C245.048 146.802 243.691 147.685 242.458 148.758C243.966 148.133 245.375 147.357 246.782 146.597C248.195 145.839 249.541 145.041 251.168 144.831Z" fill="#9A4A4D"/>
<path d="M303.679 134.059C300.754 131.879 299.281 131.036 297.918 130.65C296.555 130.265 291.771 128.274 289.938 127.817C288.775 127.527 288.304 129.377 289.785 130.65C290.926 131.63 293.891 132.914 295.191 133.627C296.492 134.339 299.047 137.442 299.047 137.442L303.679 134.059Z" fill="#9A4A4D"/>
<path d="M344.772 119.838C341.873 113.659 340.803 113.966 333.789 113.153C328.763 119.061 331.139 133.085 331.139 133.085L334.675 150.431C334.675 150.431 317.193 145.729 315.215 144.464C313.237 143.2 307.929 137.494 306.149 135.785C303.726 133.459 302.524 133.771 301.292 133.956C297.26 134.561 296.375 134.9 295.522 135.443C294.668 135.985 294.738 137.013 294.738 137.013C293.668 137.147 292.065 137.113 291.858 138.872C291.722 140.033 291.794 140.282 291.794 140.282C291.794 140.282 291.409 140.32 291.098 140.681C290.207 141.713 291.735 145.286 292.706 146.157C293.387 146.769 294.359 146.845 295.634 146.673C296.719 146.525 296.214 145.422 296.214 145.422L297.732 145.512C301.011 147.842 301.177 152.458 305.512 153.475C306.427 153.69 308.309 153.664 310.807 154.503C320.143 157.637 335.444 167.142 343.761 167.857C351.879 168.556 351.646 164.23 351.773 159.258C351.887 154.819 347.663 125.999 344.772 119.838Z" fill="#B16668"/>
<path d="M334.328 148.731L334.674 150.432C338.37 151.383 342.362 154.044 343.249 156.064C342.56 152.861 340.833 150.466 334.328 148.731Z" fill="#9A4A4D"/>
<path d="M332.62 112.371C337.735 112.995 341.075 112.925 343.25 116.063C345.426 119.202 345.914 120.112 347.497 127.787C349.08 135.463 351.925 152.282 351.5 155.263C348.196 151.959 334.675 150.431 334.675 150.431L334.329 150.337C334.329 150.337 332.433 141.261 331.554 138.234C330.675 135.208 328.266 119.912 332.62 112.371Z" fill="#37474F"/>
<path d="M333.679 147.292C333.182 147.548 333.026 147.93 333.221 148.731C333.416 149.532 333.41 150.087 333.41 150.087C333.41 150.087 333.133 150.046 334.675 150.431C336.217 150.816 344.072 154.357 347.109 158.053C350.147 161.749 351.052 165.121 351.052 165.121C351.052 165.121 350.763 165.967 349.89 166.702C350.712 166.698 351.611 166.071 352.403 164.005C352.761 163.072 351.975 162.021 352.637 159.882C353.298 157.742 353.081 156.284 352.52 154.707C351.959 153.13 354.172 151.661 351.167 149.838C348.162 148.014 340.051 145.636 333.679 147.292Z" fill="#455A64"/>
<path d="M294.738 137.012L299.525 136.045L294.838 136.348C294.764 136.574 294.729 136.795 294.738 137.012Z" fill="#9A4A4D"/>
<path d="M291.794 140.281L297.305 139.566L291.787 139.641C291.764 139.841 291.771 140.056 291.794 140.281Z" fill="#9A4A4D"/>
<path d="M292.521 142.708C292.689 142.992 292.967 143.206 293.262 143.352C293.559 143.507 293.875 143.604 294.205 143.673L294.131 143.62C294.277 143.909 294.435 144.191 294.595 144.472L294.709 144.325C294.389 144.267 294.076 144.355 293.833 144.54C293.59 144.723 293.441 144.991 293.353 145.259C293.494 145.011 293.691 144.802 293.913 144.659C294.141 144.529 294.421 144.473 294.66 144.522L294.871 144.566L294.773 144.375C294.625 144.088 294.473 143.803 294.312 143.522L294.286 143.478L294.238 143.469C293.93 143.416 293.619 143.324 293.323 143.216C293.032 143.096 292.739 142.956 292.521 142.708Z" fill="#9A4A4D"/>
<path d="M293.985 143.417C294.534 143.532 295.98 143.558 295.98 143.558C295.98 143.558 296.022 143.951 296.665 144.617C297.009 144.973 297.733 145.509 297.733 145.509L296.216 145.419C296.216 145.419 295.845 144.741 294.48 144.48L293.985 143.417Z" fill="#9A4A4D"/>
<path d="M322.274 101.306C322.54 99.7021 326.271 94.8357 328.276 91.2374C330.282 87.6383 331.778 78.8455 328.041 74.4767C327.724 74.1055 327.688 72.7355 327.472 72.209C327.142 71.4051 326.684 70.6582 326.141 69.9798C325.013 68.5686 323.529 67.4681 321.947 66.6124C320.25 65.6935 318.379 65.2942 316.802 64.2077C315.009 62.9738 312.959 62.112 310.821 61.7004C309.99 61.5406 309.112 61.4502 308.316 61.7346C307.499 62.026 306.86 62.6789 306.073 63.0422C304.592 63.7259 302.869 63.2985 301.265 63.0089C299.343 62.6622 297.315 62.5411 295.476 63.202C293.638 63.8628 292.034 65.4513 291.828 67.3935C291.736 68.2649 291.923 69.1399 291.956 70.0158C291.99 70.8917 291.833 71.8456 291.2 72.4512C290.939 72.7013 290.614 72.8742 290.335 73.105C289.905 73.4604 289.59 73.9545 289.45 74.4943C289.195 75.4754 289.524 76.4584 289.937 77.3439C290.406 78.3496 290.557 78.4953 290.355 79.5959C290.152 80.6999 291.039 81.8794 292.156 81.99C291.797 81.0281 292.174 79.8442 293.023 79.2668C292.303 79.7565 293.081 81.7135 293.428 82.1945C294.127 83.1642 295.441 83.6812 296.612 83.6513C296.397 83.6566 296.693 85.0222 296.742 85.1477C296.949 85.6839 297.261 86.0551 297.754 86.321C298.361 86.6493 298.991 86.9178 299.595 87.2908C300.911 88.1035 302.225 88.917 303.541 89.7297C306.643 91.6473 309.746 93.5649 312.848 95.4816C315.991 97.4238 319.133 99.3651 322.274 101.306Z" fill="#263238"/>
<path d="M297.063 74.8647C296.327 75.7958 295.965 76.7717 295.781 77.9925C295.558 79.473 295.564 80.9816 295.674 82.4718C295.798 84.1463 295.837 85.8322 295.552 87.4866C294.367 94.36 295.885 101.976 300.51 104.222C302.262 105.072 304.365 105.305 307.125 105.035L307.187 107.793C307.211 108.893 306.493 109.871 305.437 110.177L302.783 110.823C302.525 114.981 302.989 119.649 306.061 124.969C312.952 123.585 325.364 114.515 328.054 111.41C324.954 111.734 322.277 109.256 322.363 106.14L322.607 97.3281C322.607 97.3281 324.476 99.3396 327.961 96.5953C329.34 95.5088 330.306 94.0985 330.542 92.3459C330.755 90.7662 330.263 89.0829 329.165 87.9166C328.27 86.9679 326.874 86.3562 325.645 86.7906C324.412 87.2259 323.742 88.5098 322.867 89.4805C322.731 89.6314 322.583 89.7798 322.395 89.857C322.116 89.972 321.791 89.9114 321.522 89.7754C320.796 89.4094 320.422 88.5686 320.342 87.7595C320.262 86.9512 320.418 86.1403 320.468 85.3294C320.484 85.0749 320.485 84.8046 320.356 84.5851C320.221 84.3561 319.97 84.2262 319.74 84.0928C318.185 83.1897 317.067 81.5696 316.772 79.796C316.503 78.1803 316.853 76.3785 315.961 75.0059C315.369 74.095 314.34 73.5737 313.334 73.163C309.284 71.5095 304.633 70.9996 300.525 72.5039C299.793 72.7715 299.072 73.0963 298.4 73.4903C297.905 73.7799 297.682 74.1494 297.312 74.5663C297.226 74.6654 297.142 74.7646 297.063 74.8647Z" fill="#B16668"/>
<path d="M307.125 105.035C314.885 104.043 319.393 99.7052 320.669 96.8994C320.669 96.8994 320.081 100.81 317.168 103.275C312.87 106.914 307.17 107.37 307.17 107.37L307.125 105.035Z" fill="#9A4A4D"/>
<path d="M309.767 94.9121L305.043 96.4773C305.452 97.8293 306.841 98.5751 308.144 98.1434C309.449 97.7118 310.176 96.265 309.767 94.9121Z" fill="#9A4A4D"/>
<path d="M309.479 96.0115C308.151 95.9939 307.033 96.9248 306.766 98.1759C307.205 98.2961 307.68 98.2979 308.146 98.1435C309.083 97.8338 309.712 96.9985 309.847 96.0536C309.725 96.0352 309.604 96.0132 309.479 96.0115Z" fill="#F28F8F"/>
<path d="M297.11 82.366L300.59 80.7815C300.186 79.7962 299.078 79.3523 298.117 79.7892C297.156 80.227 296.704 81.3808 297.11 82.366Z" fill="#263238"/>
<path d="M313.913 82.8189L310.497 80.994C310.969 80.0245 312.116 79.6464 313.06 80.1508C314.003 80.6544 314.385 81.8494 313.913 82.8189Z" fill="#263238"/>
<path d="M305.66 83.3447L305.248 93.4144L300.059 91.3382L305.66 83.3447Z" fill="#9A4A4D"/>
<path d="M301.259 85.1733C301.335 86.041 300.687 86.8263 299.811 86.928C298.934 87.0289 298.162 86.4069 298.086 85.5392C298.009 84.6706 298.658 83.8862 299.533 83.7853C300.411 83.6835 301.184 84.3056 301.259 85.1733Z" fill="#263238"/>
<path d="M312.819 85.3252C312.895 86.1929 312.247 86.9781 311.37 87.0799C310.493 87.1808 309.721 86.5587 309.645 85.691C309.568 84.8224 310.217 84.0381 311.093 83.9372C311.97 83.8354 312.743 84.4575 312.819 85.3252Z" fill="#263238"/>
<path d="M321.502 57.882C320.921 57.8679 320.355 57.9715 319.944 58.3611C319.493 58.7885 319.347 59.4661 318.898 59.8961C318.371 60.3998 317.573 60.442 316.855 60.5727C315.91 60.7447 314.903 61.2187 314.593 62.1279C314.315 62.9388 314.675 63.8691 314.382 64.6747C314.186 65.2136 313.721 65.6243 313.542 66.1693C312.833 68.3335 316.599 68.4458 317.457 69.8667C317.883 70.5714 317.836 71.4885 318.274 72.1862C319.333 73.8748 322.402 73.2552 323.358 75.0043C323.757 75.7344 323.631 76.6682 324.041 77.3923C324.954 79.0053 327.612 80.0506 329.318 79.2818C329.867 79.0352 330.333 78.6279 330.893 78.4085C331.782 78.0593 332.87 78.1944 333.614 77.595C334.349 77.0026 334.451 75.9363 334.46 74.992C334.469 74.0477 334.478 73.0015 335.118 72.3065C335.384 72.0169 335.74 71.8168 335.984 71.5087C336.393 70.9909 336.41 70.2458 336.185 69.6254C335.855 68.7214 335.144 68.3984 334.632 67.7306C335.293 67.505 337.158 67.742 337.551 68.4502C337.231 67.8736 336.904 67.2883 336.431 66.8293C335.958 66.3703 335.31 66.0464 334.654 66.1184C335.237 65.7401 335.491 64.9854 335.428 64.2947C335.364 63.6031 335.031 62.966 334.645 62.3876C334.739 63.2582 334.248 64.1631 333.467 64.5589C333.697 63.0976 333.121 60.7158 331.616 60.0892C330.828 59.7618 329.866 60.1576 329.186 59.4696C328.75 59.029 328.672 58.3322 328.265 57.8662C327.814 57.3501 327.07 57.2273 326.388 57.1702C326.126 57.1483 325.853 57.1333 325.612 57.236C325.352 57.3466 325.166 57.5783 324.94 57.7459C324.242 58.262 323.278 58.1198 322.422 57.9802C322.123 57.9302 321.81 57.889 321.502 57.882Z" fill="#263238"/>
<path d="M306.062 124.969C306.062 124.969 313.635 120.188 316.547 117.654C322.009 112.902 322.625 109.27 322.625 109.27C322.625 109.27 322.566 108.298 322.413 107.022C323.151 107.12 323.285 107.701 324.121 108.754C325.615 110.635 328.277 111.381 328.277 111.381C328.277 111.381 328.054 114.322 323.951 119.851C320.664 124.279 312.792 128.774 311.791 129.024C310.79 129.275 306.062 124.969 306.062 124.969Z" fill="#37474F"/>
<path d="M306.061 124.969C303.296 119.825 304.666 114.733 305.164 113.098C305.662 111.463 306.061 110.008 306.061 110.008C306.061 110.008 307.156 109.399 307.186 107.792L307.165 107.12C307.165 107.12 306.4 107.335 305.337 108.465C304.273 109.593 302.501 110.895 300.426 111.266C297.977 116.214 297.839 122.442 299.983 126.634C300.324 127.219 306.061 124.969 306.061 124.969Z" fill="#37474F"/>
</svg>
