<svg width="446" height="446" viewBox="0 0 446 446" fill="none" xmlns="http://www.w3.org/2000/svg">
<path d="M76.227 372.863C155.399 413.341 283.761 413.342 362.932 372.864C442.104 332.385 442.104 266.757 362.932 226.279C283.761 185.8 155.397 185.8 76.2252 226.278C-2.94515 266.756 -2.94516 332.385 76.227 372.863Z" fill="#F5F5F5"/>
<path d="M335.152 308.196C339.491 310.701 348.018 309.839 354.198 306.271L389.821 285.582C396.001 282.014 397.486 277.087 393.138 274.577C388.79 272.067 380.257 272.927 374.078 276.497L338.483 297.195C332.305 300.766 330.813 305.691 335.152 308.196Z" fill="#EBEBEB"/>
<path d="M120.698 327.276L84.4648 306.356L120.698 285.437V327.276Z" fill="#EBEBEB"/>
<path d="M223.106 339.791L164.707 306.052L223.121 272.379L223.106 339.791Z" fill="#EBEBEB"/>
<path d="M71.6802 278.363C71.7819 269.888 65.8634 252.259 57.2012 241.149C48.539 230.039 34.8085 221.827 24.9465 225.069C15.7607 228.089 16.6072 240.102 27.6109 248.188C38.6146 256.274 55.1782 266.465 59.8933 280.271L69.9319 297.261L71.6802 278.363Z" fill="#8DECB4"/>
<path opacity="0.1" d="M71.6802 278.363C71.7819 269.888 65.8634 252.259 57.2012 241.149C48.539 230.039 34.8085 221.827 24.9465 225.069C15.7607 228.089 16.6072 240.102 27.6109 248.188C38.6146 256.274 55.1782 266.465 59.8933 280.271L69.9319 297.261L71.6802 278.363Z" fill="black"/>
<path d="M72.1666 289.967C71.8972 289.942 71.6661 289.741 71.6144 289.462C66.2874 260.464 43.1667 236.668 29.2212 231.303C28.9028 231.18 28.7431 230.821 28.8653 230.503C28.9866 230.185 29.3381 230.019 29.6654 230.147C43.8759 235.612 67.4247 259.8 72.832 289.238C72.8944 289.575 72.6714 289.897 72.3351 289.958C72.2789 289.97 72.2219 289.973 72.1666 289.967Z" fill="white"/>
<path d="M67.6301 308.434C66.326 303.654 60.6012 295.722 51.2682 289.115C40.9433 281.806 27.8077 278.344 24.8373 272.717C21.2693 265.956 27.0076 259.677 37.6857 261.132C48.3638 262.587 66.9924 277.405 69.7335 299.41L67.6301 308.434Z" fill="#8DECB4"/>
<path d="M69.7588 303.46C69.5242 303.439 69.3128 303.283 69.2299 303.044C60.656 278.153 41.8508 269.227 33.1065 267.984C32.7685 267.937 32.533 267.622 32.5803 267.284C32.6284 266.944 32.9281 266.709 33.2805 266.758C42.9506 268.132 61.6496 277.234 70.4011 302.641C70.5126 302.964 70.3395 303.317 70.0166 303.429C69.9319 303.458 69.8436 303.467 69.7588 303.46Z" fill="white"/>
<path d="M387.952 254.241C387.952 254.241 389.141 236.372 399.671 223.109C410.201 209.845 409.554 204.383 402.294 201.705C395.034 199.028 378.169 215.013 381.921 236.419C385.674 257.826 387.952 254.241 387.952 254.241Z" fill="#8DECB4"/>
<path opacity="0.1" d="M387.952 254.241C387.952 254.241 389.141 236.372 399.671 223.109C410.201 209.845 409.554 204.383 402.294 201.705C395.034 199.028 378.169 215.013 381.921 236.419C385.674 257.826 387.952 254.241 387.952 254.241Z" fill="black"/>
<path d="M384.737 244.034C384.519 244.034 384.336 243.865 384.323 243.645C383.093 223.969 396.989 207.825 402.19 204.171C402.376 204.04 402.636 204.084 402.768 204.272C402.9 204.459 402.855 204.718 402.668 204.85C397.568 208.432 383.944 224.27 385.151 243.594C385.166 243.822 384.992 244.019 384.763 244.033C384.754 244.034 384.745 244.034 384.737 244.034Z" fill="white"/>
<path d="M385.091 268.996C385.091 268.996 391.436 271.195 399.59 272.487C407.744 273.777 411.342 269.878 411.342 269.878C411.342 269.878 408.131 262.23 403.501 260.085C403.501 260.085 411.351 261.685 417.652 265.889C417.652 265.889 422.631 265.965 424.613 258.365C424.613 258.365 421.663 253.792 411.766 251.321C411.766 251.321 417.788 249.806 426.465 252.019C427.115 252.277 429.889 242.452 430.729 237.919C431.567 233.386 429.746 233.434 426.213 232.49C422.679 231.546 410.975 228.918 408.762 230.861C406.55 232.805 405.426 239.45 405.426 239.45C405.426 239.45 403.969 235.529 405.095 231.027C405.095 231.027 401.915 229.785 396.979 231.22C392.942 232.395 392.746 235.141 392.929 238.246C393.062 240.516 393.609 242.933 394.676 246.127C394.676 246.127 391.529 242.094 391.432 233.349C391.432 233.349 383.171 237.453 381.761 245.653C380.997 250.086 379.916 263.106 385.091 268.996Z" fill="#8DECB4"/>
<path d="M386.649 267.401C386.819 267.401 386.983 267.306 387.062 267.142C393.642 253.472 418.105 237.587 426.868 235.883C427.116 235.834 427.28 235.594 427.231 235.345C427.183 235.096 426.94 234.936 426.694 234.983C417.786 236.716 392.921 252.856 386.237 266.745C386.127 266.973 386.223 267.247 386.451 267.357C386.515 267.387 386.582 267.401 386.649 267.401Z" fill="white"/>
<path d="M68.4864 314.755C67.4749 314.755 66.8701 313.919 66.8701 312.519V162.477L250.618 56.3904L250.619 205.829C250.619 208.121 249.002 210.92 247.017 212.068L69.9502 314.297C69.4319 314.596 68.9253 314.755 68.4864 314.755Z" fill="#FAFAFA"/>
<path d="M250.096 57.2942L250.097 205.829C250.097 207.92 248.567 210.57 246.757 211.616L69.6901 313.845C69.2504 314.098 68.8347 314.233 68.4868 314.233C67.4994 314.233 67.3924 313.034 67.3924 312.519V162.778L250.096 57.2942ZM251.139 55.4861L66.3496 162.176V312.519C66.3496 314.266 67.2202 315.276 68.4868 315.276C69.006 315.276 69.592 315.106 70.212 314.749L247.278 212.519C249.41 211.287 251.14 208.292 251.14 205.829L251.139 55.4861Z" fill="#E0E0E0"/>
<path d="M66.3496 162.176V187.28L251.138 80.5923L251.139 55.4861L66.3496 162.176Z" fill="#8DECB4"/>
<path d="M80.8428 163.515L80.8437 167.115C80.8437 167.851 81.3655 168.152 82.0024 167.784L138.817 134.983L138.816 128.707L82.0015 161.508C81.3637 161.876 80.8428 162.779 80.8428 163.515Z" fill="#FAFAFA"/>
<path d="M144.904 125.191C145.544 124.822 146.063 125.122 146.063 125.86V129.46C146.063 130.199 145.544 131.098 144.904 131.467L138.816 134.983L138.815 128.707L144.904 125.191Z" fill="#12372A"/>
<path d="M66.3506 154.084C66.3506 151.621 68.0802 148.626 70.2129 147.394L247.278 45.1648C249.411 43.9329 251.14 44.932 251.14 47.3948V55.4861L66.3506 162.176V154.084Z" fill="#12372A"/>
<path d="M230.604 58.993C229.603 59.571 228.792 60.9759 228.792 62.1311C228.792 63.2862 229.603 63.7554 230.604 63.1774C231.604 62.5994 232.415 61.1945 232.415 60.0393C232.415 58.8833 231.604 58.415 230.604 58.993Z" fill="#8DECB4"/>
<path d="M236.342 55.6749C235.341 56.2529 234.53 57.6578 234.53 58.8129C234.53 59.9681 235.341 60.4373 236.342 59.8593C237.343 59.2812 238.154 57.8763 238.154 56.7212C238.154 55.5652 237.343 55.0969 236.342 55.6749Z" fill="#8DECB4"/>
<path d="M242.082 52.3568C241.081 52.9348 240.271 54.3397 240.271 55.4948C240.271 56.6509 241.081 57.1192 242.082 56.5411C243.083 55.9631 243.894 54.5582 243.894 53.4031C243.894 52.2471 243.083 51.7788 242.082 52.3568Z" fill="#8DECB4"/>
<g opacity="0.1">
<path d="M193.166 96.9382C190.978 98.2013 189.205 101.272 189.205 103.799C189.205 106.325 190.978 107.349 193.166 106.086C195.353 104.823 197.126 101.751 197.126 99.2253C197.126 96.6991 195.353 95.6751 193.166 96.9382Z" fill="black"/>
<path d="M175.049 107.398C172.862 108.661 171.089 111.732 171.089 114.258C171.089 116.784 172.862 117.808 175.049 116.545C177.237 115.282 179.01 112.211 179.01 109.685C179.01 107.159 177.237 106.135 175.049 107.398Z" fill="black"/>
<path d="M211.283 86.4774C209.096 87.7405 207.322 90.8117 207.322 93.3378C207.322 95.864 209.096 96.888 211.283 95.6249C213.47 94.3618 215.243 91.2907 215.243 88.7645C215.243 86.2393 213.47 85.2153 211.283 86.4774Z" fill="black"/>
<path d="M229.399 75.9985C227.212 77.2616 225.438 80.3327 225.438 82.8589C225.438 85.385 227.212 86.409 229.399 85.146C231.586 83.8829 233.359 80.8117 233.359 78.2856C233.359 75.7595 231.586 74.7354 229.399 75.9985Z" fill="black"/>
</g>
<path d="M84.7051 189.234L127.707 164.407C129.839 163.175 131.569 164.174 131.569 166.637V207.923C131.569 210.386 129.839 213.382 127.707 214.613L84.706 239.441C82.5732 240.673 80.8437 239.674 80.8437 237.211L80.8428 195.924C80.8428 193.461 82.5724 190.466 84.7051 189.234Z" fill="#E0E0E0"/>
<path d="M146.306 153.671L236.408 101.648C238.54 100.416 240.27 101.415 240.27 103.878V145.164C240.27 147.627 238.54 150.622 236.408 151.854L146.307 203.877C144.174 205.109 142.444 204.111 142.444 201.647L142.443 160.36C142.443 157.898 144.172 154.903 146.306 153.671Z" fill="#E0E0E0"/>
<path d="M84.7061 251.993L153.071 212.523C155.204 211.291 156.933 212.166 156.934 214.476C156.934 216.786 155.205 219.658 153.072 220.89L84.7061 260.361C82.5733 261.592 80.8438 260.717 80.8438 258.407C80.8438 256.096 82.5724 253.225 84.7061 251.993Z" fill="#E0E0E0"/>
<path d="M84.7061 266.634L153.071 227.164C155.204 225.932 156.933 226.807 156.934 229.117C156.934 231.427 155.205 234.299 153.072 235.531L84.7061 275.002C82.5733 276.234 80.8438 275.358 80.8438 273.048C80.8438 270.737 82.5724 267.866 84.7061 266.634Z" fill="#E0E0E0"/>
<path d="M84.7061 281.276L153.071 241.806C155.204 240.574 156.933 241.449 156.934 243.759C156.934 246.07 155.205 248.941 153.072 250.173L84.7061 289.644C82.5733 290.876 80.8438 290.001 80.8438 287.69C80.8438 285.378 82.5724 282.507 84.7061 281.276Z" fill="#E0E0E0"/>
<path d="M117.078 231.628C117.078 230.15 118.116 228.353 119.396 227.614L237.952 159.166C239.232 158.427 241.307 158.426 242.587 159.166L245.199 160.674C246.479 161.413 247.516 163.21 247.516 164.688V255.564C247.516 257.036 246.473 258.842 245.199 259.578L126.642 328.027C125.367 328.763 123.282 328.763 122.007 328.027L119.396 326.519C118.121 325.783 117.078 323.977 117.078 322.505V231.628Z" fill="#8DECB4"/>
<path opacity="0.4" d="M117.754 229.346L124.332 233.139L246.835 162.405C246.419 161.681 245.838 161.045 245.202 160.672L242.581 159.17C241.309 158.424 239.226 158.424 237.954 159.17L119.398 227.614C118.751 227.985 118.17 228.621 117.754 229.346Z" fill="white"/>
<path opacity="0.1" d="M117.074 231.626V322.5C117.074 323.98 118.116 325.778 119.399 326.512L122.008 328.025C122.205 328.135 122.414 328.234 122.644 328.31C122.94 328.409 123.258 328.486 123.597 328.53C124.2 328.607 124.836 328.585 125.429 328.464C125.582 328.431 125.736 328.387 125.878 328.343C125.977 328.31 126.065 328.277 126.152 328.234C125.725 328.387 125.352 328.365 125.045 328.211C124.606 327.981 124.332 327.455 124.332 326.688V235.814C124.332 234.86 124.815 234.136 125.538 233.84L124.332 233.139L117.755 229.346C117.337 230.069 117.074 230.891 117.074 231.626Z" fill="black"/>
<path opacity="0.2" d="M124.331 233.138L179.235 253.651C183.15 255.109 187.545 253.661 189.826 250.165L198.643 236.657L247.274 162.152L200.401 237.165L247.514 255.603C247.504 256.349 247.229 257.182 246.791 257.916L200.269 237.375L190.023 253.772C187.667 257.533 182.908 259.002 178.852 257.204L171.557 253.983L125.045 328.212C124.606 327.982 124.332 327.456 124.332 326.689V325.176L171.33 253.884L124.331 233.138Z" fill="black"/>
<path d="M222.154 128.809V337.451C222.154 339.913 223.884 340.913 226.017 339.681L319.746 285.567C321.879 284.335 323.609 281.339 323.609 278.877V70.2351C323.609 67.7723 321.879 66.7733 319.746 68.0051L226.017 122.119C223.884 123.351 222.154 126.346 222.154 128.809Z" fill="#FAFAFA" stroke="#E0E0E0" stroke-width="1.04346" stroke-miterlimit="10"/>
<path d="M227.586 132.697C227.586 132.119 228.036 131.391 228.59 131.071L239.268 124.909C239.822 124.589 240.272 124.798 240.272 125.376C240.272 125.953 239.822 126.681 239.268 127.001L228.591 133.164C228.036 133.483 227.586 133.274 227.586 132.697Z" fill="#12372A"/>
<path d="M227.586 136.852C227.586 136.274 228.036 135.546 228.59 135.226L239.268 129.064C239.822 128.744 240.272 128.953 240.272 129.531C240.272 130.109 239.822 130.836 239.268 131.156L228.591 137.319C228.036 137.638 227.586 137.429 227.586 136.852Z" fill="#12372A"/>
<path d="M227.586 141.007C227.586 140.429 228.036 139.701 228.59 139.381L239.268 133.219C239.822 132.899 240.272 133.108 240.272 133.686C240.272 134.264 239.822 134.991 239.268 135.311L228.591 141.474C228.036 141.793 227.586 141.584 227.586 141.007Z" fill="#12372A"/>
<path d="M316.361 87.5061V85.8398C316.361 85.7399 316.288 85.6926 316.197 85.7337L314.912 86.3126C314.821 86.3536 314.728 86.3081 314.698 86.2136C314.623 85.9772 314.527 85.7649 314.412 85.5767C314.36 85.4919 314.348 85.3546 314.392 85.2654L315.248 83.5394C315.293 83.4502 315.258 83.3378 315.173 83.2878L314.243 82.7517C314.157 82.7018 314.042 82.7285 313.987 82.8115L312.92 84.4162C312.865 84.4991 312.74 84.5571 312.641 84.5544C312.421 84.5491 312.188 84.5714 311.946 84.6249C311.849 84.6463 311.763 84.5883 311.754 84.4893L311.613 83.088C311.603 82.989 311.525 82.9488 311.439 82.9988L309.995 83.8319C309.91 83.8819 309.832 84.0023 309.823 84.1013L309.679 85.7069C309.67 85.8059 309.602 85.9397 309.529 86.0066C309.248 86.2653 308.979 86.5499 308.727 86.8549C308.664 86.9316 308.537 86.9682 308.443 86.9352L307.517 86.6114C307.423 86.5784 307.306 86.6221 307.257 86.7077L306.196 88.5453C306.146 88.6318 306.168 88.754 306.243 88.8191L306.986 89.4596C307.062 89.5247 307.093 89.6522 307.058 89.745C306.921 90.1161 306.807 90.4907 306.724 90.8636C306.703 90.9608 306.621 91.0857 306.54 91.1437L305.221 92.0713C305.14 92.1284 305.074 92.256 305.074 92.355V94.0212C305.074 94.1211 305.147 94.1684 305.238 94.1274L306.523 93.5485C306.614 93.5075 306.707 93.5529 306.737 93.6475C306.812 93.8839 306.908 94.0962 307.023 94.2844C307.075 94.3691 307.087 94.5065 307.043 94.5957L306.187 96.3217C306.142 96.4109 306.177 96.5233 306.262 96.5733L307.192 97.1093C307.277 97.1593 307.393 97.1325 307.448 97.0496L308.515 95.4449C308.57 95.3619 308.695 95.3039 308.794 95.3057C309.014 95.3111 309.247 95.2888 309.489 95.2353C309.586 95.2138 309.672 95.2718 309.681 95.3708L309.822 96.7731C309.832 96.8721 309.911 96.9122 309.996 96.8623L311.44 96.0291C311.525 95.9792 311.603 95.8588 311.612 95.7597L311.756 94.1542C311.765 94.0551 311.833 93.9213 311.906 93.8544C312.187 93.5958 312.455 93.3112 312.707 93.0061C312.77 92.9294 312.897 92.8929 312.991 92.9259L313.917 93.2488C314.01 93.2818 314.127 93.2381 314.177 93.1524L315.238 91.3149C315.288 91.2293 315.266 91.1062 315.191 91.0411L314.448 90.4006C314.372 90.3355 314.341 90.2079 314.376 90.1152C314.513 89.7441 314.627 89.3695 314.71 88.9966C314.731 88.8994 314.813 88.7745 314.894 88.7165L316.213 87.7888C316.295 87.7326 316.361 87.606 316.361 87.5061ZM310.719 92.7457C309.373 93.5226 308.281 92.8929 308.281 91.3381C308.281 89.7834 309.373 87.8932 310.719 87.1163C312.065 86.3393 313.157 86.9691 313.157 88.5238C313.156 90.0777 312.065 91.9679 310.719 92.7457Z" fill="#37474F"/>
<path d="M272.881 128.627C283.833 122.304 292.711 127.43 292.711 140.076C292.711 152.722 283.833 168.099 272.881 174.422C261.929 180.746 253.051 175.619 253.051 162.974C253.052 150.327 261.93 134.95 272.881 128.627Z" fill="#12372A"/>
<path d="M272.742 138.579C276.295 136.528 279.175 138.19 279.175 142.293C279.175 146.396 276.295 151.385 272.742 153.436C269.189 155.486 266.309 153.824 266.309 149.721C266.309 145.619 269.189 140.63 272.742 138.579Z" fill="#8DECB4"/>
<path d="M285.421 160.456C285.421 153.715 280.688 150.982 274.851 154.353L271.202 156.46C265.366 159.83 260.633 168.027 260.633 174.767V176.605C261.686 176.955 262.831 177.128 264.039 177.131C266.702 177.136 269.699 176.259 272.881 174.422C277.639 171.675 282.003 167.217 285.421 162.019V160.456Z" fill="#8DECB4"/>
<path d="M254.983 193.237L290.78 172.57C291.847 171.954 292.711 172.391 292.711 173.546C292.711 174.702 291.847 176.138 290.78 176.753L254.983 197.421C253.916 198.036 253.052 197.599 253.052 196.444C253.052 195.289 253.916 193.854 254.983 193.237Z" fill="#8DECB4"/>
<path d="M251.141 208.021L294.622 182.89C295.689 182.275 296.553 182.712 296.553 183.867C296.553 185.022 295.689 186.458 294.622 187.074L251.141 212.204C250.074 212.82 249.21 212.382 249.21 211.227C249.21 210.072 250.074 208.636 251.141 208.021Z" fill="#12372A"/>
<path d="M295.781 203.148L307.956 196.119C308.595 195.749 309.114 195.918 309.114 196.496C309.114 197.074 308.595 197.842 307.956 198.211L295.781 205.241C295.141 205.61 294.622 205.442 294.622 204.864C294.622 204.286 295.141 203.518 295.781 203.148Z" fill="#37474F"/>
<path d="M234.956 234.087L252.833 223.766C253.9 223.151 254.764 223.649 254.764 224.881V237.157C254.764 238.389 253.9 239.886 252.833 240.502L234.956 250.823C233.889 251.439 233.024 250.94 233.024 249.708V237.432C233.024 236.201 233.889 234.703 234.956 234.087Z" fill="#8DECB4"/>
<path d="M237.807 235.803L249.982 228.773C250.622 228.404 251.141 228.572 251.141 229.15C251.141 229.728 250.622 230.496 249.982 230.865L237.807 237.895C237.168 238.265 236.648 238.096 236.648 237.518C236.648 236.94 237.167 236.172 237.807 235.803Z" fill="#FAFAFA"/>
<path d="M236.648 241.994V245.593C236.648 246.332 237.168 246.632 237.807 246.262L249.982 239.233C250.622 238.863 251.141 237.964 251.141 237.226V233.625C251.141 232.887 250.623 232.587 249.982 232.956L237.806 239.986C237.167 240.356 236.648 241.255 236.648 241.994Z" fill="#FAFAFA"/>
<path d="M263.943 217.352L281.82 207.031C282.887 206.415 283.752 206.914 283.752 208.146V220.421C283.752 221.653 282.887 223.151 281.82 223.766L263.943 234.088C262.876 234.703 262.012 234.204 262.012 232.973V220.697C262.012 219.466 262.876 217.968 263.943 217.352Z" fill="#8DECB4"/>
<path d="M266.795 219.068L278.97 212.038C279.61 211.669 280.129 211.837 280.129 212.415C280.129 212.993 279.61 213.761 278.97 214.131L266.795 221.16C266.156 221.53 265.637 221.361 265.637 220.783C265.637 220.205 266.155 219.437 266.795 219.068Z" fill="#FAFAFA"/>
<path d="M265.637 225.259V228.859C265.637 229.597 266.156 229.897 266.795 229.528L278.97 222.498C279.61 222.128 280.129 221.229 280.129 220.491L280.13 216.891C280.13 216.152 279.611 215.852 278.971 216.222L266.795 223.251C266.155 223.622 265.637 224.52 265.637 225.259Z" fill="#FAFAFA"/>
<path d="M292.928 200.616L310.806 190.294C311.873 189.679 312.737 190.178 312.737 191.409V203.685C312.737 204.917 311.873 206.415 310.806 207.03L292.928 217.351C291.861 217.967 290.997 217.468 290.997 216.236V203.961C290.997 202.729 291.862 201.231 292.928 200.616Z" fill="#8DECB4"/>
<path d="M295.781 202.331L307.956 195.301C308.595 194.932 309.114 195.1 309.114 195.678C309.114 196.257 308.596 197.025 307.956 197.394L295.781 204.424C295.141 204.793 294.622 204.624 294.622 204.046C294.622 203.468 295.141 202.701 295.781 202.331Z" fill="#FAFAFA"/>
<path d="M294.622 208.523V212.122C294.622 212.86 295.141 213.16 295.781 212.791L307.956 205.761C308.595 205.392 309.114 204.492 309.114 203.754V200.154C309.114 199.415 308.596 199.115 307.956 199.485L295.78 206.515C295.141 206.885 294.622 207.784 294.622 208.523Z" fill="#FAFAFA"/>
<path d="M236.887 262.26L308.875 220.697C311.008 219.465 312.737 220.34 312.737 222.65C312.737 224.961 311.008 227.833 308.875 229.064L236.887 270.627C234.754 271.858 233.024 270.983 233.024 268.673C233.024 266.362 234.754 263.491 236.887 262.26Z" fill="#E0E0E0"/>
<path d="M236.887 278.995L308.875 237.432C311.008 236.2 312.737 237.075 312.737 239.385C312.737 241.696 311.008 244.568 308.875 245.799L236.887 287.361C234.754 288.593 233.024 287.718 233.024 285.408C233.024 283.098 234.754 280.226 236.887 278.995Z" fill="#E0E0E0"/>
<path d="M260.32 286.386L285.444 271.88C286.511 271.264 287.375 271.763 287.375 272.995V281.086C287.375 282.318 286.511 283.816 285.444 284.431L260.32 298.937C259.253 299.552 258.389 299.054 258.389 297.822V289.731C258.388 288.499 259.253 287.001 260.32 286.386Z" fill="#8DECB4"/>
<path d="M238.46 263.489C237.459 264.067 236.648 265.472 236.648 266.627C236.648 267.782 237.459 268.25 238.46 267.673C239.461 267.096 240.272 265.69 240.272 264.535C240.272 263.379 239.461 262.911 238.46 263.489Z" fill="#FAFAFA"/>
<path d="M244.198 260.17C243.198 260.748 242.387 262.153 242.387 263.308C242.387 264.463 243.198 264.932 244.198 264.354C245.199 263.776 246.01 262.371 246.01 261.216C246.01 260.061 245.199 259.593 244.198 260.17Z" fill="#FAFAFA"/>
<path d="M249.94 256.851C248.939 257.429 248.128 258.834 248.128 259.989C248.128 261.144 248.939 261.613 249.94 261.035C250.94 260.457 251.751 259.053 251.751 257.897C251.751 256.742 250.939 256.274 249.94 256.851Z" fill="#FAFAFA"/>
<path d="M255.678 253.533C254.677 254.111 253.866 255.516 253.866 256.671C253.866 257.826 254.677 258.295 255.678 257.717C256.679 257.139 257.489 255.735 257.489 254.579C257.489 253.424 256.679 252.955 255.678 253.533Z" fill="#FAFAFA"/>
<path d="M261.418 250.215C260.417 250.793 259.606 252.198 259.606 253.353C259.606 254.508 260.417 254.977 261.418 254.399C262.419 253.821 263.23 252.416 263.23 251.261C263.23 250.106 262.419 249.637 261.418 250.215Z" fill="#FAFAFA"/>
<path d="M267.157 246.897C266.157 247.475 265.346 248.88 265.346 250.035C265.346 251.19 266.157 251.659 267.157 251.081C268.158 250.503 268.969 249.098 268.969 247.943C268.969 246.788 268.157 246.319 267.157 246.897Z" fill="#FAFAFA"/>
<path d="M272.897 243.579C271.896 244.157 271.085 245.562 271.085 246.717C271.085 247.872 271.896 248.34 272.897 247.763C273.897 247.185 274.708 245.78 274.708 244.625C274.708 243.469 273.897 243.001 272.897 243.579Z" fill="#FAFAFA"/>
<path d="M238.46 280.242C237.459 280.82 236.648 282.225 236.648 283.38C236.648 284.535 237.459 285.004 238.46 284.426C239.461 283.848 240.272 282.444 240.272 281.288C240.272 280.133 239.461 279.664 238.46 280.242Z" fill="#FAFAFA"/>
<path d="M244.198 276.924C243.198 277.502 242.387 278.907 242.387 280.062C242.387 281.217 243.198 281.685 244.198 281.108C245.199 280.53 246.01 279.125 246.01 277.97C246.01 276.814 245.199 276.346 244.198 276.924Z" fill="#FAFAFA"/>
<path d="M249.94 273.606C248.939 274.184 248.128 275.588 248.128 276.744C248.128 277.899 248.939 278.368 249.94 277.79C250.94 277.212 251.751 275.807 251.751 274.652C251.751 273.496 250.939 273.028 249.94 273.606Z" fill="#FAFAFA"/>
<path d="M255.678 270.287C254.677 270.865 253.866 272.27 253.866 273.425C253.866 274.58 254.677 275.049 255.678 274.471C256.679 273.893 257.489 272.488 257.489 271.333C257.489 270.178 256.679 269.71 255.678 270.287Z" fill="#FAFAFA"/>
<path d="M261.418 266.968C260.417 267.546 259.606 268.951 259.606 270.106C259.606 271.261 260.417 271.73 261.418 271.153C262.419 270.575 263.23 269.17 263.23 268.015C263.23 266.859 262.419 266.391 261.418 266.968Z" fill="#FAFAFA"/>
<path d="M267.157 263.65C266.157 264.228 265.346 265.633 265.346 266.788C265.346 267.944 266.157 268.413 267.157 267.835C268.158 267.257 268.969 265.852 268.969 264.697C268.968 263.541 268.157 263.072 267.157 263.65Z" fill="#FAFAFA"/>
<path d="M272.897 260.332C271.896 260.91 271.085 262.315 271.085 263.47C271.085 264.625 271.896 265.094 272.897 264.516C273.897 263.939 274.708 262.533 274.708 261.378C274.708 260.222 273.897 259.754 272.897 260.332Z" fill="#FAFAFA"/>
<path d="M353.398 298.044C350.269 298.044 347.301 297.273 344.613 295.721C338.186 292.01 334.499 284.242 334.499 274.411C334.499 257.122 345.488 237.233 359.516 229.134C367.07 224.774 374.57 224.301 380.64 227.805C387.069 231.517 390.755 239.285 390.755 249.116C390.755 266.405 379.766 286.294 365.738 294.392C361.529 296.821 357.336 298.044 353.398 298.044ZM371.827 237.938C369.577 237.938 367.2 239.068 365.738 239.912C355.55 245.793 346.943 261.592 346.943 274.411C346.943 279.599 348.398 283.537 350.835 284.944C353.61 286.546 357.464 284.798 359.515 283.615C369.703 277.733 378.31 261.935 378.31 249.116C378.31 243.927 376.855 239.99 374.418 238.583C373.62 238.121 372.734 237.938 371.827 237.938Z" fill="#12372A"/>
<path d="M380.537 251.884C380.537 242.173 374.419 238.583 374.419 238.583C376.856 239.99 378.311 243.927 378.311 249.116C378.311 261.934 369.704 277.732 359.516 283.615C357.465 284.798 353.611 286.546 350.837 284.945C350.837 284.945 356 288.149 363.133 284.258C373.461 278.624 380.537 264.702 380.537 251.884Z" fill="#37474F"/>
<path d="M370.722 130.494C370.722 126.941 367.842 124.06 364.288 124.06C360.735 124.06 357.854 126.941 357.854 130.494C357.854 130.501 357.855 130.506 357.855 130.511H357.854V232.831C357.854 233.782 358.482 234.733 359.739 235.458C362.252 236.908 366.326 236.908 368.839 235.458C370.095 234.733 370.723 233.782 370.723 232.831V130.512H370.722C370.722 130.506 370.722 130.501 370.722 130.494Z" fill="#37474F"/>
<path d="M365.583 153.359C365.583 150.99 363.919 148.108 361.868 146.923C360.824 146.32 359.884 146.278 359.209 146.689L359.206 146.683L343.33 155.83L342.946 156.058C342.89 156.086 342.836 156.113 342.79 156.15C342.516 156.333 342.26 156.543 342.031 156.772C341.071 157.723 340.477 159.049 340.477 160.504C340.477 162.497 341.584 164.236 343.211 165.132C343.962 165.535 344.813 165.763 345.727 165.763C346.632 165.763 347.492 165.535 348.233 165.132C348.334 165.077 348.435 165.014 348.535 164.958L364.511 155.757L364.509 155.753C365.172 155.361 365.583 154.535 365.583 153.359Z" fill="#12372A"/>
<path d="M365.583 178.982C365.583 176.612 363.919 173.73 361.867 172.546C360.824 171.944 359.884 171.901 359.209 172.311L359.206 172.306L340.599 182.991L340.214 183.22C340.159 183.247 340.104 183.275 340.059 183.311C339.784 183.494 339.528 183.705 339.3 183.933C338.339 184.884 337.745 186.21 337.745 187.665C337.745 189.659 338.852 191.397 340.48 192.294C341.23 192.696 342.08 192.925 342.995 192.925C343.901 192.925 344.761 192.697 345.502 192.294C345.603 192.239 345.703 192.175 345.803 192.12L364.511 181.379L364.509 181.375C365.171 180.984 365.583 180.157 365.583 178.982Z" fill="#12372A"/>
</svg>
